<?xml version="1.0" encoding="iso-8859-1"?><!DOCTYPE svg PUBLIC "-//W3C//DTD SVG 1.1//EN" "http://www.w3.org/Graphics/SVG/1.1/DTD/svg11.dtd"><svg viewBox="0 0 800 800" xmlns="http://www.w3.org/2000/svg" xmlns:xlink="http://www.w3.org/1999/xlink"><style>:root>svg{display:none}:root>svg:target{display:block}</style><svg viewBox="0 0 902.86 902.86" xml:space="preserve" id="cart_1" xmlns="http://www.w3.org/2000/svg"><path d="M671.504 577.829 781.989 145.22H902.86v-68H729.174L703.128 179.2 0 178.697l74.753 399.129h596.751v.003zm14.262-330.641-67.077 262.64h-487.49L81.928 246.756l603.838.432zM578.418 825.641c59.961 0 108.743-48.783 108.743-108.744s-48.782-108.742-108.743-108.742H168.717c-59.961 0-108.744 48.781-108.744 108.742s48.782 108.744 108.744 108.744S277.46 776.858 277.46 716.897c0-14.4-2.821-28.152-7.927-40.742h208.069c-5.107 12.59-7.928 26.342-7.928 40.742.001 59.961 48.783 108.744 108.744 108.744zM209.46 716.897c0 22.467-18.277 40.744-40.743 40.744s-40.744-18.277-40.744-40.744c0-22.465 18.277-40.742 40.744-40.742 22.466 0 40.743 18.277 40.743 40.742zm409.702 0c0 22.467-18.277 40.744-40.743 40.744s-40.743-18.277-40.743-40.744c0-22.465 18.277-40.742 40.743-40.742s40.743 18.277 40.743 40.742z"/></svg><svg viewBox="0 0 367.467 367.467" xml:space="preserve" id="copyright_0" xmlns="http://www.w3.org/2000/svg"><path d="M183.73.018C82.427.018 0 82.404 0 183.733c0 101.289 82.427 183.716 183.73 183.716 101.315 0 183.737-82.427 183.737-183.716C367.467 82.404 285.045.018 183.73.018zm0 326.5c-78.743 0-142.798-64.052-142.798-142.784 0-78.766 64.055-142.817 142.798-142.817 78.752 0 142.807 64.052 142.807 142.817-.001 78.732-64.056 142.784-142.807 142.784z"/><path d="M244.036 217.014c-11.737 20.141-33.562 32.635-56.956 32.635-36.329 0-65.921-29.585-65.921-65.915 0-36.36 29.592-65.955 65.921-65.955 23.395 0 45.219 12.54 56.956 32.641l1.517 2.627h44.28l-2.658-7.129c-7.705-20.413-21.225-37.769-39.122-50.157-17.942-12.42-39.017-19.009-60.973-19.009-58.981 0-106.946 48.006-106.946 106.982 0 58.98 47.965 106.941 106.946 106.941 21.956 0 43.03-6.567 60.973-19.006 17.897-12.391 31.417-29.741 39.122-50.154l2.658-7.133h-44.28l-1.517 2.632z"/></svg><svg viewBox="0 0 276.715 276.715" xml:space="preserve" id="copyright_1" xmlns="http://www.w3.org/2000/svg"><path d="M138.357 0C62.066 0 0 62.066 0 138.357s62.066 138.357 138.357 138.357 138.357-62.066 138.357-138.357S214.648 0 138.357 0zm0 258.715C71.992 258.715 18 204.723 18 138.357S71.992 18 138.357 18s120.357 53.992 120.357 120.357-53.991 120.358-120.357 120.358z"/><path d="M194.798 160.903a9.003 9.003 0 0 0-12.432 2.732c-8.694 13.593-23.503 21.708-39.614 21.708-25.908 0-46.985-21.078-46.985-46.986s21.077-46.986 46.985-46.986c15.633 0 30.2 7.747 38.968 20.723a9 9 0 0 0 14.914-10.078c-12.118-17.937-32.262-28.645-53.882-28.645-35.833 0-64.985 29.152-64.985 64.986s29.152 64.986 64.985 64.986c22.281 0 42.759-11.218 54.778-30.009a9 9 0 0 0-2.732-12.431z"/></svg><svg viewBox="0 0 31 32" xml:space="preserve" id="search_1" xmlns="http://www.w3.org/2000/svg"><path d="M13.025 26.614c2.117 0 4.208-.524 6.07-1.519l5.606 5.766a3.597 3.597 0 0 0 2.59 1.09 3.6 3.6 0 0 0 2.59-1.09 3.772 3.772 0 0 0 0-5.254l-5.542-5.652a13.487 13.487 0 0 0 1.767-6.672c0-7.352-5.868-13.332-13.081-13.332-7.212 0-13.081 5.98-13.081 13.332 0 7.351 5.868 13.331 13.081 13.331zm0-25.663c6.661 0 12.081 5.532 12.081 12.332 0 2.293-.632 4.541-1.828 6.502a.496.496 0 0 0 .145.664l5.744 5.857a2.768 2.768 0 0 1 0 3.855c-.999 1.018-2.755 1.017-3.75.001l-5.875-6.043a.506.506 0 0 0-.358-.163.439.439 0 0 0-.276.1 11.884 11.884 0 0 1-5.882 1.558C6.365 25.614.945 20.083.945 13.283S6.364.951 13.025.951z"/><path d="M13.025 21.532c4.465 0 8.098-3.7 8.098-8.249s-3.633-8.25-8.098-8.25c-4.465 0-8.098 3.701-8.098 8.25s3.633 8.249 8.098 8.249zm0-15.499c3.914 0 7.098 3.252 7.098 7.25 0 3.997-3.184 7.249-7.098 7.249-3.914 0-7.098-3.252-7.098-7.249 0-3.998 3.184-7.25 7.098-7.25z"/></svg><svg viewBox="0 0 24 24" fill="none" id="search_2" xmlns="http://www.w3.org/2000/svg"><path d="M17.556 3A3.444 3.444 0 0 1 21 6.444v11.112A3.444 3.444 0 0 1 17.556 21H6.444A3.444 3.444 0 0 1 3 17.556V6.444A3.444 3.444 0 0 1 6.444 3h11.112Z" stroke="#000" stroke-width="2"/><path fill-rule="evenodd" clip-rule="evenodd" d="M11.507 7.014a4.493 4.493 0 1 0 2.39 8.298l1.269 1.268a1 1 0 1 0 1.414-1.414l-1.268-1.268a4.493 4.493 0 0 0-3.805-6.884Zm-2.493 4.493a2.493 2.493 0 1 1 4.986 0 2.493 2.493 0 0 1-4.986 0Z" fill="#000"/></svg><svg fill="none" viewBox="0 0 32 32" id="search_2_1" xmlns="http://www.w3.org/2000/svg"><path d="M23.407 4A4.593 4.593 0 0 1 28 8.593v14.814A4.592 4.592 0 0 1 23.407 28H8.593A4.593 4.593 0 0 1 4 23.407V8.593A4.593 4.593 0 0 1 8.593 4h14.814Z" stroke="#fff"/><path fill-rule="evenodd" clip-rule="evenodd" d="M15.342 9.352a5.99 5.99 0 1 0 3.188 11.064l1.691 1.691a1.333 1.333 0 1 0 1.886-1.886l-1.691-1.69a5.99 5.99 0 0 0-5.073-9.178Zm-3.324 5.99a3.324 3.324 0 1 1 6.648 0 3.324 3.324 0 0 1-6.648 0Z" fill="#fff"/></svg><svg fill="none" viewBox="0 0 24 24" id="search_2_2" xmlns="http://www.w3.org/2000/svg"><g clip-path="url(#ia)"><path d="M19.407 0A4.593 4.593 0 0 1 24 4.593v14.814A4.592 4.592 0 0 1 19.407 24H4.593A4.593 4.593 0 0 1 0 19.407V4.593A4.593 4.593 0 0 1 4.593 0h14.814Z" stroke="#fff"/><path d="m20.889 19.603-5.178-5.178a5.537 5.537 0 1 0-.536.536l5.178 5.178a.38.38 0 1 0 .536-.536Zm-9.34-4.036a4.768 4.768 0 1 1 0-9.535 4.768 4.768 0 0 1 0 9.535Z" fill="#fff"/></g><defs><clipPath id="ia"><path fill="#fff" d="M0 0h24v24H0z"/></clipPath></defs></svg><svg fill="none" viewBox="0 0 15 15" id="search_2_3" xmlns="http://www.w3.org/2000/svg"><path d="M14.889 14.353 9.711 9.175a5.537 5.537 0 1 0-.536.536l5.178 5.178a.38.38 0 1 0 .536-.536Zm-9.34-4.036a4.768 4.768 0 1 1 0-9.535 4.768 4.768 0 0 1 0 9.535Z" fill="#fff"/></svg><svg fill="none" viewBox="0 0 15 15" id="search_2_4" xmlns="http://www.w3.org/2000/svg"><path d="M14.889 14.353 9.711 9.175a5.537 5.537 0 1 0-.536.536l5.178 5.178a.38.38 0 1 0 .536-.536Zm-9.34-4.036a4.768 4.768 0 1 1 0-9.535 4.768 4.768 0 0 1 0 9.535Z" fill="#D5D5D5"/></svg><svg viewBox="0 0 24 24" id="search_3" xmlns="http://www.w3.org/2000/svg"><path d="m21.842 21.134-6.843-6.843a7.317 7.317 0 1 0-.708.708l6.843 6.843a.5.5 0 1 0 .708-.708zM9.5 15.8a6.3 6.3 0 1 1 6.3-6.3 6.307 6.307 0 0 1-6.3 6.3z"/><path fill="none" d="M0 0h24v24H0z"/></svg><svg viewBox="0 0 24 24" fill="none" id="search_4" xmlns="http://www.w3.org/2000/svg"><path fill-rule="evenodd" clip-rule="evenodd" d="M4 11a7 7 0 1 1 14 0 7 7 0 0 1-14 0Zm7-9a9 9 0 1 0 5.618 16.032l3.675 3.675a1 1 0 0 0 1.414-1.414l-3.675-3.675A9 9 0 0 0 11 2Z" fill="#000"/></svg><svg fill="none" viewBox="0 0 28 28" id="search_4_1" xmlns="http://www.w3.org/2000/svg"><path fill-rule="evenodd" clip-rule="evenodd" d="M3.333 12.667a9.333 9.333 0 1 1 18.667 0 9.333 9.333 0 0 1-18.667 0Zm9.334-12c-6.628 0-12 5.372-12 12 0 6.627 5.372 12 12 12a11.95 11.95 0 0 0 7.49-2.625l4.9 4.9a1.333 1.333 0 1 0 1.886-1.885l-4.9-4.9a11.95 11.95 0 0 0 2.624-7.49c0-6.628-5.373-12-12-12Z" fill="#fff"/></svg><svg viewBox="0 0 72 72" xml:space="preserve" id="search_5" xmlns="http://www.w3.org/2000/svg"><path d="M28.131 10.632c-6.262 0-12.141 3.348-15.342 8.738a1 1 0 1 0 1.72 1.022c2.843-4.786 8.062-7.76 13.622-7.76a1 1 0 1 0 0-2zM11.967 23.646a1.001 1.001 0 0 0-1.201.746c-.299 1.276-.468 2.067-.468 3.487a1 1 0 1 0 2 0c0-1.205.135-1.834.415-3.032a1 1 0 0 0-.746-1.201z"/><path d="M66.613 57.793 50.471 41.652a4.963 4.963 0 0 0-1.17-.877 24.346 24.346 0 0 0 3.33-12.311c0-13.51-10.99-24.5-24.5-24.5-13.509 0-24.5 10.99-24.5 24.5s10.991 24.499 24.5 24.499c4.81 0 9.296-1.398 13.084-3.801.205.339.462.666.77.974l16.142 16.143a5.966 5.966 0 0 0 4.244 1.756 5.964 5.964 0 0 0 4.243-1.756 5.961 5.961 0 0 0 1.756-4.242 5.971 5.971 0 0 0-1.757-4.244zM7.631 28.465c0-11.304 9.196-20.5 20.5-20.5 11.305 0 20.5 9.196 20.5 20.5 0 11.305-9.197 20.499-20.5 20.499-11.304 0-20.5-9.194-20.5-20.499zm56.153 34.986c-.757.754-2.074.754-2.83 0L44.813 47.309c-.14-.139-.192-.232-.199-.232.003-.043.058-.455 1.201-1.596 1.14-1.143 1.552-1.195 1.565-1.203.026.008.119.06.263.203l16.14 16.141c.379.379.586.881.586 1.416a1.997 1.997 0 0 1-.585 1.413z"/></svg><svg fill="none" viewBox="0 0 32 32" id="search_5_2" xmlns="http://www.w3.org/2000/svg"><path d="M12.503 4.725A7.967 7.967 0 0 0 5.684 8.61a.444.444 0 1 0 .764.454 7.075 7.075 0 0 1 6.055-3.449.444.444 0 1 0 0-.889ZM5.318 10.51a.445.445 0 0 0-.533.33c-.133.568-.208.92-.208 1.55a.444.444 0 1 0 .889 0c0-.535.06-.815.184-1.347a.444.444 0 0 0-.332-.534Z" fill="#fff"/><path d="m29.606 25.686-7.175-7.174a2.205 2.205 0 0 0-.52-.39 10.82 10.82 0 0 0 1.48-5.471c0-6.005-4.884-10.89-10.888-10.89s-10.89 4.885-10.89 10.89c0 6.004 4.886 10.888 10.89 10.888a10.82 10.82 0 0 0 5.815-1.69c.09.151.205.297.342.434l7.174 7.174c.505.504 1.174.78 1.886.78a2.65 2.65 0 0 0 1.886-.78 2.65 2.65 0 0 0 .78-1.885c0-.712-.277-1.382-.78-1.886ZM3.392 12.65c0-5.024 4.087-9.111 9.11-9.111 5.025 0 9.112 4.087 9.112 9.111 0 5.024-4.088 9.11-9.111 9.11-5.024 0-9.111-4.085-9.111-9.11Zm24.956 15.55a.912.912 0 0 1-1.257 0l-7.174-7.175c-.062-.062-.086-.103-.089-.103.002-.02.026-.202.534-.71.507-.507.69-.53.696-.534a.402.402 0 0 1 .117.09l7.173 7.174a.887.887 0 0 1 0 1.257Z" fill="#fff"/></svg></svg>