<?xml version="1.0" encoding="utf-8"?><!DOCTYPE svg PUBLIC "-//W3C//DTD SVG 1.1//EN" "http://www.w3.org/Graphics/SVG/1.1/DTD/svg11.dtd"><svg viewBox="0 0 800 800" xmlns="http://www.w3.org/2000/svg" xmlns:xlink="http://www.w3.org/1999/xlink"><style>:root>svg{display:none}:root>svg:target{display:block}</style><svg fill="none" viewBox="0 0 32 32" id="cart" xmlns="http://www.w3.org/2000/svg"><g clip-path="url(#aa)" stroke="#fff" stroke-width="2"><path d="M10.083 0h21.043c.578 0 .998.771.84 1.568l-2.433 13.236c-.105.548-.455.921-.84.921H9.856C8.84 15.725 8 16.895 8 18.363 8 19.806 8.823 21 9.856 21h19.747M8 12 6.503 1.037C6.417.421 6.132 0 5.818 0H1.483C.67 0 0 1.29 0 2.916c0 1.598.656 2.916 1.483 2.916h3.522" stroke-miterlimit="10" stroke-linecap="round" stroke-linejoin="round"/><path d="M29 28a3 3 0 1 1-6 0 3 3 0 0 1 6 0ZM16 28a3 3 0 1 1-6 0 3 3 0 0 1 6 0Z"/></g><defs><clipPath id="aa"><path fill="#fff" d="M0 0h32v32H0z"/></clipPath></defs></svg><svg viewBox="0 0 367.467 367.467" xml:space="preserve" id="copyright_0" xmlns="http://www.w3.org/2000/svg"><path d="M183.73.018C82.427.018 0 82.404 0 183.733c0 101.289 82.427 183.716 183.73 183.716 101.315 0 183.737-82.427 183.737-183.716C367.467 82.404 285.045.018 183.73.018zm0 326.5c-78.743 0-142.798-64.052-142.798-142.784 0-78.766 64.055-142.817 142.798-142.817 78.752 0 142.807 64.052 142.807 142.817-.001 78.732-64.056 142.784-142.807 142.784z"/><path d="M244.036 217.014c-11.737 20.141-33.562 32.635-56.956 32.635-36.329 0-65.921-29.585-65.921-65.915 0-36.36 29.592-65.955 65.921-65.955 23.395 0 45.219 12.54 56.956 32.641l1.517 2.627h44.28l-2.658-7.129c-7.705-20.413-21.225-37.769-39.122-50.157-17.942-12.42-39.017-19.009-60.973-19.009-58.981 0-106.946 48.006-106.946 106.982 0 58.98 47.965 106.941 106.946 106.941 21.956 0 43.03-6.567 60.973-19.006 17.897-12.391 31.417-29.741 39.122-50.154l2.658-7.133h-44.28l-1.517 2.632z"/></svg><svg viewBox="0 0 276.715 276.715" xml:space="preserve" id="copyright_1" xmlns="http://www.w3.org/2000/svg"><path d="M138.357 0C62.066 0 0 62.066 0 138.357s62.066 138.357 138.357 138.357 138.357-62.066 138.357-138.357S214.648 0 138.357 0zm0 258.715C71.992 258.715 18 204.723 18 138.357S71.992 18 138.357 18s120.357 53.992 120.357 120.357-53.991 120.358-120.357 120.358z"/><path d="M194.798 160.903a9.003 9.003 0 0 0-12.432 2.732c-8.694 13.593-23.503 21.708-39.614 21.708-25.908 0-46.985-21.078-46.985-46.986s21.077-46.986 46.985-46.986c15.633 0 30.2 7.747 38.968 20.723a9 9 0 0 0 14.914-10.078c-12.118-17.937-32.262-28.645-53.882-28.645-35.833 0-64.985 29.152-64.985 64.986s29.152 64.986 64.985 64.986c22.281 0 42.759-11.218 54.778-30.009a9 9 0 0 0-2.732-12.431z"/></svg><svg viewBox="0 0 32 32" xml:space="preserve" id="email" xmlns="http://www.w3.org/2000/svg"><path d="M26.2 8.5C24 5.3 20.6 3.3 16.9 3H16c-3.7 0-7.2 1.6-9.7 4.3-2.5 2.7-3.6 6.4-3.2 10.1.7 6 5.5 10.8 11.5 11.4.4.2.9.2 1.4.2 2.6 0 5-.7 7.2-2.2.5-.3.6-.9.3-1.4-.3-.5-.9-.6-1.4-.3-2.2 1.4-4.7 2.1-7.3 1.8-5.1-.5-9.1-4.6-9.7-9.7-.4-3.1.6-6.2 2.7-8.5 2.3-2.5 5.6-3.9 9-3.6 3.2.2 6 1.9 7.8 4.6 1.9 2.9 2.4 6.3 1.3 9.6v.1c-.3 1-1.3 1.7-2.4 1.7-1.4 0-2.5-1.1-2.5-2.5V11c0-.6-.4-1-1-1s-1 .4-1 1c-.8-.6-1.9-1-3-1-2.8 0-5 2.2-5 5v2c0 2.8 2.2 5 5 5 1.4 0 2.6-.6 3.5-1.4.7 1.4 2.2 2.4 4 2.4 1.9 0 3.6-1.2 4.3-3.1v-.1c1.3-3.8.7-7.9-1.6-11.3zM19 17c0 1.7-1.3 3-3 3s-3-1.3-3-3v-2c0-1.7 1.3-3 3-3s3 1.3 3 3v2z"/></svg><svg fill="none" viewBox="0 0 32 32" id="email_1" xmlns="http://www.w3.org/2000/svg"><g clip-path="url(#ea)"><circle cx="16" cy="16" r="16" fill="#0A7F6E"/><path d="M26.18 8.5c-2.2-3.2-5.6-5.2-9.3-5.5h-.9c-3.7 0-7.2 1.6-9.7 4.3-2.5 2.7-3.6 6.4-3.2 10.1.7 6 5.5 10.8 11.5 11.4.4.2.9.2 1.4.2 2.6 0 5-.7 7.2-2.2.5-.3.6-.9.3-1.4-.3-.5-.9-.6-1.4-.3-2.2 1.4-4.7 2.1-7.3 1.8-5.1-.5-9.1-4.6-9.7-9.7-.4-3.1.6-6.2 2.7-8.5 2.3-2.5 5.6-3.9 9-3.6 3.2.2 6 1.9 7.8 4.6 1.9 2.9 2.4 6.3 1.3 9.6v.1c-.3 1-1.3 1.7-2.4 1.7-1.4 0-2.5-1.1-2.5-2.5V11c0-.6-.4-1-1-1s-1 .4-1 1c-.8-.6-1.9-1-3-1-2.8 0-5 2.2-5 5v2c0 2.8 2.2 5 5 5 1.4 0 2.6-.6 3.5-1.4.7 1.4 2.2 2.4 4 2.4 1.9 0 3.6-1.2 4.3-3.1v-.1c1.3-3.8.7-7.9-1.6-11.3Zm-7.2 8.5c0 1.7-1.3 3-3 3s-3-1.3-3-3v-2c0-1.7 1.3-3 3-3s3 1.3 3 3v2Z" fill="#fff"/></g><defs><clipPath id="ea"><path fill="#fff" d="M0 0h32v32H0z"/></clipPath></defs></svg><svg fill="none" viewBox="0 0 32 32" id="login" xmlns="http://www.w3.org/2000/svg"><path fill-rule="evenodd" clip-rule="evenodd" d="M25 25.5c0 2.485-2.198 4.5-4.909 4.5h-8.182C9.198 30 7 27.985 7 25.5v-3c0-2.126 1.613-3.896 3.775-4.367C12.25 19.304 14.05 20 16 20c1.95 0 3.75-.696 5.225-1.867C23.387 18.604 25 20.374 25 22.5v3ZM9 10c0-4.418 3.134-8 7-8s7 3.582 7 8-3.134 8-7 8-7-3.582-7-8Zm13.951 6.353C24.23 14.625 25 12.412 25 10c0-5.522-4.029-10-9-10S7 4.478 7 10c0 2.412.77 4.625 2.049 6.353C6.699 17.165 5 19.373 5 22v4a6 6 0 0 0 6 6h10a6 6 0 0 0 6-6v-4c0-2.627-1.699-4.835-4.049-5.647Z" fill="#fff"/></svg><svg viewBox="0 0 32 32" id="phone" xmlns="http://www.w3.org/2000/svg"><path d="m18.037 6.635-.035-.001a.75.75 0 0 0-.044 1.499h.002c3.533.231 6.311 3.153 6.311 6.723 0 .186-.008.37-.022.552l.002-.024a.75.75 0 0 0 1.5 0 8.29 8.29 0 0 0-7.686-8.748l-.026-.001zm-.074-3.886c.449.022 10.998.688 10.998 12.635a.75.75 0 0 0 1.5 0c.015-.238.024-.515.024-.795 0-7.059-5.471-12.841-12.405-13.335l-.043-.002-.029-.001a.759.759 0 0 0-.757.71v.002L17.25 2a.75.75 0 0 0 .711.749h.002zM30.637 23.15a5.178 5.178 0 0 0-.654-1.823l.013.024a.753.753 0 0 0-.521-.353l-.004-.001-8.969-1.424a.752.752 0 0 0-.648.209 6.164 6.164 0 0 0-1.496 2.451l-.012.044c-4.016-1.64-7.141-4.765-8.742-8.675l-.038-.105a6.18 6.18 0 0 0 2.493-1.509.749.749 0 0 0 .21-.651l.001.004-1.425-8.969a.752.752 0 0 0-.35-.524l-.003-.002a4.962 4.962 0 0 0-1.724-.626l-.029-.004a4.911 4.911 0 0 0-1.048-.111l-.075.001h.004-.006a6.391 6.391 0 0 0-6.347 6.351v.002c.015 12.761 10.355 23.102 23.115 23.117h.002a6.395 6.395 0 0 0 6.354-6.351v-.07a5.07 5.07 0 0 0-.106-1.038l.006.033zm-6.254 5.926C12.45 29.062 2.781 19.392 2.767 7.46v-.001a4.888 4.888 0 0 1 4.854-4.853h.057c.272 0 .537.03.793.086l-.024-.005c.366.06.695.161 1.003.3l-.025-.01 1.302 8.202a4.791 4.791 0 0 1-2.257 1.05l-.029.004a.75.75 0 0 0-.577.989l-.002-.005c1.772 5.072 5.695 8.994 10.646 10.729l.121.037a.749.749 0 0 0 .982-.574l.001-.005a4.823 4.823 0 0 1 1.061-2.295l-.006.007 8.201 1.303c.133.294.237.636.296.994l.003.024c.046.219.073.471.073.729v.053-.003a4.888 4.888 0 0 1-4.852 4.859h-.002z"/></svg><svg fill="none" viewBox="0 0 32 32" id="phone_1" xmlns="http://www.w3.org/2000/svg"><circle cx="16" cy="16" r="15" fill="#0A7F6E"/><path d="M16.95 9.94h-.025a.535.535 0 0 0-.032 1.068h.002a4.804 4.804 0 0 1 4.481 5.184l.002-.017a.535.535 0 0 0 1.068 0A5.907 5.907 0 0 0 16.97 9.94h-.019Zm-.053-2.769c.32.016 7.837.49 7.837 9.004a.535.535 0 0 0 1.069 0c.01-.17.017-.367.017-.567 0-5.03-3.899-9.15-8.84-9.502l-.03-.001-.021-.001a.54.54 0 0 0-.54.506v.028c0 .285.224.52.507.533h.001Zm9.031 14.538a3.688 3.688 0 0 0-.466-1.3l.01.018a.537.537 0 0 0-.372-.252h-.003l-6.39-1.015a.536.536 0 0 0-.462.149 4.392 4.392 0 0 0-1.067 1.746l-.008.031c-2.862-1.168-5.089-3.395-6.23-6.181l-.026-.075a4.402 4.402 0 0 0 1.776-1.075.534.534 0 0 0 .15-.464v.003l-1.015-6.391a.536.536 0 0 0-.25-.374l-.002-.001a3.535 3.535 0 0 0-1.228-.446l-.02-.003A3.5 3.5 0 0 0 9.577 6h-.054.003-.004A4.554 4.554 0 0 0 5 10.527v.002C5.01 19.62 12.379 26.989 21.47 27h.002A4.557 4.557 0 0 0 26 22.474v-.05c0-.253-.026-.5-.076-.739l.005.024h-.001Zm-4.456 4.222c-8.503-.01-15.393-6.9-15.403-15.403A3.484 3.484 0 0 1 9.528 7.07h.041c.193 0 .382.02.564.06l-.017-.003c.261.043.495.115.715.214l-.018-.007.928 5.844c-.448.377-1 .642-1.608.749l-.021.002a.535.535 0 0 0-.411.705l-.002-.003c1.263 3.614 4.058 6.408 7.586 7.645l.087.026a.534.534 0 0 0 .7-.41v-.002a3.437 3.437 0 0 1 .756-1.636l-.004.005 5.843.929c.095.21.17.453.211.708l.003.017c.032.156.052.336.052.52v.037-.002a3.483 3.483 0 0 1-3.458 3.462h-.001l-.002.001Z" fill="#fff"/></svg><svg fill="none" viewBox="0 0 32 32" id="search" xmlns="http://www.w3.org/2000/svg"><path d="M12.503 4.725A7.967 7.967 0 0 0 5.684 8.61a.444.444 0 1 0 .764.454 7.075 7.075 0 0 1 6.055-3.449.444.444 0 1 0 0-.889ZM5.318 10.51a.445.445 0 0 0-.533.33c-.133.568-.208.92-.208 1.55a.444.444 0 1 0 .889 0c0-.535.06-.815.184-1.347a.444.444 0 0 0-.332-.534Z" fill="#fff"/><path d="m29.606 25.686-7.175-7.174a2.205 2.205 0 0 0-.52-.39 10.82 10.82 0 0 0 1.48-5.471c0-6.005-4.884-10.89-10.888-10.89s-10.89 4.885-10.89 10.89c0 6.004 4.886 10.888 10.89 10.888a10.82 10.82 0 0 0 5.815-1.69c.09.151.205.297.342.434l7.174 7.174c.505.504 1.174.78 1.886.78a2.65 2.65 0 0 0 1.886-.78 2.65 2.65 0 0 0 .78-1.885c0-.712-.277-1.382-.78-1.886ZM3.392 12.65c0-5.024 4.087-9.111 9.11-9.111 5.025 0 9.112 4.087 9.112 9.111 0 5.024-4.088 9.11-9.111 9.11-5.024 0-9.111-4.085-9.111-9.11Zm24.956 15.55a.912.912 0 0 1-1.257 0l-7.174-7.175c-.062-.062-.086-.103-.089-.103.002-.02.026-.202.534-.71.507-.507.69-.53.696-.534a.402.402 0 0 1 .117.09l7.173 7.174a.887.887 0 0 1 0 1.257Z" fill="#fff"/></svg></svg>