<?xml version="1.0" encoding="iso-8859-1"?><!DOCTYPE svg PUBLIC "-//W3C//DTD SVG 1.1//EN" "http://www.w3.org/Graphics/SVG/1.1/DTD/svg11.dtd"><svg viewBox="0 0 800 800" xmlns="http://www.w3.org/2000/svg" xmlns:xlink="http://www.w3.org/1999/xlink"><style>:root>svg{display:none}:root>svg:target{display:block}</style><svg viewBox="0 0 902.86 902.86" xml:space="preserve" id="cart_1" xmlns="http://www.w3.org/2000/svg"><path d="M671.504 577.829 781.989 145.22H902.86v-68H729.174L703.128 179.2 0 178.697l74.753 399.129h596.751v.003zm14.262-330.641-67.077 262.64h-487.49L81.928 246.756l603.838.432zM578.418 825.641c59.961 0 108.743-48.783 108.743-108.744s-48.782-108.742-108.743-108.742H168.717c-59.961 0-108.744 48.781-108.744 108.742s48.782 108.744 108.744 108.744S277.46 776.858 277.46 716.897c0-14.4-2.821-28.152-7.927-40.742h208.069c-5.107 12.59-7.928 26.342-7.928 40.742.001 59.961 48.783 108.744 108.744 108.744zM209.46 716.897c0 22.467-18.277 40.744-40.743 40.744s-40.744-18.277-40.744-40.744c0-22.465 18.277-40.742 40.744-40.742 22.466 0 40.743 18.277 40.743 40.742zm409.702 0c0 22.467-18.277 40.744-40.743 40.744s-40.743-18.277-40.743-40.744c0-22.465 18.277-40.742 40.743-40.742s40.743 18.277 40.743 40.742z"/></svg><svg viewBox="0 0 512 512" xml:space="preserve" id="cart_2" xmlns="http://www.w3.org/2000/svg"><path d="M201.824 394.823c-16.104 0-29.207 13.102-29.207 29.207 0 16.104 13.103 29.207 29.207 29.207s29.207-13.103 29.207-29.207c0-16.105-13.101-29.207-29.207-29.207zm0 41.872c-6.985 0-12.666-5.682-12.666-12.666s5.681-12.666 12.666-12.666 12.666 5.682 12.666 12.666-5.681 12.666-12.666 12.666zM393.131 394.823c-16.104 0-29.206 13.102-29.206 29.207 0 16.104 13.101 29.207 29.206 29.207s29.207-13.103 29.207-29.207c0-16.105-13.103-29.207-29.207-29.207zm0 41.872c-6.984 0-12.665-5.682-12.665-12.666s5.681-12.666 12.665-12.666c6.985 0 12.666 5.682 12.666 12.666s-5.681 12.666-12.666 12.666zM496.017 89.801c-6.887-9.72-17.669-15.297-29.583-15.297H245.748a8.27 8.27 0 0 0 0 16.54h220.685c6.477 0 12.341 3.031 16.085 8.318 3.745 5.285 4.661 11.822 2.512 17.934l-27.845 79.202a8.27 8.27 0 1 0 15.603 5.485l27.846-79.201c3.952-11.238 2.27-23.26-4.617-32.981z"/><path d="M481.675 325.095c16.722 0 30.325-13.603 30.325-30.325s-13.603-30.325-30.325-30.325h-30.843l10.329-29.38a8.27 8.27 0 1 0-15.604-5.486l-12.258 34.866H200.053l-52.114-173.4h64.728a8.27 8.27 0 0 0 8.27-8.27 8.27 8.27 0 0 0-8.27-8.27h-69.7l-7.011-23.328c-3.883-12.917-15.553-21.597-29.042-21.597H30.325C13.604 29.578 0 43.183 0 59.903c0 16.721 13.604 30.325 30.325 30.325h54.038l18.245 60.706a8.269 8.269 0 0 0 10.302 5.54 8.27 8.27 0 0 0 5.539-10.301L98.433 79.578a8.27 8.27 0 0 0-7.921-5.89H30.325c-7.601 0-13.784-6.183-13.784-13.784 0-7.601 6.183-13.784 13.784-13.784h76.588c6.132 0 11.436 3.946 13.202 9.816l65.868 219.16a8.271 8.271 0 0 0 7.921 5.89h287.772c7.601 0 13.784 6.183 13.784 13.784s-6.183 13.784-13.784 13.784H177.503c-6.054 0-11.461-4.025-13.202-9.816l-.948-3.156-34.961-116.327c-1.313-4.375-5.924-6.853-10.301-5.54a8.268 8.268 0 0 0-5.54 10.301l31.798 105.803-23.543 73.483c-2.943 9.19-1.306 19.332 4.382 27.127 5.248 7.191 13.449 11.7 22.264 12.357a58.053 58.053 0 0 0-4.018 21.244c0 32.197 26.194 58.391 58.391 58.391s58.391-26.194 58.391-58.391a58.051 58.051 0 0 0-3.982-21.151h82.488a58.055 58.055 0 0 0-3.982 21.151c0 32.197 26.194 58.391 58.39 58.391 32.197 0 58.391-26.194 58.391-58.391a58.051 58.051 0 0 0-3.982-21.151h17.49c16.721 0 30.325-13.603 30.325-30.325s-13.604-30.325-30.325-30.325H191.245l5.489-17.133h284.941zM201.824 465.88c-23.077 0-41.85-18.774-41.85-41.85a41.617 41.617 0 0 1 8.229-24.887c7.811-10.524 20.502-16.962 33.622-16.962 13.063 0 25.848 6.476 33.627 16.969a41.622 41.622 0 0 1 8.224 24.881c0 23.075-18.775 41.849-41.852 41.849zm191.307 0c-23.077 0-41.849-18.774-41.849-41.85 0-16.534 10.466-32.036 25.623-38.525a41.392 41.392 0 0 1 16.228-3.326c18.22 0 34.891 12.444 40.106 29.887a41.814 41.814 0 0 1 1.743 11.963c0 23.077-18.774 41.851-41.851 41.851zm71.9-107.112v.001c7.601 0 13.784 6.183 13.784 13.784s-6.183 13.784-13.784 13.784h-27.319c-.766 0-3.669-3.952-4.288-4.542-10.767-10.25-25.42-16.157-40.292-16.157-12.67 0-25.173 4.221-35.257 11.886a58.437 58.437 0 0 0-9.322 8.813H246.405c-10.308-12.166-25.577-19.744-41.499-20.614a56.578 56.578 0 0 0-3.081-.085c-15.082 0-29.817 6.023-40.638 16.515a59.293 59.293 0 0 0-2.917 3.038c-.342.382-.694.753-1.026 1.145h-7.56a13.829 13.829 0 0 1-11.135-5.658 13.834 13.834 0 0 1-1.992-12.332l17.423-54.381c-.353 1.119 2.158 2.695 2.848 3.218 3.116 2.36 6.442 4.5 10.089 5.944 4.017 1.59 8.157 1.967 12.445 1.967l-7.33 22.88a8.269 8.269 0 0 0 7.876 10.793h285.123z"/></svg><svg fill="none" viewBox="0 0 32 32" id="cart_2_1" xmlns="http://www.w3.org/2000/svg"><path d="M12.614 24.676a1.828 1.828 0 0 0-1.825 1.826c0 1.006.819 1.825 1.825 1.825a1.828 1.828 0 0 0 1.825-1.825 1.827 1.827 0 0 0-1.825-1.826Zm0 2.617a.792.792 0 1 1 .002-1.584.792.792 0 0 1-.002 1.584ZM24.57 24.676a1.828 1.828 0 0 0-1.825 1.826c0 1.006.819 1.825 1.825 1.825a1.828 1.828 0 0 0 1.826-1.825 1.828 1.828 0 0 0-1.826-1.826Zm0 2.617a.792.792 0 1 1 .002-1.585.792.792 0 0 1-.002 1.585ZM31.001 5.613a2.24 2.24 0 0 0-1.849-.957H15.359a.517.517 0 1 0 0 1.034h13.793c.405 0 .771.19 1.005.52.234.33.292.739.157 1.121l-1.74 4.95a.517.517 0 1 0 .975.343l1.74-4.95a2.24 2.24 0 0 0-.288-2.061Z" fill="#fff"/><path d="M30.105 20.318c1.045 0 1.895-.85 1.895-1.895s-.85-1.895-1.895-1.895h-1.928l.646-1.836a.517.517 0 0 0-.976-.343l-.766 2.179H12.503L9.246 5.69h4.046a.517.517 0 1 0 0-1.033H8.935l-.438-1.458a1.884 1.884 0 0 0-1.815-1.35H1.895C.85 1.849 0 2.699 0 3.744s.85 1.895 1.895 1.895h3.378l1.14 3.794a.517.517 0 1 0 .99-.297l-1.25-4.162a.517.517 0 0 0-.496-.368H1.895a.862.862 0 0 1 0-1.724h4.787c.383 0 .715.247.825.614l4.117 13.697a.517.517 0 0 0 .495.369h17.986a.862.862 0 0 1 0 1.723H11.094a.865.865 0 0 1-.825-.614l-.06-.197-2.184-7.27a.517.517 0 1 0-.99.297l1.987 6.613-1.472 4.592a1.902 1.902 0 0 0 .274 1.696c.328.45.84.731 1.392.772-.162.412-.251.86-.251 1.328a3.654 3.654 0 0 0 3.65 3.65 3.654 3.654 0 0 0 3.649-3.65c0-.466-.09-.912-.25-1.322h5.156a3.63 3.63 0 0 0-.249 1.322 3.654 3.654 0 0 0 3.65 3.65 3.654 3.654 0 0 0 3.65-3.65c0-.466-.09-.912-.25-1.322h1.093c1.045 0 1.896-.85 1.896-1.895 0-1.046-.85-1.896-1.896-1.896H11.953l.343-1.07h17.809Zm-17.491 8.8a2.619 2.619 0 0 1-2.616-2.616c0-.582.192-1.12.515-1.556a2.645 2.645 0 0 1 2.101-1.06c.816 0 1.616.405 2.102 1.06a2.6 2.6 0 0 1 .514 1.556 2.619 2.619 0 0 1-2.616 2.616Zm11.957 0a2.619 2.619 0 0 1-2.616-2.616c0-1.034.654-2.002 1.602-2.408.319-.137.667-.208 1.014-.208a2.65 2.65 0 0 1 2.506 1.868 2.619 2.619 0 0 1-2.507 3.363Zm4.493-6.695a.862.862 0 0 1 0 1.723h-1.707c-.048 0-.23-.247-.268-.284a3.685 3.685 0 0 0-2.518-1.01 3.66 3.66 0 0 0-2.786 1.294H15.4a3.694 3.694 0 0 0-2.786-1.294 3.672 3.672 0 0 0-2.722 1.222l-.064.072h-.473a.864.864 0 0 1-.82-1.124l1.089-3.4c-.022.07.135.17.178.202.194.147.402.281.63.371.251.1.51.123.778.123l-.458 1.43a.517.517 0 0 0 .492.675h17.82Z" fill="#fff"/></svg><svg viewBox="0 0 60 60" xml:space="preserve" id="cart_3" xmlns="http://www.w3.org/2000/svg"><path d="m11.68 13-.833-5h-2.99C7.411 6.28 5.859 5 4 5 1.794 5 0 6.794 0 9s1.794 4 4 4c1.859 0 3.411-1.28 3.858-3h1.294l.5 3h-.038l5.171 26.016c-2.465.188-4.518 2.086-4.76 4.474A5.013 5.013 0 0 0 15 49h2c0 3.309 2.691 6 6 6s6-2.691 6-6h11c0 3.309 2.691 6 6 6s6-2.691 6-6h4a1 1 0 1 0 0-2h-4.35c-.826-2.327-3.043-4-5.65-4s-4.824 1.673-5.65 4h-11.7c-.826-2.327-3.043-4-5.65-4s-4.824 1.673-5.65 4H15a3.01 3.01 0 0 1-2.224-.993 2.968 2.968 0 0 1-.761-2.316c.152-1.509 1.546-2.69 3.173-2.69h39.824A4.994 4.994 0 0 0 60 36.013V13H11.68zM4 11c-1.103 0-2-.897-2-2s.897-2 2-2 2 .897 2 2-.897 2-2 2zm42 34c2.206 0 4 1.794 4 4s-1.794 4-4 4-4-1.794-4-4 1.794-4 4-4zm-23 0c2.206 0 4 1.794 4 4s-1.794 4-4 4-4-1.794-4-4 1.794-4 4-4zm35-8.987A2.99 2.99 0 0 1 55.013 39H16.821l-4.77-24H58v21.013z"/></svg><svg fill="none" viewBox="0 0 32 32" id="cart_3_1" xmlns="http://www.w3.org/2000/svg"><g clip-path="url(#ea)"><path d="m6.23 6.933-.445-2.666H4.19a2.13 2.13 0 0 0-2.057-1.6A2.135 2.135 0 0 0 0 4.8c0 1.176.957 2.133 2.133 2.133.992 0 1.82-.682 2.058-1.6h.69l.267 1.6h-.02l2.757 13.875c-1.314.1-2.41 1.113-2.538 2.387A2.67 2.67 0 0 0 8 26.133h1.067c0 1.765 1.435 3.2 3.2 3.2 1.764 0 3.2-1.435 3.2-3.2h5.866c0 1.765 1.436 3.2 3.2 3.2 1.765 0 3.2-1.435 3.2-3.2h2.134a.533.533 0 1 0 0-1.066h-2.32a3.202 3.202 0 0 0-3.014-2.134c-1.39 0-2.573.893-3.013 2.134h-6.24a3.202 3.202 0 0 0-3.013-2.134c-1.39 0-2.573.893-3.014 2.134H8a1.605 1.605 0 0 1-1.592-1.765c.081-.805.825-1.435 1.692-1.435h21.24a2.664 2.664 0 0 0 2.66-2.66V6.933H6.23ZM2.132 5.867a1.068 1.068 0 0 1 0-2.134 1.068 1.068 0 0 1 0 2.134ZM24.533 24c1.177 0 2.134.957 2.134 2.133a2.135 2.135 0 0 1-2.134 2.134 2.135 2.135 0 0 1-2.133-2.134c0-1.176.957-2.133 2.133-2.133Zm-12.266 0c1.176 0 2.133.957 2.133 2.133a2.135 2.135 0 0 1-2.133 2.134 2.135 2.135 0 0 1-2.134-2.134c0-1.176.957-2.133 2.134-2.133Zm18.666-4.793c0 .878-.714 1.593-1.593 1.593H8.971L6.427 8h24.506v11.207Z" fill="#fff"/></g><defs><clipPath id="ea"><path fill="#fff" d="M0 0h32v32H0z"/></clipPath></defs></svg><svg viewBox="-0.5 0 25 25" fill="none" id="cart_4" xmlns="http://www.w3.org/2000/svg"><path d="M9.181 5.988H21.01c.325 0 .56.305.472.62l-1.368 5.234a.493.493 0 0 1-.472.365H9.053a1.044 1.044 0 0 0 0 2.086h11.1M8.02 10.2 6.987 6.351a.493.493 0 0 0-.472-.364H3.523a1.023 1.023 0 1 0 0 2.046h2.43" stroke="#0F0F0F" stroke-miterlimit="10" stroke-linecap="round" stroke-linejoin="round"/><path d="M10.248 19.012a1.092 1.092 0 1 0 0-2.184 1.092 1.092 0 0 0 0 2.184ZM17.352 19.012a1.092 1.092 0 1 0 0-2.184 1.092 1.092 0 0 0 0 2.184Z" fill="#0F0F0F"/></svg><svg fill="none" viewBox="0 0 32 32" id="cart_4_2" xmlns="http://www.w3.org/2000/svg"><g clip-path="url(#fa)" stroke="#fff" stroke-width="2"><path d="M10.083 0h21.043c.578 0 .998.771.84 1.568l-2.433 13.236c-.105.548-.455.921-.84.921H9.856C8.84 15.725 8 16.895 8 18.363 8 19.806 8.823 21 9.856 21h19.747M8 12 6.503 1.037C6.417.421 6.132 0 5.818 0H1.483C.67 0 0 1.29 0 2.916c0 1.598.656 2.916 1.483 2.916h3.522" stroke-miterlimit="10" stroke-linecap="round" stroke-linejoin="round"/><path d="M29 28a3 3 0 1 1-6 0 3 3 0 0 1 6 0ZM16 28a3 3 0 1 1-6 0 3 3 0 0 1 6 0Z"/></g><defs><clipPath id="fa"><path fill="#fff" d="M0 0h32v32H0z"/></clipPath></defs></svg><svg viewBox="0 0 367.467 367.467" xml:space="preserve" id="copyright_0" xmlns="http://www.w3.org/2000/svg"><path d="M183.73.018C82.427.018 0 82.404 0 183.733c0 101.289 82.427 183.716 183.73 183.716 101.315 0 183.737-82.427 183.737-183.716C367.467 82.404 285.045.018 183.73.018zm0 326.5c-78.743 0-142.798-64.052-142.798-142.784 0-78.766 64.055-142.817 142.798-142.817 78.752 0 142.807 64.052 142.807 142.817-.001 78.732-64.056 142.784-142.807 142.784z"/><path d="M244.036 217.014c-11.737 20.141-33.562 32.635-56.956 32.635-36.329 0-65.921-29.585-65.921-65.915 0-36.36 29.592-65.955 65.921-65.955 23.395 0 45.219 12.54 56.956 32.641l1.517 2.627h44.28l-2.658-7.129c-7.705-20.413-21.225-37.769-39.122-50.157-17.942-12.42-39.017-19.009-60.973-19.009-58.981 0-106.946 48.006-106.946 106.982 0 58.98 47.965 106.941 106.946 106.941 21.956 0 43.03-6.567 60.973-19.006 17.897-12.391 31.417-29.741 39.122-50.154l2.658-7.133h-44.28l-1.517 2.632z"/></svg><svg viewBox="0 0 276.715 276.715" xml:space="preserve" id="copyright_1" xmlns="http://www.w3.org/2000/svg"><path d="M138.357 0C62.066 0 0 62.066 0 138.357s62.066 138.357 138.357 138.357 138.357-62.066 138.357-138.357S214.648 0 138.357 0zm0 258.715C71.992 258.715 18 204.723 18 138.357S71.992 18 138.357 18s120.357 53.992 120.357 120.357-53.991 120.358-120.357 120.358z"/><path d="M194.798 160.903a9.003 9.003 0 0 0-12.432 2.732c-8.694 13.593-23.503 21.708-39.614 21.708-25.908 0-46.985-21.078-46.985-46.986s21.077-46.986 46.985-46.986c15.633 0 30.2 7.747 38.968 20.723a9 9 0 0 0 14.914-10.078c-12.118-17.937-32.262-28.645-53.882-28.645-35.833 0-64.985 29.152-64.985 64.986s29.152 64.986 64.985 64.986c22.281 0 42.759-11.218 54.778-30.009a9 9 0 0 0-2.732-12.431z"/></svg><svg viewBox="0 0 31 32" xml:space="preserve" id="search_1" xmlns="http://www.w3.org/2000/svg"><path d="M13.025 26.614c2.117 0 4.208-.524 6.07-1.519l5.606 5.766a3.597 3.597 0 0 0 2.59 1.09 3.6 3.6 0 0 0 2.59-1.09 3.772 3.772 0 0 0 0-5.254l-5.542-5.652a13.487 13.487 0 0 0 1.767-6.672c0-7.352-5.868-13.332-13.081-13.332-7.212 0-13.081 5.98-13.081 13.332 0 7.351 5.868 13.331 13.081 13.331zm0-25.663c6.661 0 12.081 5.532 12.081 12.332 0 2.293-.632 4.541-1.828 6.502a.496.496 0 0 0 .145.664l5.744 5.857a2.768 2.768 0 0 1 0 3.855c-.999 1.018-2.755 1.017-3.75.001l-5.875-6.043a.506.506 0 0 0-.358-.163.439.439 0 0 0-.276.1 11.884 11.884 0 0 1-5.882 1.558C6.365 25.614.945 20.083.945 13.283S6.364.951 13.025.951z"/><path d="M13.025 21.532c4.465 0 8.098-3.7 8.098-8.249s-3.633-8.25-8.098-8.25c-4.465 0-8.098 3.701-8.098 8.25s3.633 8.249 8.098 8.249zm0-15.499c3.914 0 7.098 3.252 7.098 7.25 0 3.997-3.184 7.249-7.098 7.249-3.914 0-7.098-3.252-7.098-7.249 0-3.998 3.184-7.25 7.098-7.25z"/></svg><svg viewBox="0 0 72 72" xml:space="preserve" id="search_5" xmlns="http://www.w3.org/2000/svg"><path d="M28.131 10.632c-6.262 0-12.141 3.348-15.342 8.738a1 1 0 1 0 1.72 1.022c2.843-4.786 8.062-7.76 13.622-7.76a1 1 0 1 0 0-2zM11.967 23.646a1.001 1.001 0 0 0-1.201.746c-.299 1.276-.468 2.067-.468 3.487a1 1 0 1 0 2 0c0-1.205.135-1.834.415-3.032a1 1 0 0 0-.746-1.201z"/><path d="M66.613 57.793 50.471 41.652a4.963 4.963 0 0 0-1.17-.877 24.346 24.346 0 0 0 3.33-12.311c0-13.51-10.99-24.5-24.5-24.5-13.509 0-24.5 10.99-24.5 24.5s10.991 24.499 24.5 24.499c4.81 0 9.296-1.398 13.084-3.801.205.339.462.666.77.974l16.142 16.143a5.966 5.966 0 0 0 4.244 1.756 5.964 5.964 0 0 0 4.243-1.756 5.961 5.961 0 0 0 1.756-4.242 5.971 5.971 0 0 0-1.757-4.244zM7.631 28.465c0-11.304 9.196-20.5 20.5-20.5 11.305 0 20.5 9.196 20.5 20.5 0 11.305-9.197 20.499-20.5 20.499-11.304 0-20.5-9.194-20.5-20.499zm56.153 34.986c-.757.754-2.074.754-2.83 0L44.813 47.309c-.14-.139-.192-.232-.199-.232.003-.043.058-.455 1.201-1.596 1.14-1.143 1.552-1.195 1.565-1.203.026.008.119.06.263.203l16.14 16.141c.379.379.586.881.586 1.416a1.997 1.997 0 0 1-.585 1.413z"/></svg><svg fill="none" viewBox="0 0 32 32" id="search_5_2" xmlns="http://www.w3.org/2000/svg"><path d="M12.503 4.725A7.967 7.967 0 0 0 5.684 8.61a.444.444 0 1 0 .764.454 7.075 7.075 0 0 1 6.055-3.449.444.444 0 1 0 0-.889ZM5.318 10.51a.445.445 0 0 0-.533.33c-.133.568-.208.92-.208 1.55a.444.444 0 1 0 .889 0c0-.535.06-.815.184-1.347a.444.444 0 0 0-.332-.534Z" fill="#fff"/><path d="m29.606 25.686-7.175-7.174a2.205 2.205 0 0 0-.52-.39 10.82 10.82 0 0 0 1.48-5.471c0-6.005-4.884-10.89-10.888-10.89s-10.89 4.885-10.89 10.89c0 6.004 4.886 10.888 10.89 10.888a10.82 10.82 0 0 0 5.815-1.69c.09.151.205.297.342.434l7.174 7.174c.505.504 1.174.78 1.886.78a2.65 2.65 0 0 0 1.886-.78 2.65 2.65 0 0 0 .78-1.885c0-.712-.277-1.382-.78-1.886ZM3.392 12.65c0-5.024 4.087-9.111 9.11-9.111 5.025 0 9.112 4.087 9.112 9.111 0 5.024-4.088 9.11-9.111 9.11-5.024 0-9.111-4.085-9.111-9.11Zm24.956 15.55a.912.912 0 0 1-1.257 0l-7.174-7.175c-.062-.062-.086-.103-.089-.103.002-.02.026-.202.534-.71.507-.507.69-.53.696-.534a.402.402 0 0 1 .117.09l7.173 7.174a.887.887 0 0 1 0 1.257Z" fill="#fff"/></svg></svg>