<svg width="100" height="100" viewBox="0 0 100 100" fill="none" xmlns="http://www.w3.org/2000/svg">
<path fill-rule="evenodd" clip-rule="evenodd" d="M30.3874 13.7208C31.1688 12.9397 32.2284 12.5009 33.3333 12.5009C34.4381 12.5009 35.4977 12.9397 36.2791 13.7208L69.6124 47.0541C70.3936 47.8355 70.8324 48.8951 70.8324 50C70.8324 51.1048 70.3936 52.1644 69.6124 52.9458L36.2791 86.2791C35.4932 87.0381 34.4407 87.4581 33.3483 87.4486C32.2558 87.4391 31.2107 87.0009 30.4382 86.2284C29.6656 85.4558 29.2274 84.4108 29.2179 83.3183C29.2085 82.2258 29.6284 81.1733 30.3874 80.3875L60.7749 50L30.3874 19.6125C29.6063 18.8311 29.1675 17.7715 29.1675 16.6666C29.1675 15.5618 29.6063 14.5022 30.3874 13.7208Z" fill="#F35200"/>
</svg>
