<svg width="32" height="32" viewBox="0 0 32 32" fill="none" xmlns="http://www.w3.org/2000/svg">
<g clip-path="url(#clip0_71_6)">
<circle cx="16" cy="16" r="16" fill="#0A7F6E"/>
<path d="M26.1802 8.5C23.9802 5.3 20.5802 3.3 16.8802 3C16.5802 3 16.2802 3 15.9802 3C12.2802 3 8.78024 4.6 6.28024 7.3C3.78024 10 2.68024 13.7 3.08024 17.4C3.78024 23.4 8.58024 28.2 14.5802 28.8C14.9802 29 15.4802 29 15.9802 29C18.5802 29 20.9802 28.3 23.1802 26.8C23.6802 26.5 23.7802 25.9 23.4802 25.4C23.1802 24.9 22.5802 24.8 22.0802 25.1C19.8802 26.5 17.3802 27.2 14.7802 26.9C9.68024 26.4 5.68024 22.3 5.08024 17.2C4.68024 14.1 5.68024 11 7.78024 8.7C10.0802 6.2 13.3802 4.8 16.7802 5.1C19.9802 5.3 22.7802 7 24.5802 9.7C26.4802 12.6 26.9802 16 25.8802 19.3V19.4C25.5802 20.4 24.5802 21.1 23.4802 21.1C22.0802 21.1 20.9802 20 20.9802 18.6V17V15V11C20.9802 10.4 20.5802 10 19.9802 10C19.3802 10 18.9802 10.4 18.9802 11C18.1802 10.4 17.0802 10 15.9802 10C13.1802 10 10.9802 12.2 10.9802 15V17C10.9802 19.8 13.1802 22 15.9802 22C17.3802 22 18.5802 21.4 19.4802 20.6C20.1802 22 21.6802 23 23.4802 23C25.3802 23 27.0802 21.8 27.7802 19.9V19.8C29.0802 16 28.4802 11.9 26.1802 8.5ZM18.9802 17C18.9802 18.7 17.6802 20 15.9802 20C14.2802 20 12.9802 18.7 12.9802 17V15C12.9802 13.3 14.2802 12 15.9802 12C17.6802 12 18.9802 13.3 18.9802 15V17Z" fill="white"/>
</g>
<defs>
<clipPath id="clip0_71_6">
<rect width="32" height="32" fill="white"/>
</clipPath>
</defs>
</svg>
