<svg width="132" height="132" viewBox="0 0 132 132" fill="none" xmlns="http://www.w3.org/2000/svg">
<path d="M66 2C31.7547 2 4 30.65 4 66C4 101.35 31.7547 130 66 130C100.245 130 128 101.35 128 66C128 30.65 100.245 2 66 2ZM104.702 105.925C99.6641 111.125 93.8273 115.2 87.3125 118.025C80.5797 120.975 73.4109 122.45 66 122.45C58.6133 122.45 51.4445 120.95 44.6875 118.025C38.1727 115.175 32.3117 111.1 27.2984 105.925C22.2609 100.725 18.3133 94.7 15.5766 87.975C12.7188 81.025 11.2656 73.625 11.2656 66C11.2656 58.375 12.7187 50.975 15.5523 44C18.3133 37.275 22.2609 31.225 27.2742 26.05C32.3359 20.85 38.1727 16.775 44.6875 13.925C51.4445 11 58.6133 9.5 66 9.5C73.3867 9.5 80.5555 11 87.3125 13.925C93.8273 16.775 99.6883 20.85 104.702 26.025C109.739 31.225 113.687 37.25 116.423 43.975C119.281 50.925 120.71 58.325 120.71 65.975C120.71 73.6 119.257 81 116.423 87.975C113.663 94.7 109.715 100.75 104.702 105.925Z" fill="#0A7F6E"/>
<path d="M78.5961 46.4047C81.2516 46.4047 84.0875 47.2297 84.0875 47.2297L85.7891 37.1235C85.7891 37.1235 82.1797 35.886 73.5688 35.886C68.2836 35.886 65.2156 37.8969 62.9727 40.8618C60.8586 43.6719 60.7812 48.1836 60.7812 51.0969V57.7227H53.9492V67.5969H60.7812V101.886H73.5688V67.5969H83.7008L84.4484 57.7227H73.5688V50.0141C73.5688 47.3586 75.9406 46.4047 78.5961 46.4047Z" fill="white"/>
</svg>
