<svg width="800" height="800" viewBox="0 0 800 800" fill="none" xmlns="http://www.w3.org/2000/svg">
<path d="M113.828 575H686.172C699.062 575 709.609 564.453 709.609 551.562V534.297H90.3906V551.562C90.3906 564.531 100.938 575 113.828 575Z" fill="#E6E6E6"/>
<path d="M686.172 119.453H113.828C83.6719 119.453 59.1406 143.984 59.1406 174.141V551.562C59.1406 581.719 83.6719 606.25 113.828 606.25H686.172C716.328 606.25 740.859 581.719 740.859 551.562V174.141C740.859 143.984 716.328 119.453 686.172 119.453ZM709.609 534.297V551.562C709.609 564.453 699.062 575 686.172 575H113.828C100.938 575 90.3906 564.453 90.3906 551.562V174.141C90.3906 161.25 100.938 150.703 113.828 150.703H686.172C699.062 150.703 709.609 161.25 709.609 174.141V534.297ZM529.687 680.547H270.312C261.719 680.547 254.688 673.516 254.688 664.922C254.688 656.328 261.719 649.297 270.312 649.297H529.687C538.281 649.297 545.312 656.328 545.312 664.922C545.312 673.516 538.281 680.547 529.687 680.547Z" fill="#0A7F6E"/>
<path d="M99.2968 517.734C97.1874 517.734 95.078 516.875 93.5937 515.234C90.703 512.031 90.8593 507.109 94.0624 504.219L278.828 332.656L361.719 423.359L563.984 196.25L707.5 349.609C710.469 352.734 710.312 357.734 707.187 360.625C704.062 363.594 699.14 363.438 696.172 360.313L564.297 219.375L361.953 446.641L277.891 354.688L104.609 515.625C103.047 517.031 101.172 517.734 99.2968 517.734Z" fill="#F35200"/>
<path d="M122.188 423.359C122.188 440.516 128.995 456.969 141.111 469.1C153.228 481.232 169.661 488.047 186.797 488.047C203.932 488.047 220.366 481.232 232.483 469.1C244.599 456.969 251.406 440.516 251.406 423.359C251.406 406.203 244.599 389.75 232.483 377.618C220.366 365.487 203.932 358.672 186.797 358.672C169.661 358.672 153.228 365.487 141.111 377.618C128.995 389.75 122.188 406.203 122.188 423.359Z" fill="#0A7F6E"/>
<path d="M140.469 423.359C140.469 429.443 141.667 435.468 143.995 441.088C146.323 446.709 149.736 451.816 154.038 456.118C158.34 460.42 163.447 463.833 169.068 466.161C174.689 468.489 180.713 469.688 186.797 469.688C192.881 469.688 198.905 468.489 204.526 466.161C210.147 463.833 215.254 460.42 219.556 456.118C223.858 451.816 227.27 446.709 229.598 441.088C231.927 435.468 233.125 429.443 233.125 423.359C233.125 411.072 228.244 399.289 219.556 390.6C210.868 381.912 199.084 377.031 186.797 377.031C174.51 377.031 162.726 381.912 154.038 390.6C145.35 399.289 140.469 411.072 140.469 423.359Z" fill="#D5D5D5"/>
<path d="M163.203 423.359C163.203 426.468 163.813 429.546 164.999 432.418C166.185 435.29 167.923 437.9 170.114 440.098C172.304 442.296 174.905 444.04 177.768 445.229C180.63 446.419 183.699 447.031 186.797 447.031C189.895 447.031 192.963 446.419 195.826 445.229C198.688 444.04 201.289 442.296 203.48 440.098C205.671 437.9 207.409 435.29 208.595 432.418C209.78 429.546 210.391 426.468 210.391 423.359C210.391 420.251 209.78 417.173 208.595 414.301C207.409 411.429 205.671 408.819 203.48 406.621C201.289 404.423 198.688 402.679 195.826 401.489C192.963 400.3 189.895 399.688 186.797 399.688C183.699 399.688 180.63 400.3 177.768 401.489C174.905 402.679 172.304 404.423 170.114 406.621C167.923 408.819 166.185 411.429 164.999 414.301C163.813 417.173 163.203 420.251 163.203 423.359Z" fill="#0A7F6E"/>
<path d="M453.828 257.734C453.828 266.229 455.499 274.641 458.746 282.489C461.993 290.337 466.752 297.469 472.752 303.475C478.751 309.482 485.874 314.247 493.713 317.498C501.551 320.749 509.953 322.422 518.437 322.422C526.922 322.422 535.324 320.749 543.162 317.498C551.001 314.247 558.124 309.482 564.123 303.475C570.123 297.469 574.882 290.337 578.129 282.489C581.376 274.641 583.047 266.229 583.047 257.734C583.047 249.239 581.376 240.828 578.129 232.98C574.882 225.131 570.123 218 564.123 211.993C558.124 205.987 551.001 201.222 543.162 197.971C535.324 194.72 526.922 193.047 518.437 193.047C509.953 193.047 501.551 194.72 493.713 197.971C485.874 201.222 478.751 205.987 472.752 211.993C466.752 218 461.993 225.131 458.746 232.98C455.499 240.828 453.828 249.239 453.828 257.734Z" fill="#0A7F6E"/>
<path d="M472.109 257.734C472.109 270.021 476.99 281.805 485.679 290.493C494.367 299.182 506.151 304.063 518.437 304.063C530.724 304.063 542.508 299.182 551.196 290.493C559.885 281.805 564.766 270.021 564.766 257.734C564.766 245.447 559.885 233.664 551.196 224.975C542.508 216.287 530.724 211.406 518.437 211.406C506.151 211.406 494.367 216.287 485.679 224.975C476.99 233.664 472.109 245.447 472.109 257.734Z" fill="#D5D5D5"/>
<path d="M494.844 257.734C494.844 264.013 497.329 270.034 501.754 274.473C506.179 278.912 512.18 281.406 518.437 281.406C524.695 281.406 530.696 278.912 535.121 274.473C539.545 270.034 542.031 264.013 542.031 257.734C542.031 251.456 539.545 245.435 535.121 240.996C530.696 236.556 524.695 234.062 518.437 234.062C512.18 234.062 506.179 236.556 501.754 240.996C497.329 245.435 494.844 251.456 494.844 257.734Z" fill="#0A7F6E"/>
<path d="M561.953 421.562C561.953 431.177 565.764 440.397 572.548 447.195C579.331 453.993 588.532 457.812 598.125 457.812C607.718 457.812 616.919 453.993 623.702 447.195C630.486 440.397 634.297 431.177 634.297 421.562C634.297 411.948 630.486 402.728 623.702 395.93C616.919 389.132 607.718 385.312 598.125 385.312C588.532 385.312 579.331 389.132 572.548 395.93C565.764 402.728 561.953 411.948 561.953 421.562Z" fill="#0A7F6E"/>
<path d="M572.188 421.562C572.188 428.442 574.92 435.039 579.784 439.903C584.649 444.767 591.246 447.5 598.125 447.5C605.004 447.5 611.601 444.767 616.466 439.903C621.33 435.039 624.062 428.442 624.062 421.562C624.062 414.683 621.33 408.086 616.466 403.222C611.601 398.358 605.004 395.625 598.125 395.625C591.246 395.625 584.649 398.358 579.784 403.222C574.92 408.086 572.188 414.683 572.188 421.562Z" fill="#D5D5D5"/>
<path d="M584.922 421.562C584.922 425.085 586.313 428.463 588.789 430.954C591.265 433.444 594.623 434.844 598.125 434.844C601.627 434.844 604.985 433.444 607.461 430.954C609.937 428.463 611.328 425.085 611.328 421.562C611.328 418.04 609.937 414.662 607.461 412.171C604.985 409.681 601.627 408.281 598.125 408.281C594.623 408.281 591.265 409.681 588.789 412.171C586.313 414.662 584.922 418.04 584.922 421.562Z" fill="#0A7F6E"/>
</svg>
