<svg width="800" height="800" viewBox="0 0 800 800" fill="none" xmlns="http://www.w3.org/2000/svg">
<path d="M646.328 550C647.656 554.531 648.75 559.688 649.453 564.453L651.563 580.547L667.578 577.812C669.297 577.5 709.688 570.078 723.203 516.328C734.219 472.656 701.719 439.453 687.422 427.344C686.719 415.469 685.313 404.375 683.359 393.906C688.984 373.984 691.875 353.203 691.875 331.953C691.875 271.25 668.203 214.141 625.313 171.25C582.344 128.281 525.313 104.688 464.609 104.688C371.563 104.688 288.437 161.172 253.906 246.563C246.562 245.547 239.141 245 231.797 245C145.156 245 74.6875 315.469 74.6875 402.109C74.6875 488.75 145.156 559.219 231.797 559.219H452.891C468.203 574.531 484.375 577.578 485.469 577.734L501.406 580.391L503.516 564.375C503.906 561.484 504.453 558.516 505.156 555.625C505.625 553.672 506.094 551.719 506.641 549.922C507.891 551.484 509.219 553.047 510.469 554.609C518.672 564.609 527.188 574.297 532.031 577.891L536.172 580.937H616.875L621.016 577.891C626.484 573.828 637.031 561.406 646.328 550ZM429.687 516.328C430.703 520.469 431.953 524.375 433.281 528.047H231.641C162.187 528.047 105.781 471.562 105.781 402.187C105.781 332.734 162.266 276.328 231.641 276.328C271.562 276.328 309.453 295.547 333.125 327.734C338.203 334.687 348.047 336.172 355 331.094C361.953 326.016 363.438 316.172 358.359 309.219C344.063 289.766 325.234 273.672 303.828 262.578C297.578 259.375 291.172 256.562 284.531 254.219C315.313 182.812 385.781 135.938 464.531 135.938C571.484 135.938 658.75 222.109 660.547 328.672C652.188 313.203 642.891 300.781 634.297 291.25C608.906 262.891 583.672 251.875 582.656 251.406L576.484 248.75L570.313 251.406C569.219 251.875 543.984 262.891 518.672 291.25C496.406 316.094 469.531 359.687 465.547 427.422C451.172 439.453 418.672 472.656 429.687 516.328ZM605.469 549.766H547.344C547.109 549.453 546.797 549.219 546.562 548.906C546.484 548.828 546.406 548.75 546.406 548.672C546.094 548.359 545.859 548.047 545.547 547.734C538.672 540.078 527.188 525.938 517.734 513.594L510.234 503.828L498.984 508.828C498.438 509.062 497.891 509.297 497.422 509.609L496.953 509.844L495.781 510.547C495.625 510.625 495.469 510.703 495.313 510.859L493.906 511.797C493.75 511.953 493.594 512.031 493.438 512.187L492.5 512.891C492.266 513.047 492.109 513.281 491.875 513.438C491.641 513.672 491.406 513.906 491.094 514.141C490.703 514.531 490.313 514.844 490 515.234L489.375 515.859C489.141 516.172 488.828 516.406 488.594 516.719C488.438 516.875 488.281 517.031 488.203 517.188C487.891 517.5 487.656 517.891 487.344 518.203L487.266 518.281L485.391 520.859L485.313 520.937L484.375 522.344L484.297 522.422C483.359 523.906 482.5 525.547 481.719 527.266C481.328 528.125 480.938 528.984 480.469 529.922C480.469 530 480.391 530 480.391 530.078C480.156 530.547 480 531.016 479.766 531.484C479.531 532.031 479.297 532.578 479.141 533.125C478.984 533.438 478.906 533.75 478.75 534.141C478.516 534.844 478.203 535.547 477.969 536.25C477.891 536.406 477.812 536.641 477.812 536.797C477.5 537.656 477.266 538.516 476.953 539.453C476.563 539.141 476.172 538.75 475.781 538.359L474.766 537.344L474.609 537.187C471.484 533.984 468.203 529.687 465.391 524.062C465.078 523.359 464.688 522.656 464.375 521.953C464.375 521.875 464.297 521.875 464.297 521.797L463.359 519.688C463.359 519.609 463.281 519.531 463.281 519.453C462.969 518.75 462.734 518.047 462.5 517.344C462.422 517.188 462.422 517.109 462.344 516.953L461.641 514.844C461.563 514.687 461.484 514.531 461.484 514.297C461.25 513.594 461.016 512.891 460.859 512.187C460.781 511.953 460.703 511.797 460.703 511.562C460.469 510.625 460.156 509.687 459.922 508.672C451.563 475.391 489.297 448.203 489.609 447.969L496.016 443.516L496.25 435.703C497.891 386.094 512.812 344.922 540.703 313.203C554.687 297.344 568.594 287.891 576.328 283.359C584.063 287.891 597.969 297.344 611.953 313.203C613.047 314.453 614.063 315.703 615.078 316.953C615.391 317.344 615.625 317.656 615.938 318.047C616.719 319.063 617.5 320 618.281 321.016L618.984 321.953C620 323.203 620.938 324.531 621.875 325.859C622.031 326.094 622.188 326.328 622.422 326.562C623.203 327.656 623.984 328.75 624.766 329.922C625 330.312 625.234 330.703 625.547 331.016C626.328 332.188 627.109 333.437 627.891 334.687C627.969 334.844 628.125 335 628.203 335.156L630.781 339.375C630.938 339.687 631.172 340 631.328 340.313C632.031 341.484 632.656 342.656 633.281 343.828C633.438 344.141 633.672 344.531 633.828 344.844C634.609 346.328 635.391 347.813 636.172 349.375C636.875 350.859 637.656 352.344 638.281 353.906C638.438 354.219 638.594 354.609 638.75 354.922C639.375 356.25 639.922 357.578 640.547 358.984C640.625 359.219 640.703 359.453 640.859 359.609C641.563 361.172 642.188 362.813 642.813 364.453C642.891 364.688 642.969 364.844 643.047 365.078C643.594 366.484 644.141 367.969 644.609 369.375C644.688 369.687 644.844 370 644.922 370.312C646.094 373.594 647.109 377.031 648.125 380.391C648.203 380.703 648.281 380.937 648.359 381.25C648.75 382.734 649.219 384.297 649.609 385.781C649.688 386.016 649.766 386.328 649.844 386.562C650.703 389.922 651.484 393.359 652.109 396.797C652.188 397.109 652.266 397.5 652.344 397.813L653.047 401.797L653.281 402.969C653.516 404.375 653.75 405.703 653.906 407.109C653.984 407.422 653.984 407.656 654.063 407.969L654.766 413.125C655 414.766 655.156 416.484 655.313 418.125C655.391 418.594 655.391 419.062 655.469 419.609C655.547 420.859 655.703 422.031 655.781 423.281C655.859 423.828 655.859 424.453 655.938 425C656.016 426.25 656.094 427.422 656.172 428.672C656.172 429.219 656.25 429.688 656.25 430.234C656.328 431.953 656.406 433.75 656.484 435.469L656.719 443.281L661.016 446.25L663.125 447.734C663.516 447.969 701.25 475.156 692.891 508.516C688.906 524.219 682.031 533.594 675.781 539.141C670.781 522.891 663.594 512.891 653.984 508.594L642.734 503.594L635.234 513.359C624.844 527.109 611.953 542.891 605.469 549.766Z" fill="#0A7F6E" fill-opacity="0.6"/>
<path d="M574.609 347.031C550.234 347.031 530.469 366.875 530.469 391.172C530.469 415.547 550.312 435.312 574.609 435.312C598.906 435.312 618.75 415.469 618.75 391.172C618.75 366.875 598.984 347.031 574.609 347.031ZM574.609 419.766C558.906 419.766 546.094 406.953 546.094 391.25C546.094 375.547 558.906 362.734 574.609 362.734C590.313 362.734 603.125 375.547 603.125 391.25C603.125 406.953 590.313 419.766 574.609 419.766ZM553.906 596.016C549.609 596.016 546.094 599.531 546.094 603.828V681.484C546.094 685.781 549.609 689.297 553.906 689.297C558.203 689.297 561.719 685.781 561.719 681.484V603.828C561.719 599.531 558.203 596.016 553.906 596.016Z" fill="#F35200" fill-opacity="0.6"/>
<path d="M602.031 588.204C593.438 588.204 586.406 595.235 586.406 603.829V626.328C586.406 634.922 593.438 641.953 602.031 641.953C610.625 641.953 617.656 634.922 617.656 626.328V603.829C617.656 595.157 610.625 588.204 602.031 588.204ZM529.922 199.297C531.563 195.313 529.688 190.703 525.703 189.063C464.61 163.828 419.766 176.875 392.891 192.266C363.75 208.985 349.297 231.641 348.672 232.578C346.406 236.25 347.5 241.016 351.094 243.36C352.422 244.141 353.828 244.532 355.235 244.532C357.813 244.532 360.391 243.203 361.875 240.86C362.031 240.625 374.844 220.547 400.625 205.782C435.235 185.938 475.313 185.157 519.688 203.438C523.672 205.235 528.281 203.282 529.922 199.297Z" fill="#0A7F6E" fill-opacity="0.6"/>
</svg>
