<svg width="800" height="800" viewBox="0 0 800 800" fill="none" xmlns="http://www.w3.org/2000/svg">
<path d="M419.453 564.844C417.656 560.937 412.969 559.219 409.062 561.016C405.156 562.812 403.438 567.5 405.234 571.406C406.406 573.984 407.734 576.484 409.062 578.906C410.469 581.484 413.125 582.891 415.859 582.891C417.187 582.891 418.437 582.578 419.688 581.875C423.438 579.766 424.766 575 422.656 571.25C421.562 569.219 420.391 567.031 419.453 564.844ZM411.484 537.266C411.25 534.922 411.094 532.734 411.094 530.703V530.469C411.094 526.172 407.656 522.656 403.359 522.578H403.281C398.984 522.578 395.469 526.016 395.469 530.312V530.703C395.469 533.359 395.625 536.172 395.937 539.062C396.406 543.047 399.766 546.016 403.672 546.016C403.984 546.016 404.297 546.016 404.531 545.937C408.906 545.469 411.953 541.562 411.484 537.266ZM446.172 597.187C444.219 595.937 442.344 594.531 440.547 593.047C437.188 590.312 432.266 590.781 429.531 594.141C426.797 597.5 427.266 602.422 430.625 605.156C432.891 607.031 435.234 608.75 437.578 610.312C438.906 611.172 440.391 611.562 441.875 611.562C444.453 611.562 446.953 610.312 448.437 608.047C450.781 604.375 449.766 599.531 446.172 597.187ZM478.984 607.109C476.641 607.031 474.219 606.875 471.953 606.562C467.656 606.016 463.75 609.062 463.203 613.281C462.656 617.578 465.703 621.484 469.922 622.031C472.734 622.422 475.547 622.578 478.438 622.656H478.672C482.891 622.656 486.328 619.297 486.484 615.078C486.641 610.781 483.281 607.187 478.984 607.109ZM423.984 489.062C420.313 486.797 415.469 488.047 413.281 491.719C411.875 494.063 410.547 496.25 409.219 498.281C406.953 501.953 408.047 506.797 411.719 509.062C412.969 509.844 414.453 510.234 415.859 510.234C418.437 510.234 421.016 508.906 422.5 506.563C423.906 504.297 425.312 502.031 426.641 499.766C428.906 496.094 427.656 491.328 423.984 489.062ZM447.734 423.125C446.797 425.469 445.859 427.891 444.922 430.234C443.281 434.219 445.156 438.828 449.141 440.469C450.156 440.859 451.172 441.094 452.109 441.094C455.156 441.094 458.047 439.297 459.297 436.25C460.313 433.75 461.328 431.25 462.266 428.828C463.828 424.844 461.797 420.312 457.812 418.75C456.641 418.281 455.469 418.125 454.297 418.281L451.016 419.375C449.609 420.078 448.359 421.406 447.734 423.125Z" fill="#0A7F6E" fill-opacity="0.6"/>
<path d="M400.391 106.719L96.1719 327.813L212.344 685.469H588.359L704.531 327.813L400.391 106.719ZM408.203 151.094L660.156 334.141L626.406 345.234L408.203 186.719V151.094ZM408.203 206.016L608.047 351.25L472.813 395.625C473.281 393.828 473.672 391.953 474.062 390.156C474.922 385.938 472.266 381.797 468.047 380.938C463.828 380.078 459.687 382.734 458.828 386.953C458.359 389.297 457.734 391.797 457.109 394.297C456.562 396.484 457.031 398.75 458.125 400.469L419.219 413.281C416.484 409.453 412.656 406.563 408.203 404.922V206.016ZM135.859 348.828L192.734 367.109C193.75 361.875 195.391 356.953 197.734 352.266L140.781 333.984L392.578 151.016V280.078C392.109 280 391.719 279.922 391.25 279.922C388.437 279.766 385.625 279.766 382.812 279.844C378.516 280 375.078 283.594 375.234 287.891C375.391 292.188 378.906 295.625 383.281 295.469C385.703 295.391 388.125 295.391 390.469 295.547H390.859C391.484 295.547 392.031 295.469 392.578 295.313V404.844C388.672 406.25 385.312 408.594 382.734 411.719L305.625 386.953C304.766 392.188 303.203 397.188 301.016 401.875L377.266 426.406V426.563C377.266 432.188 379.297 437.344 382.656 441.328L232.188 645.234L135.859 348.828ZM245 654.219L396.25 449.375C397.578 449.609 398.984 449.766 400.391 449.766C401.719 449.766 403.047 449.609 404.375 449.453L486.484 563.203C483.438 569.297 481.719 576.172 481.719 583.437C481.719 608.359 501.953 628.594 526.875 628.594C529.063 628.594 531.25 628.438 533.359 628.125L552.188 654.297H245V654.219ZM497.266 583.359C497.266 581.797 497.422 580.234 497.656 578.672C498.594 572.578 501.484 567.109 505.547 562.891C510.938 557.266 518.516 553.828 526.875 553.828C543.203 553.828 556.406 567.109 556.406 583.359C556.406 595.078 549.531 605.234 539.531 610C535.703 611.875 531.406 612.891 526.797 612.891C525.156 612.891 523.594 612.734 522.031 612.5C508.047 610.234 497.266 598.047 497.266 583.359ZM567.5 648.75L548.828 622.813C562.656 615.078 572.031 600.313 572.031 583.359C572.031 558.438 551.797 538.203 526.875 538.203C515.078 538.203 504.375 542.734 496.328 550.156L441.25 473.828C441.641 473.359 442.031 472.813 442.344 472.266C443.594 469.922 444.844 467.5 446.016 465.234C447.969 461.406 446.406 456.719 442.578 454.766C438.75 452.813 434.062 454.375 432.109 458.203C431.797 458.75 431.484 459.375 431.25 459.922L417.969 441.563C421.094 437.891 423.047 433.281 423.437 428.281L451.016 419.219C452.031 418.594 453.125 418.203 454.297 418.125L664.844 348.984L567.5 648.75Z" fill="#0A7F6E" fill-opacity="0.6"/>
<path d="M281.719 329.687L281.094 330.312C285.469 333.281 289.375 336.797 292.734 340.781L292.969 340.547C295.938 337.422 295.859 332.5 292.734 329.531C289.688 326.484 284.766 326.562 281.719 329.687ZM461.328 350.625C461.563 352.89 461.719 355.312 461.797 357.734C461.875 361.953 465.391 365.312 469.609 365.312H469.844C474.141 365.234 477.578 361.64 477.422 357.265C477.344 354.375 477.188 351.562 476.875 348.828C476.406 344.531 472.5 341.484 468.281 341.953C463.906 342.422 460.859 346.328 461.328 350.625ZM310.938 322.422C312.5 322.422 314.141 321.953 315.547 320.937C317.578 319.453 319.609 318.047 321.719 316.64C325.312 314.297 326.328 309.453 323.906 305.781C321.563 302.187 316.641 301.172 313.047 303.594C310.781 305.078 308.516 306.641 306.328 308.281C302.813 310.859 302.031 315.703 304.609 319.219C306.172 321.328 308.594 322.422 310.938 322.422ZM425.469 303.984C426.484 304.453 427.578 304.687 428.594 304.687C431.562 304.687 434.453 302.969 435.781 300C437.5 296.015 435.781 291.406 431.797 289.687C429.219 288.594 426.641 287.5 424.062 286.562C420 285.078 415.547 287.187 414.063 291.25C412.578 295.312 414.688 299.766 418.75 301.25C420.938 302.109 423.203 303.047 425.469 303.984ZM452.5 324.844C453.984 327.109 456.484 328.359 458.984 328.359C460.469 328.359 461.953 327.969 463.281 327.031C466.875 324.609 467.812 319.766 465.469 316.172C463.828 313.75 462.031 311.328 460 309.141C457.109 305.937 452.188 305.625 448.984 308.515C445.781 311.406 445.469 316.328 448.359 319.531C449.844 321.172 451.25 322.969 452.5 324.844ZM345 303.515C345.938 303.515 346.875 303.359 347.813 302.969C350.078 302.109 352.422 301.25 354.688 300.469C358.828 299.141 361.016 294.765 359.766 290.625C358.438 286.484 354.063 284.219 349.922 285.547C347.344 286.406 344.688 287.344 342.109 288.359C338.125 289.922 336.094 294.453 337.656 298.516C338.984 301.641 341.875 303.515 345 303.515ZM451.016 419.219L454.297 418.125C453.125 418.281 452.031 418.594 451.016 419.219Z" fill="#0A7F6E" fill-opacity="0.6"/>
<path d="M292.734 340.781C289.375 336.797 285.469 333.281 281.094 330.312C271.953 324.062 260.859 320.469 248.984 320.469C226.563 320.469 207.031 333.437 197.656 352.266C195.312 356.875 193.672 361.875 192.656 367.109C192.031 370.547 191.641 374.141 191.641 377.812C191.641 409.453 217.344 435.156 248.984 435.156C271.953 435.156 291.875 421.562 301.016 401.953C303.203 397.266 304.766 392.266 305.625 387.031C306.094 384.062 306.406 380.937 306.406 377.812C306.406 363.672 301.25 350.781 292.734 340.781ZM290.547 382.109C290 387.422 288.438 392.5 286.016 397.031C279.063 410.312 265.078 419.453 249.062 419.453C226.094 419.453 207.344 400.703 207.344 377.734C207.344 375.703 207.5 373.75 207.734 371.875C208.516 366.562 210.234 361.562 212.812 357.109C220 344.531 233.516 336.016 249.062 336.016C272.031 336.016 290.781 354.766 290.781 377.734C290.781 379.297 290.703 380.703 290.547 382.109Z" fill="#F35200" fill-opacity="0.6"/>
</svg>
