<svg width="800" height="800" viewBox="0 0 800 800" fill="none" xmlns="http://www.w3.org/2000/svg">
<path d="M175.981 288.961C175.978 259.219 181.894 229.772 193.392 202.341C204.89 174.911 221.731 150.046 242.941 129.195C264.15 108.344 289.299 91.9248 316.922 80.8963C344.541 69.8675 374.083 64.4509 403.821 64.9606C460.909 66.6582 515.265 89.7933 556.063 129.761C596.862 169.73 621.11 223.599 623.981 280.64C625.346 318.704 616.982 356.486 599.68 390.419C582.379 424.349 556.71 453.309 525.101 474.56C516.193 480.352 508.867 488.269 503.783 497.597C498.699 506.928 496.018 517.376 495.981 528V576.96H303.981V528C303.981 517.405 301.347 506.976 296.32 497.648C291.293 488.32 284.029 480.387 275.181 474.56C244.71 454.115 219.725 426.496 202.429 394.134C185.13 361.773 176.048 325.654 175.981 288.961Z" stroke="#0A7F6E" stroke-opacity="0.6" stroke-width="48" stroke-linecap="round" stroke-linejoin="round"/>
<path d="M304 673.28C331.696 694.051 365.379 705.28 400 705.28C434.621 705.28 468.305 694.051 496 673.28" stroke="#F35200" stroke-opacity="0.6" stroke-width="48" stroke-linecap="round" stroke-linejoin="round"/>
</svg>
