<svg width="800" height="800" viewBox="0 0 800 800" fill="none" xmlns="http://www.w3.org/2000/svg">
<path d="M398.438 268.281C327.344 268.281 269.531 326.094 269.531 397.188C269.531 468.281 327.344 526.094 398.438 526.094C469.531 526.094 527.344 468.281 527.344 397.188C527.344 326.094 469.531 268.281 398.438 268.281ZM398.438 510.547C335.938 510.547 285.156 459.688 285.156 397.266C285.156 334.844 336.016 283.984 398.438 283.984C460.859 283.984 511.719 334.844 511.719 397.266C511.719 459.688 460.938 510.547 398.438 510.547Z" fill="#0A7F6E" fill-opacity="0.6"/>
<path d="M621.406 381.563H593.75C590.078 335.078 570.312 291.953 536.953 258.594C503.594 225.234 460.312 205.391 413.75 201.797V173.203C413.75 164.609 406.719 157.578 398.125 157.578C389.531 157.578 382.5 164.609 382.5 173.203V201.875C336.172 205.547 293.047 225.391 259.844 258.594C226.563 291.875 206.719 335.078 203.047 381.563H176.562C167.969 381.563 160.938 388.594 160.938 397.188C160.938 405.781 167.969 412.813 176.562 412.813H203.125C206.797 459.297 226.563 502.422 259.922 535.781C293.125 568.984 336.25 588.828 382.578 592.5V620.234C382.578 628.828 389.609 635.859 398.203 635.859C406.797 635.859 413.828 628.828 413.828 620.234V592.578C460.391 588.984 503.672 569.141 537.031 535.781C570.313 502.5 590.156 459.297 593.828 412.813H621.484C630.078 412.813 637.109 405.781 637.109 397.188C637.109 388.594 630.078 381.563 621.406 381.563ZM413.828 561.172V520.625C413.828 512.031 406.797 505 398.203 505C389.609 505 382.578 512.031 382.578 520.625V561.094C304.375 553.594 241.953 491.094 234.531 412.813H275.625C284.219 412.813 291.25 405.781 291.25 397.188C291.25 388.594 284.219 381.563 275.625 381.563H234.531C241.953 303.281 304.375 240.781 382.578 233.281V272.578C382.578 281.172 389.609 288.203 398.203 288.203C406.797 288.203 413.828 281.172 413.828 272.578V233.281C492.344 240.547 555 303.203 562.422 381.641H523.75C515.156 381.641 508.125 388.672 508.125 397.266C508.125 405.859 515.156 412.891 523.75 412.891H562.422C555 491.328 492.266 553.906 413.828 561.172Z" fill="#F35200" fill-opacity="0.6"/>
<path d="M687.813 123.438C687.813 114.844 680.781 107.812 672.188 107.812H398.438C359.375 107.812 321.484 115.469 285.781 130.547C251.328 145.156 220.391 166.016 193.828 192.578C167.266 219.141 146.406 250.078 131.797 284.531C116.719 320.234 109.062 358.125 109.062 397.187C109.062 405.781 116.094 412.813 124.688 412.813C133.281 412.813 140.313 405.781 140.313 397.187C140.313 254.844 256.094 139.062 398.438 139.062H618.203V181.641C618.203 188.594 626.563 192.031 631.484 187.109L683.906 134.687C685.156 133.437 685.859 132.031 686.094 130.547C687.188 128.438 687.813 126.016 687.813 123.438ZM672.188 381.562C663.594 381.562 656.563 388.594 656.563 397.187C656.563 539.531 540.781 655.312 398.438 655.312H179.922V611.719C179.922 604.766 171.563 601.328 166.641 606.25L114.219 658.672C113.437 659.453 112.812 660.391 112.422 661.328C110.312 663.984 109.062 667.344 109.062 671.016C109.062 679.609 116.094 686.641 124.688 686.641H398.438C437.5 686.641 475.391 678.984 511.094 663.906C545.547 649.297 576.484 628.438 603.047 601.875C629.609 575.313 650.469 544.375 665.078 509.922C680.156 474.219 687.813 436.328 687.813 397.266C687.813 388.594 680.859 381.562 672.188 381.562Z" fill="#0A7F6E" fill-opacity="0.6"/>
</svg>
