<?xml version="1.0" encoding="utf-8"?><!DOCTYPE svg PUBLIC "-//W3C//DTD SVG 1.1//EN" "http://www.w3.org/Graphics/SVG/1.1/DTD/svg11.dtd"><svg xmlns="http://www.w3.org/2000/svg" xmlns:xlink="http://www.w3.org/1999/xlink"><symbol fill="none" viewBox="0 0 32 32" id="cart" xmlns="http://www.w3.org/2000/svg"><g clip-path="url(#aa)" stroke="#fff" stroke-width="2"><path d="M10.083 0h21.043c.578 0 .998.771.84 1.568l-2.433 13.236c-.105.548-.455.921-.84.921H9.856C8.84 15.725 8 16.895 8 18.363 8 19.806 8.823 21 9.856 21h19.747M8 12 6.503 1.037C6.417.421 6.132 0 5.818 0H1.483C.67 0 0 1.29 0 2.916c0 1.598.656 2.916 1.483 2.916h3.522" stroke-miterlimit="10" stroke-linecap="round" stroke-linejoin="round"/><path d="M29 28a3 3 0 1 1-6 0 3 3 0 0 1 6 0ZM16 28a3 3 0 1 1-6 0 3 3 0 0 1 6 0Z"/></g><defs><clipPath id="aa"><path fill="#fff" d="M0 0h32v32H0z"/></clipPath></defs></symbol><symbol viewBox="0 0 367.467 367.467" xml:space="preserve" id="copyright_0" xmlns="http://www.w3.org/2000/svg"><path d="M183.73.018C82.427.018 0 82.404 0 183.733c0 101.289 82.427 183.716 183.73 183.716 101.315 0 183.737-82.427 183.737-183.716C367.467 82.404 285.045.018 183.73.018zm0 326.5c-78.743 0-142.798-64.052-142.798-142.784 0-78.766 64.055-142.817 142.798-142.817 78.752 0 142.807 64.052 142.807 142.817-.001 78.732-64.056 142.784-142.807 142.784z"/><path d="M244.036 217.014c-11.737 20.141-33.562 32.635-56.956 32.635-36.329 0-65.921-29.585-65.921-65.915 0-36.36 29.592-65.955 65.921-65.955 23.395 0 45.219 12.54 56.956 32.641l1.517 2.627h44.28l-2.658-7.129c-7.705-20.413-21.225-37.769-39.122-50.157-17.942-12.42-39.017-19.009-60.973-19.009-58.981 0-106.946 48.006-106.946 106.982 0 58.98 47.965 106.941 106.946 106.941 21.956 0 43.03-6.567 60.973-19.006 17.897-12.391 31.417-29.741 39.122-50.154l2.658-7.133h-44.28l-1.517 2.632z"/></symbol><symbol viewBox="0 0 276.715 276.715" xml:space="preserve" id="copyright_1" xmlns="http://www.w3.org/2000/svg"><path d="M138.357 0C62.066 0 0 62.066 0 138.357s62.066 138.357 138.357 138.357 138.357-62.066 138.357-138.357S214.648 0 138.357 0zm0 258.715C71.992 258.715 18 204.723 18 138.357S71.992 18 138.357 18s120.357 53.992 120.357 120.357-53.991 120.358-120.357 120.358z"/><path d="M194.798 160.903a9.003 9.003 0 0 0-12.432 2.732c-8.694 13.593-23.503 21.708-39.614 21.708-25.908 0-46.985-21.078-46.985-46.986s21.077-46.986 46.985-46.986c15.633 0 30.2 7.747 38.968 20.723a9 9 0 0 0 14.914-10.078c-12.118-17.937-32.262-28.645-53.882-28.645-35.833 0-64.985 29.152-64.985 64.986s29.152 64.986 64.985 64.986c22.281 0 42.759-11.218 54.778-30.009a9 9 0 0 0-2.732-12.431z"/></symbol><symbol viewBox="0 0 32 32" xml:space="preserve" id="email" xmlns="http://www.w3.org/2000/svg"><path d="M26.2 8.5C24 5.3 20.6 3.3 16.9 3H16c-3.7 0-7.2 1.6-9.7 4.3-2.5 2.7-3.6 6.4-3.2 10.1.7 6 5.5 10.8 11.5 11.4.4.2.9.2 1.4.2 2.6 0 5-.7 7.2-2.2.5-.3.6-.9.3-1.4-.3-.5-.9-.6-1.4-.3-2.2 1.4-4.7 2.1-7.3 1.8-5.1-.5-9.1-4.6-9.7-9.7-.4-3.1.6-6.2 2.7-8.5 2.3-2.5 5.6-3.9 9-3.6 3.2.2 6 1.9 7.8 4.6 1.9 2.9 2.4 6.3 1.3 9.6v.1c-.3 1-1.3 1.7-2.4 1.7-1.4 0-2.5-1.1-2.5-2.5V11c0-.6-.4-1-1-1s-1 .4-1 1c-.8-.6-1.9-1-3-1-2.8 0-5 2.2-5 5v2c0 2.8 2.2 5 5 5 1.4 0 2.6-.6 3.5-1.4.7 1.4 2.2 2.4 4 2.4 1.9 0 3.6-1.2 4.3-3.1v-.1c1.3-3.8.7-7.9-1.6-11.3zM19 17c0 1.7-1.3 3-3 3s-3-1.3-3-3v-2c0-1.7 1.3-3 3-3s3 1.3 3 3v2z"/></symbol><symbol fill="none" viewBox="0 0 32 32" id="email_1" xmlns="http://www.w3.org/2000/svg"><g clip-path="url(#ea)"><circle cx="16" cy="16" r="16" fill="#0A7F6E"/><path d="M26.18 8.5c-2.2-3.2-5.6-5.2-9.3-5.5h-.9c-3.7 0-7.2 1.6-9.7 4.3-2.5 2.7-3.6 6.4-3.2 10.1.7 6 5.5 10.8 11.5 11.4.4.2.9.2 1.4.2 2.6 0 5-.7 7.2-2.2.5-.3.6-.9.3-1.4-.3-.5-.9-.6-1.4-.3-2.2 1.4-4.7 2.1-7.3 1.8-5.1-.5-9.1-4.6-9.7-9.7-.4-3.1.6-6.2 2.7-8.5 2.3-2.5 5.6-3.9 9-3.6 3.2.2 6 1.9 7.8 4.6 1.9 2.9 2.4 6.3 1.3 9.6v.1c-.3 1-1.3 1.7-2.4 1.7-1.4 0-2.5-1.1-2.5-2.5V11c0-.6-.4-1-1-1s-1 .4-1 1c-.8-.6-1.9-1-3-1-2.8 0-5 2.2-5 5v2c0 2.8 2.2 5 5 5 1.4 0 2.6-.6 3.5-1.4.7 1.4 2.2 2.4 4 2.4 1.9 0 3.6-1.2 4.3-3.1v-.1c1.3-3.8.7-7.9-1.6-11.3Zm-7.2 8.5c0 1.7-1.3 3-3 3s-3-1.3-3-3v-2c0-1.7 1.3-3 3-3s3 1.3 3 3v2Z" fill="#fff"/></g><defs><clipPath id="ea"><path fill="#fff" d="M0 0h32v32H0z"/></clipPath></defs></symbol><symbol fill="none" viewBox="0 0 132 132" id="facebook_1" xmlns="http://www.w3.org/2000/svg"><g clip-path="url(#fa)"><circle cx="66" cy="66" r="66" fill="#fff"/><path d="M66 2C31.755 2 4 30.65 4 66s27.755 64 62 64c34.245 0 62-28.65 62-64S100.245 2 66 2Zm38.702 103.925c-5.038 5.2-10.875 9.275-17.39 12.1-6.732 2.95-13.901 4.425-21.312 4.425-7.387 0-14.556-1.5-21.313-4.425-6.514-2.85-12.375-6.925-17.389-12.1a56.02 56.02 0 0 1-11.721-17.95c-2.858-6.95-4.311-14.35-4.311-21.975a58.177 58.177 0 0 1 4.286-22c2.761-6.725 6.709-12.775 11.722-17.95 5.062-5.2 10.899-9.275 17.413-12.125A53.348 53.348 0 0 1 66 9.5c7.387 0 14.555 1.5 21.313 4.425 6.514 2.85 12.375 6.925 17.389 12.1a56.015 56.015 0 0 1 11.721 17.95c2.858 6.95 4.287 14.35 4.287 22a58.17 58.17 0 0 1-4.287 22c-2.76 6.725-6.708 12.775-11.721 17.95Z" fill="#0A7F6E"/><path d="M78.596 46.405c2.656 0 5.492.825 5.492.825l1.701-10.106s-3.61-1.238-12.22-1.238c-5.285 0-8.353 2.01-10.596 4.976-2.114 2.81-2.192 7.322-2.192 10.235v6.626H53.95v9.874h6.832v34.289H73.57v-34.29H83.7l.747-9.873h-10.88v-7.709c0-2.655 2.373-3.61 5.028-3.61Z" fill="#0A7F6E"/></g><defs><clipPath id="fa"><path fill="#fff" d="M0 0h132v132H0z"/></clipPath></defs></symbol><symbol fill="none" viewBox="0 0 132 132" id="instagram_1" xmlns="http://www.w3.org/2000/svg"><g clip-path="url(#ga)"><circle cx="66" cy="66" r="66" fill="#fff"/><path d="M66 4C31.755 4 4 31.755 4 66c0 34.245 27.755 62 62 62 34.245 0 62-27.755 62-62 0-34.245-27.755-62-62-62Zm38.702 100.677c-5.038 5.038-10.875 8.985-17.39 11.722-6.732 2.858-13.901 4.287-21.312 4.287a54.819 54.819 0 0 1-21.313-4.287 54.653 54.653 0 0 1-17.389-11.722c-5.037-5.037-8.985-10.874-11.721-17.389-2.858-6.733-4.311-13.901-4.311-21.288a54.826 54.826 0 0 1 4.286-21.313 54.664 54.664 0 0 1 11.722-17.389c5.062-5.037 10.899-8.985 17.413-11.746A54.826 54.826 0 0 1 66 11.266a54.826 54.826 0 0 1 21.313 4.286 54.67 54.67 0 0 1 17.389 11.722c5.037 5.038 8.985 10.874 11.721 17.39 2.858 6.732 4.287 13.9 4.287 21.312a54.819 54.819 0 0 1-4.287 21.312 54.644 54.644 0 0 1-11.721 17.389Z" fill="#0A7F6E"/><path d="M86.264 33H45.787c-7.038 0-12.762 5.723-12.762 12.762v40.503c0 7.037 5.724 12.76 12.762 12.76h40.477c7.038 0 12.761-5.723 12.761-12.76V45.735C99 38.723 93.276 33 86.264 33Zm3.66 7.605h1.47v11.189l-11.163.026-.026-11.189 9.72-.026ZM56.59 59.22c2.114-2.913 5.543-4.846 9.41-4.846 3.868 0 7.297 1.908 9.41 4.846A11.453 11.453 0 0 1 77.602 66c0 6.394-5.208 11.627-11.627 11.627-6.42 0-11.576-5.233-11.576-11.627 0-2.527.825-4.873 2.191-6.78ZM92.58 86.24a6.327 6.327 0 0 1-6.316 6.316H45.787a6.327 6.327 0 0 1-6.316-6.317V59.22h9.848A17.965 17.965 0 0 0 47.98 66c0 9.952 8.095 18.047 18.046 18.047 9.952 0 18.047-8.095 18.047-18.047 0-2.398-.49-4.692-1.34-6.78h9.848v27.018Z" fill="#0A7F6E"/></g><defs><clipPath id="ga"><path fill="#fff" d="M0 0h132v132H0z"/></clipPath></defs></symbol><symbol fill="none" viewBox="0 0 132 132" id="linkedin_1" xmlns="http://www.w3.org/2000/svg"><g clip-path="url(#ha)"><circle cx="66" cy="66" r="66" fill="#fff"/><path d="M66 4C31.755 4 4 31.755 4 66c0 34.245 27.755 62 62 62 34.245 0 62-27.755 62-62 0-34.245-27.755-62-62-62Zm38.702 100.677c-5.038 5.038-10.875 8.985-17.39 11.722-6.732 2.858-13.901 4.287-21.312 4.287a54.819 54.819 0 0 1-21.313-4.287 54.653 54.653 0 0 1-17.389-11.722c-5.037-5.037-8.985-10.874-11.721-17.389-2.858-6.733-4.311-13.901-4.311-21.288a54.826 54.826 0 0 1 4.286-21.313 54.664 54.664 0 0 1 11.722-17.389c5.062-5.037 10.899-8.985 17.413-11.746A54.826 54.826 0 0 1 66 11.266a54.826 54.826 0 0 1 21.313 4.286 54.67 54.67 0 0 1 17.389 11.722c5.037 5.038 8.985 10.874 11.721 17.39 2.858 6.732 4.287 13.9 4.287 21.312a54.819 54.819 0 0 1-4.287 21.312 54.644 54.644 0 0 1-11.721 17.389Z" fill="#0A7F6E"/><path d="M47.54 52.44H34.677v41.172H47.54V52.439ZM40.838 33c-4.744 0-7.863 3.068-7.863 7.141 0 3.997 3.016 7.142 7.682 7.142h.104c4.846 0 7.863-3.171 7.837-7.142-.103-4.073-3.016-7.141-7.76-7.141ZM82.68 52.052c-7.373 0-11.988 4.022-12.839 6.858v-6.47H55.378c.18 3.428 0 41.172 0 41.172H69.84v-22.25c0-1.263-.051-2.5.31-3.377.98-2.475 3.12-5.053 6.96-5.053 5.028 0 7.297 3.816 7.297 9.384v21.296H99V70.718c0-12.736-7.167-18.666-16.32-18.666Z" fill="#0A7F6E"/></g><defs><clipPath id="ha"><path fill="#fff" d="M0 0h132v132H0z"/></clipPath></defs></symbol><symbol fill="none" viewBox="0 0 32 32" id="login" xmlns="http://www.w3.org/2000/svg"><path fill-rule="evenodd" clip-rule="evenodd" d="M25 25.5c0 2.485-2.198 4.5-4.909 4.5h-8.182C9.198 30 7 27.985 7 25.5v-3c0-2.126 1.613-3.896 3.775-4.367C12.25 19.304 14.05 20 16 20c1.95 0 3.75-.696 5.225-1.867C23.387 18.604 25 20.374 25 22.5v3ZM9 10c0-4.418 3.134-8 7-8s7 3.582 7 8-3.134 8-7 8-7-3.582-7-8Zm13.951 6.353C24.23 14.625 25 12.412 25 10c0-5.522-4.029-10-9-10S7 4.478 7 10c0 2.412.77 4.625 2.049 6.353C6.699 17.165 5 19.373 5 22v4a6 6 0 0 0 6 6h10a6 6 0 0 0 6-6v-4c0-2.627-1.699-4.835-4.049-5.647Z" fill="#fff"/></symbol><symbol viewBox="0 0 32 32" id="phone" xmlns="http://www.w3.org/2000/svg"><path d="m18.037 6.635-.035-.001a.75.75 0 0 0-.044 1.499h.002c3.533.231 6.311 3.153 6.311 6.723 0 .186-.008.37-.022.552l.002-.024a.75.75 0 0 0 1.5 0 8.29 8.29 0 0 0-7.686-8.748l-.026-.001zm-.074-3.886c.449.022 10.998.688 10.998 12.635a.75.75 0 0 0 1.5 0c.015-.238.024-.515.024-.795 0-7.059-5.471-12.841-12.405-13.335l-.043-.002-.029-.001a.759.759 0 0 0-.757.71v.002L17.25 2a.75.75 0 0 0 .711.749h.002zM30.637 23.15a5.178 5.178 0 0 0-.654-1.823l.013.024a.753.753 0 0 0-.521-.353l-.004-.001-8.969-1.424a.752.752 0 0 0-.648.209 6.164 6.164 0 0 0-1.496 2.451l-.012.044c-4.016-1.64-7.141-4.765-8.742-8.675l-.038-.105a6.18 6.18 0 0 0 2.493-1.509.749.749 0 0 0 .21-.651l.001.004-1.425-8.969a.752.752 0 0 0-.35-.524l-.003-.002a4.962 4.962 0 0 0-1.724-.626l-.029-.004a4.911 4.911 0 0 0-1.048-.111l-.075.001h.004-.006a6.391 6.391 0 0 0-6.347 6.351v.002c.015 12.761 10.355 23.102 23.115 23.117h.002a6.395 6.395 0 0 0 6.354-6.351v-.07a5.07 5.07 0 0 0-.106-1.038l.006.033zm-6.254 5.926C12.45 29.062 2.781 19.392 2.767 7.46v-.001a4.888 4.888 0 0 1 4.854-4.853h.057c.272 0 .537.03.793.086l-.024-.005c.366.06.695.161 1.003.3l-.025-.01 1.302 8.202a4.791 4.791 0 0 1-2.257 1.05l-.029.004a.75.75 0 0 0-.577.989l-.002-.005c1.772 5.072 5.695 8.994 10.646 10.729l.121.037a.749.749 0 0 0 .982-.574l.001-.005a4.823 4.823 0 0 1 1.061-2.295l-.006.007 8.201 1.303c.133.294.237.636.296.994l.003.024c.046.219.073.471.073.729v.053-.003a4.888 4.888 0 0 1-4.852 4.859h-.002z"/></symbol><symbol fill="none" viewBox="0 0 32 32" id="phone_1" xmlns="http://www.w3.org/2000/svg"><circle cx="16" cy="16" r="15" fill="#0A7F6E"/><path d="M16.95 9.94h-.025a.535.535 0 0 0-.032 1.068h.002a4.804 4.804 0 0 1 4.481 5.184l.002-.017a.535.535 0 0 0 1.068 0A5.907 5.907 0 0 0 16.97 9.94h-.019Zm-.053-2.769c.32.016 7.837.49 7.837 9.004a.535.535 0 0 0 1.069 0c.01-.17.017-.367.017-.567 0-5.03-3.899-9.15-8.84-9.502l-.03-.001-.021-.001a.54.54 0 0 0-.54.506v.028c0 .285.224.52.507.533h.001Zm9.031 14.538a3.688 3.688 0 0 0-.466-1.3l.01.018a.537.537 0 0 0-.372-.252h-.003l-6.39-1.015a.536.536 0 0 0-.462.149 4.392 4.392 0 0 0-1.067 1.746l-.008.031c-2.862-1.168-5.089-3.395-6.23-6.181l-.026-.075a4.402 4.402 0 0 0 1.776-1.075.534.534 0 0 0 .15-.464v.003l-1.015-6.391a.536.536 0 0 0-.25-.374l-.002-.001a3.535 3.535 0 0 0-1.228-.446l-.02-.003A3.5 3.5 0 0 0 9.577 6h-.054.003-.004A4.554 4.554 0 0 0 5 10.527v.002C5.01 19.62 12.379 26.989 21.47 27h.002A4.557 4.557 0 0 0 26 22.474v-.05c0-.253-.026-.5-.076-.739l.005.024h-.001Zm-4.456 4.222c-8.503-.01-15.393-6.9-15.403-15.403A3.484 3.484 0 0 1 9.528 7.07h.041c.193 0 .382.02.564.06l-.017-.003c.261.043.495.115.715.214l-.018-.007.928 5.844c-.448.377-1 .642-1.608.749l-.021.002a.535.535 0 0 0-.411.705l-.002-.003c1.263 3.614 4.058 6.408 7.586 7.645l.087.026a.534.534 0 0 0 .7-.41v-.002a3.437 3.437 0 0 1 .756-1.636l-.004.005 5.843.929c.095.21.17.453.211.708l.003.017c.032.156.052.336.052.52v.037-.002a3.483 3.483 0 0 1-3.458 3.462h-.001l-.002.001Z" fill="#fff"/></symbol><symbol fill="none" viewBox="0 0 132 132" id="pinterest_1" xmlns="http://www.w3.org/2000/svg"><g clip-path="url(#la)"><circle cx="66" cy="66" r="66" fill="#fff"/><path d="M66 4C31.755 4 4 31.755 4 66c0 34.245 27.755 62 62 62 34.245 0 62-27.755 62-62 0-34.245-27.755-62-62-62Zm38.702 100.677c-5.038 5.038-10.875 8.985-17.39 11.722-6.732 2.858-13.901 4.287-21.312 4.287a54.819 54.819 0 0 1-21.313-4.287 54.653 54.653 0 0 1-17.389-11.722c-5.037-5.037-8.985-10.874-11.721-17.389-2.858-6.733-4.311-13.901-4.311-21.288a54.826 54.826 0 0 1 4.286-21.313 54.664 54.664 0 0 1 11.722-17.389c5.062-5.037 10.899-8.985 17.413-11.746A54.826 54.826 0 0 1 66 11.266a54.826 54.826 0 0 1 21.313 4.286 54.67 54.67 0 0 1 17.389 11.722c5.037 5.038 8.985 10.874 11.721 17.39 2.858 6.732 4.287 13.9 4.287 21.312a54.819 54.819 0 0 1-4.287 21.312 54.644 54.644 0 0 1-11.721 17.389Z" fill="#0A7F6E"/><path d="M66 32.82c-18.227 0-33 14.772-33 33 0 13.509 8.121 25.11 19.748 30.215-.103-2.294-.025-5.079.568-7.58.644-2.68 4.253-17.97 4.253-17.97s-1.056-2.113-1.056-5.207c0-4.898 2.835-8.534 6.367-8.534 2.991 0 4.46 2.243 4.46 4.95 0 3.017-1.933 7.529-2.913 11.705-.825 3.507 1.753 6.342 5.208 6.342 6.265 0 10.467-8.018 10.467-17.53 0-7.22-4.872-12.634-13.741-12.634-10.003 0-16.242 7.451-16.242 15.804 0 2.888.85 4.899 2.165 6.471.62.722.697 1.006.464 1.83-.154.594-.515 2.063-.67 2.656-.232.825-.902 1.135-1.65.825-4.615-1.882-6.755-6.935-6.755-12.607 0-9.384 7.915-20.625 23.59-20.625 12.607 0 20.883 9.127 20.883 18.898 0 12.942-7.193 22.61-17.815 22.61-3.558 0-6.91-1.933-8.07-4.1 0 0-1.907 7.606-2.32 9.076-.696 2.552-2.062 5.079-3.325 7.064a32.99 32.99 0 0 0 9.358 1.366c18.228 0 33-14.772 33-33C99 47.592 84.227 32.82 66 32.82Z" fill="#0A7F6E"/></g><defs><clipPath id="la"><path fill="#fff" d="M0 0h132v132H0z"/></clipPath></defs></symbol><symbol fill="none" viewBox="0 0 32 32" id="search" xmlns="http://www.w3.org/2000/svg"><path d="M12.503 4.725A7.967 7.967 0 0 0 5.684 8.61a.444.444 0 1 0 .764.454 7.075 7.075 0 0 1 6.055-3.449.444.444 0 1 0 0-.889ZM5.318 10.51a.445.445 0 0 0-.533.33c-.133.568-.208.92-.208 1.55a.444.444 0 1 0 .889 0c0-.535.06-.815.184-1.347a.444.444 0 0 0-.332-.534Z" fill="#fff"/><path d="m29.606 25.686-7.175-7.174a2.205 2.205 0 0 0-.52-.39 10.82 10.82 0 0 0 1.48-5.471c0-6.005-4.884-10.89-10.888-10.89s-10.89 4.885-10.89 10.89c0 6.004 4.886 10.888 10.89 10.888a10.82 10.82 0 0 0 5.815-1.69c.09.151.205.297.342.434l7.174 7.174c.505.504 1.174.78 1.886.78a2.65 2.65 0 0 0 1.886-.78 2.65 2.65 0 0 0 .78-1.885c0-.712-.277-1.382-.78-1.886ZM3.392 12.65c0-5.024 4.087-9.111 9.11-9.111 5.025 0 9.112 4.087 9.112 9.111 0 5.024-4.088 9.11-9.111 9.11-5.024 0-9.111-4.085-9.111-9.11Zm24.956 15.55a.912.912 0 0 1-1.257 0l-7.174-7.175c-.062-.062-.086-.103-.089-.103.002-.02.026-.202.534-.71.507-.507.69-.53.696-.534a.402.402 0 0 1 .117.09l7.173 7.174a.887.887 0 0 1 0 1.257Z" fill="#fff"/></symbol></svg>