<?xml version="1.0" encoding="iso-8859-1"?><!DOCTYPE svg PUBLIC "-//W3C//DTD SVG 1.1//EN" "http://www.w3.org/Graphics/SVG/1.1/DTD/svg11.dtd"><svg xmlns="http://www.w3.org/2000/svg" xmlns:xlink="http://www.w3.org/1999/xlink"><symbol viewBox="0 0 902.86 902.86" xml:space="preserve" id="cart_1" xmlns="http://www.w3.org/2000/svg"><path d="M671.504 577.829 781.989 145.22H902.86v-68H729.174L703.128 179.2 0 178.697l74.753 399.129h596.751v.003zm14.262-330.641-67.077 262.64h-487.49L81.928 246.756l603.838.432zM578.418 825.641c59.961 0 108.743-48.783 108.743-108.744s-48.782-108.742-108.743-108.742H168.717c-59.961 0-108.744 48.781-108.744 108.742s48.782 108.744 108.744 108.744S277.46 776.858 277.46 716.897c0-14.4-2.821-28.152-7.927-40.742h208.069c-5.107 12.59-7.928 26.342-7.928 40.742.001 59.961 48.783 108.744 108.744 108.744zM209.46 716.897c0 22.467-18.277 40.744-40.743 40.744s-40.744-18.277-40.744-40.744c0-22.465 18.277-40.742 40.744-40.742 22.466 0 40.743 18.277 40.743 40.742zm409.702 0c0 22.467-18.277 40.744-40.743 40.744s-40.743-18.277-40.743-40.744c0-22.465 18.277-40.742 40.743-40.742s40.743 18.277 40.743 40.742z"/></symbol><symbol viewBox="0 0 31 32" xml:space="preserve" id="search_1" xmlns="http://www.w3.org/2000/svg"><path d="M13.025 26.614c2.117 0 4.208-.524 6.07-1.519l5.606 5.766a3.597 3.597 0 0 0 2.59 1.09 3.6 3.6 0 0 0 2.59-1.09 3.772 3.772 0 0 0 0-5.254l-5.542-5.652a13.487 13.487 0 0 0 1.767-6.672c0-7.352-5.868-13.332-13.081-13.332-7.212 0-13.081 5.98-13.081 13.332 0 7.351 5.868 13.331 13.081 13.331zm0-25.663c6.661 0 12.081 5.532 12.081 12.332 0 2.293-.632 4.541-1.828 6.502a.496.496 0 0 0 .145.664l5.744 5.857a2.768 2.768 0 0 1 0 3.855c-.999 1.018-2.755 1.017-3.75.001l-5.875-6.043a.506.506 0 0 0-.358-.163.439.439 0 0 0-.276.1 11.884 11.884 0 0 1-5.882 1.558C6.365 25.614.945 20.083.945 13.283S6.364.951 13.025.951z"/><path d="M13.025 21.532c4.465 0 8.098-3.7 8.098-8.249s-3.633-8.25-8.098-8.25c-4.465 0-8.098 3.701-8.098 8.25s3.633 8.249 8.098 8.249zm0-15.499c3.914 0 7.098 3.252 7.098 7.25 0 3.997-3.184 7.249-7.098 7.249-3.914 0-7.098-3.252-7.098-7.249 0-3.998 3.184-7.25 7.098-7.25z"/></symbol></svg>