<?xml version="1.0" encoding="utf-8"?><!DOCTYPE svg PUBLIC "-//W3C//DTD SVG 1.1//EN" "http://www.w3.org/Graphics/SVG/1.1/DTD/svg11.dtd"><svg xmlns="http://www.w3.org/2000/svg" xmlns:xlink="http://www.w3.org/1999/xlink"><symbol viewBox="0 0 80 80" id="address_2" xmlns="http://www.w3.org/2000/svg"><path d="M39.9917 2.49023C24.8335 2.49023 12.4941 14.8296 12.4941 29.9878C12.4941 56.6596 38.4415 76.9366 38.4415 76.9366C38.8844 77.29 39.4343 77.4825 40.0009 77.4825C40.5676 77.4825 41.1174 77.29 41.5603 76.9366C41.5603 76.9366 67.5077 56.6596 67.5077 29.9878C67.5076 14.8296 55.1499 2.49023 39.9917 2.49023ZM39.9917 7.49146C52.4477 7.49146 62.5064 17.5318 62.5064 29.9878C62.5065 51.8076 42.7484 69.0467 40.0101 71.3817C37.285 69.0584 17.4954 51.8161 17.4954 29.9878C17.4954 17.5318 27.5357 7.49146 39.9917 7.49146Z"/><path d="M39.9919 17.494C33.118 17.494 27.4981 23.1139 27.498 29.9878C27.498 36.8618 33.1179 42.5001 39.9919 42.5001C46.8659 42.5001 52.5042 36.8618 52.5042 29.9878C52.5042 23.1139 46.8658 17.494 39.9919 17.494ZM39.9919 22.4952C44.1636 22.4952 47.503 25.8161 47.503 29.9878C47.503 34.1596 44.1637 37.4989 39.9919 37.4989C35.8201 37.4989 32.4993 34.1596 32.4993 29.9878C32.4993 25.8161 35.8202 22.4952 39.9919 22.4952Z"/></symbol><symbol viewBox="0 0 32 32" id="cart" xmlns="http://www.w3.org/2000/svg"><g clip-path="url(#bclip0_50_99)"><path d="M10.0833 0H31.1263C31.704 0 32.1242 0.771356 31.9666 1.56754L29.5333 14.8044C29.4281 15.3518 29.078 15.725 28.693 15.725H9.85571C8.84031 15.725 8 16.8945 8 18.3626C8 19.8057 8.8228 21 9.85571 21H29.6032" stroke-width="2" stroke-miterlimit="10" stroke-linecap="round" stroke-linejoin="round"/><path d="M8 12L6.50269 1.03739C6.41713 0.420562 6.1319 0 5.81818 0H1.48308C0.670252 0 0 1.28969 0 2.91587C0 4.514 0.655992 5.83176 1.48308 5.83176H5.00538" stroke-width="2" stroke-miterlimit="10" stroke-linecap="round" stroke-linejoin="round"/><path d="M29 27.9998C29 29.6569 27.6566 31 25.9998 31C24.3431 31 23 29.657 23 27.9998C23 26.3431 24.3431 25 25.9998 25C27.6567 25 29 26.3432 29 27.9998Z" stroke-width="2"/><path d="M16 27.9998C16 29.6569 14.6566 31 12.9998 31C11.3431 31 10 29.657 10 27.9998C10 26.3431 11.3431 25 12.9998 25C14.6567 25 16 26.3432 16 27.9998Z" stroke-width="2"/></g><defs><clipPath id="bclip0_50_99"><rect width="32" height="32"/></clipPath></defs></symbol><symbol viewBox="0 0 100 100" id="chevron_1" xmlns="http://www.w3.org/2000/svg"><path fill-rule="evenodd" clip-rule="evenodd" d="M30.3874 13.7208C31.1688 12.9397 32.2284 12.5009 33.3333 12.5009C34.4381 12.5009 35.4977 12.9397 36.2791 13.7208L69.6124 47.0541C70.3936 47.8355 70.8324 48.8951 70.8324 50C70.8324 51.1048 70.3936 52.1644 69.6124 52.9458L36.2791 86.2791C35.4932 87.0381 34.4407 87.4581 33.3483 87.4486C32.2558 87.4391 31.2107 87.0009 30.4382 86.2284C29.6656 85.4558 29.2274 84.4108 29.2179 83.3183C29.2085 82.2258 29.6284 81.1733 30.3874 80.3875L60.7749 50L30.3874 19.6125C29.6063 18.8311 29.1675 17.7715 29.1675 16.6666C29.1675 15.5618 29.6063 14.5022 30.3874 13.7208Z"/></symbol><symbol id="copyright_0" viewBox="0 0 367.467 367.467" xml:space="preserve" xmlns="http://www.w3.org/2000/svg"><g><path d="M183.73,0.018C82.427,0.018,0,82.404,0,183.733c0,101.289,82.427,183.716,183.73,183.716   c101.315,0,183.737-82.427,183.737-183.716C367.467,82.404,285.045,0.018,183.73,0.018z M183.73,326.518   c-78.743,0-142.798-64.052-142.798-142.784c0-78.766,64.055-142.817,142.798-142.817c78.752,0,142.807,64.052,142.807,142.817   C326.536,262.466,262.481,326.518,183.73,326.518z"/><path d="M244.036,217.014c-11.737,20.141-33.562,32.635-56.956,32.635c-36.329,0-65.921-29.585-65.921-65.915   c0-36.36,29.592-65.955,65.921-65.955c23.395,0,45.219,12.54,56.956,32.641l1.517,2.627h44.28l-2.658-7.129   c-7.705-20.413-21.225-37.769-39.122-50.157c-17.942-12.42-39.017-19.009-60.973-19.009c-58.981,0-106.946,48.006-106.946,106.982   c0,58.98,47.965,106.941,106.946,106.941c21.956,0,43.03-6.567,60.973-19.006c17.897-12.391,31.417-29.741,39.122-50.154   l2.658-7.133h-44.28L244.036,217.014z"/></g></symbol><symbol id="copyright_1" viewBox="0 0 276.715 276.715" xml:space="preserve" xmlns="http://www.w3.org/2000/svg"><g><path d="M138.357,0C62.066,0,0,62.066,0,138.357s62.066,138.357,138.357,138.357s138.357-62.066,138.357-138.357   S214.648,0,138.357,0z M138.357,258.715C71.992,258.715,18,204.723,18,138.357S71.992,18,138.357,18   s120.357,53.992,120.357,120.357S204.723,258.715,138.357,258.715z"/><path d="M194.798,160.903c-4.188-2.677-9.753-1.454-12.432,2.732c-8.694,13.593-23.503,21.708-39.614,21.708   c-25.908,0-46.985-21.078-46.985-46.986s21.077-46.986,46.985-46.986c15.633,0,30.2,7.747,38.968,20.723   c2.782,4.117,8.375,5.201,12.496,2.418c4.118-2.782,5.201-8.377,2.418-12.496c-12.118-17.937-32.262-28.645-53.882-28.645   c-35.833,0-64.985,29.152-64.985,64.986s29.152,64.986,64.985,64.986c22.281,0,42.759-11.218,54.778-30.009   C200.208,169.147,198.985,163.582,194.798,160.903z"/></g></symbol><symbol id="email" viewBox="0 0 32 32" xml:space="preserve" xmlns="http://www.w3.org/2000/svg"><path d="M26.2,8.5c-2.2-3.2-5.6-5.2-9.3-5.5c-0.3,0-0.6,0-0.9,0c-3.7,0-7.2,1.6-9.7,4.3c-2.5,2.7-3.6,6.4-3.2,10.1  c0.7,6,5.5,10.8,11.5,11.4C15,29,15.5,29,16,29c2.6,0,5-0.7,7.2-2.2c0.5-0.3,0.6-0.9,0.3-1.4c-0.3-0.5-0.9-0.6-1.4-0.3  c-2.2,1.4-4.7,2.1-7.3,1.8c-5.1-0.5-9.1-4.6-9.7-9.7C4.7,14.1,5.7,11,7.8,8.7c2.3-2.5,5.6-3.9,9-3.6c3.2,0.2,6,1.9,7.8,4.6  c1.9,2.9,2.4,6.3,1.3,9.6l0,0.1c-0.3,1-1.3,1.7-2.4,1.7c-1.4,0-2.5-1.1-2.5-2.5V17v-2v-4c0-0.6-0.4-1-1-1s-1,0.4-1,1v0  c-0.8-0.6-1.9-1-3-1c-2.8,0-5,2.2-5,5v2c0,2.8,2.2,5,5,5c1.4,0,2.6-0.6,3.5-1.4c0.7,1.4,2.2,2.4,4,2.4c1.9,0,3.6-1.2,4.3-3.1l0-0.1  C29.1,16,28.5,11.9,26.2,8.5z M19,17c0,1.7-1.3,3-3,3s-3-1.3-3-3v-2c0-1.7,1.3-3,3-3s3,1.3,3,3V17z"/></symbol><symbol viewBox="0 0 32 32" id="email_1" xmlns="http://www.w3.org/2000/svg"><g clip-path="url(#gclip0_71_6)"><circle cx="16" cy="16" r="16"/><path d="M26.1802 8.5C23.9802 5.3 20.5802 3.3 16.8802 3C16.5802 3 16.2802 3 15.9802 3C12.2802 3 8.78024 4.6 6.28024 7.3C3.78024 10 2.68024 13.7 3.08024 17.4C3.78024 23.4 8.58024 28.2 14.5802 28.8C14.9802 29 15.4802 29 15.9802 29C18.5802 29 20.9802 28.3 23.1802 26.8C23.6802 26.5 23.7802 25.9 23.4802 25.4C23.1802 24.9 22.5802 24.8 22.0802 25.1C19.8802 26.5 17.3802 27.2 14.7802 26.9C9.68024 26.4 5.68024 22.3 5.08024 17.2C4.68024 14.1 5.68024 11 7.78024 8.7C10.0802 6.2 13.3802 4.8 16.7802 5.1C19.9802 5.3 22.7802 7 24.5802 9.7C26.4802 12.6 26.9802 16 25.8802 19.3V19.4C25.5802 20.4 24.5802 21.1 23.4802 21.1C22.0802 21.1 20.9802 20 20.9802 18.6V17V15V11C20.9802 10.4 20.5802 10 19.9802 10C19.3802 10 18.9802 10.4 18.9802 11C18.1802 10.4 17.0802 10 15.9802 10C13.1802 10 10.9802 12.2 10.9802 15V17C10.9802 19.8 13.1802 22 15.9802 22C17.3802 22 18.5802 21.4 19.4802 20.6C20.1802 22 21.6802 23 23.4802 23C25.3802 23 27.0802 21.8 27.7802 19.9V19.8C29.0802 16 28.4802 11.9 26.1802 8.5ZM18.9802 17C18.9802 18.7 17.6802 20 15.9802 20C14.2802 20 12.9802 18.7 12.9802 17V15C12.9802 13.3 14.2802 12 15.9802 12C17.6802 12 18.9802 13.3 18.9802 15V17Z"/></g><defs><clipPath id="gclip0_71_6"><rect width="32" height="32"/></clipPath></defs></symbol><symbol viewBox="0 0 80 80" id="email_2" xmlns="http://www.w3.org/2000/svg"><path d="M38.3691 3.10045L3.53027 32.9784C2.88328 33.4486 2.50032 34.2 2.5 34.9999V74.9999C2.50014 76.3805 3.61935 77.4997 5 77.4999H75C76.3807 77.4997 77.4999 76.3805 77.5 74.9999V34.9999C77.4999 34.2343 77.149 33.511 76.5479 33.037L41.6357 3.10045C40.7119 2.3083 39.3185 2.28627 38.3691 3.10045ZM39.9902 8.286L70.8252 34.7069L40 54.5262L9.1748 34.7069L39.9902 8.286ZM7.5 39.5799L30.0146 54.0526L7.5 70.1366V39.5799ZM72.5 39.5799V70.1366L49.9854 54.0526L72.5 39.5799ZM34.5459 56.9676L38.6475 59.6044C39.4713 60.1343 40.5287 60.1343 41.3525 59.6044L45.459 56.9676L67.1973 72.4999H12.8027L34.5459 56.9676Z"/></symbol><symbol viewBox="0 0 32 32" id="login" xmlns="http://www.w3.org/2000/svg"><path fill-rule="evenodd" clip-rule="evenodd" d="M25 25.5C25 27.985 22.802 30 20.091 30H11.909C9.198 30 7 27.985 7 25.5V22.5C7 20.374 8.61299 18.604 10.775 18.133C12.25 19.304 14.05 20 16 20C17.95 20 19.75 19.304 21.225 18.133C23.387 18.604 25 20.374 25 22.5V25.5ZM9 10C9 5.582 12.134 2 16 2C19.866 2 23 5.582 23 10C23 14.418 19.866 18 16 18C12.134 18 9 14.418 9 10ZM22.951 16.353C24.23 14.625 25 12.412 25 10C25 4.478 20.971 0 16 0C11.029 0 7 4.478 7 10C7 12.412 7.77001 14.625 9.04901 16.353C6.69901 17.165 5 19.373 5 22V26C5 29.313 7.687 32 11 32H21C24.313 32 27 29.313 27 26V22C27 19.373 25.301 17.165 22.951 16.353Z"/></symbol><symbol viewBox="0 0 32 32" id="phone" xmlns="http://www.w3.org/2000/svg"><path d="M18.037 6.635c-0.011-0.001-0.023-0.001-0.035-0.001-0.414 0-0.75 0.336-0.75 0.75 0 0.399 0.312 0.726 0.706 0.749l0.002 0c3.533 0.231 6.311 3.153 6.311 6.723 0 0.186-0.008 0.37-0.022 0.552l0.002-0.024c0 0.414 0.336 0.75 0.75 0.75s0.75-0.336 0.75-0.75v0c0.009-0.143 0.014-0.31 0.014-0.479 0-4.38-3.397-7.967-7.7-8.269l-0.026-0.001zM17.963 2.749c0.449 0.022 10.998 0.688 10.998 12.635 0 0.414 0.336 0.75 0.75 0.75s0.75-0.336 0.75-0.75v0c0.015-0.238 0.024-0.515 0.024-0.795 0-7.059-5.471-12.841-12.405-13.335l-0.043-0.002c-0.009-0-0.019-0.001-0.029-0.001-0.403 0-0.732 0.314-0.757 0.71l-0 0.002c-0.001 0.011-0.001 0.024-0.001 0.037 0 0.401 0.315 0.729 0.711 0.749l0.002 0zM30.637 23.15c-0.109-0.675-0.334-1.281-0.654-1.823l0.013 0.024c-0.114-0.186-0.301-0.317-0.521-0.353l-0.004-0.001-8.969-1.424c-0.035-0.006-0.076-0.009-0.117-0.009-0.207 0-0.395 0.083-0.531 0.218l0-0c-0.676 0.68-1.194 1.516-1.496 2.451l-0.012 0.044c-4.016-1.64-7.141-4.765-8.742-8.675l-0.038-0.105c0.978-0.314 1.814-0.833 2.493-1.509l-0 0c0.136-0.136 0.22-0.324 0.22-0.531 0-0.041-0.003-0.081-0.010-0.12l0.001 0.004-1.425-8.969c-0.036-0.224-0.167-0.412-0.35-0.524l-0.003-0.002c-0.505-0.301-1.094-0.522-1.724-0.626l-0.029-0.004c-0.315-0.070-0.677-0.111-1.048-0.111-0.025 0-0.050 0-0.075 0.001l0.004-0h-0.006c-3.497 0.024-6.326 2.855-6.347 6.351v0.002c0.015 12.761 10.355 23.102 23.115 23.117h0.002c3.5-0.023 6.331-2.854 6.354-6.351v-0.002c0-0.020 0-0.044 0-0.068 0-0.356-0.036-0.703-0.106-1.038l0.006 0.033zM24.383 29.076c-11.933-0.014-21.602-9.684-21.616-21.616v-0.001c0.019-2.673 2.182-4.835 4.854-4.853h0.002c0.016-0 0.036-0 0.055-0 0.272 0 0.537 0.030 0.793 0.086l-0.024-0.005c0.366 0.060 0.695 0.161 1.003 0.3l-0.025-0.010 1.302 8.202c-0.628 0.528-1.404 0.901-2.257 1.050l-0.029 0.004c-0.355 0.064-0.62 0.37-0.62 0.739 0 0.088 0.015 0.172 0.043 0.25l-0.002-0.005c1.772 5.072 5.695 8.994 10.646 10.729l0.121 0.037c0.073 0.026 0.157 0.041 0.245 0.041 0.368 0 0.674-0.265 0.737-0.615l0.001-0.005c0.153-0.882 0.526-1.658 1.061-2.295l-0.006 0.007 8.201 1.303c0.133 0.294 0.237 0.636 0.296 0.994l0.003 0.024c0.046 0.219 0.073 0.471 0.073 0.729 0 0.018-0 0.035-0 0.053l0-0.003c-0.016 2.675-2.179 4.84-4.852 4.859h-0.002z"/></symbol><symbol viewBox="0 0 32 32" id="phone_1" xmlns="http://www.w3.org/2000/svg"><circle cx="16" cy="16" r="15"/><path d="M16.9497 9.94048C16.9419 9.93977 16.9333 9.93977 16.9248 9.93977C16.6298 9.93977 16.3904 10.1792 16.3904 10.4742C16.3904 10.7585 16.6127 10.9915 16.8934 11.0079H16.8948C19.4123 11.1725 21.3918 13.2546 21.3918 15.7985C21.3918 15.931 21.3861 16.0621 21.3762 16.1918L21.3776 16.1747C21.3776 16.4697 21.617 16.7091 21.912 16.7091C22.207 16.7091 22.4464 16.4697 22.4464 16.1747C22.4529 16.0728 22.4564 15.9538 22.4564 15.8334C22.4564 12.7124 20.0358 10.1564 16.9697 9.9412L16.9511 9.94048H16.9497ZM16.897 7.17146C17.2169 7.18713 24.7338 7.6617 24.7338 16.1747C24.7338 16.4697 24.9732 16.7091 25.2682 16.7091C25.5632 16.7091 25.8026 16.4697 25.8026 16.1747C25.8133 16.0051 25.8197 15.8077 25.8197 15.6082C25.8197 10.5782 21.9213 6.45818 16.9804 6.10617L16.9497 6.10475C16.9433 6.10475 16.9362 6.10403 16.929 6.10403C16.6419 6.10403 16.4075 6.32778 16.3896 6.60996V6.61138C16.3889 6.61922 16.3889 6.62848 16.3889 6.63775C16.3889 6.92348 16.6134 7.15721 16.8956 7.17146H16.897ZM25.928 21.7085C25.8504 21.2275 25.69 20.7957 25.462 20.4095L25.4713 20.4266C25.39 20.2941 25.2568 20.2007 25.1 20.1751L25.0972 20.1743L18.7062 19.1596C18.6812 19.1554 18.652 19.1532 18.6228 19.1532C18.4753 19.1532 18.3414 19.2124 18.2444 19.3086C17.7627 19.7931 17.3936 20.3888 17.1784 21.0551L17.1699 21.0864C14.3082 19.9178 12.0815 17.6911 10.9407 14.9049L10.9136 14.8301C11.6105 14.6064 12.2062 14.2365 12.69 13.7548C12.7869 13.6579 12.8468 13.524 12.8468 13.3765C12.8468 13.3473 12.8446 13.3188 12.8396 13.291L12.8404 13.2938L11.8249 6.90282C11.7993 6.74321 11.7059 6.60924 11.5755 6.52944L11.5734 6.52801C11.2136 6.31353 10.7939 6.15605 10.3449 6.08194L10.3243 6.07909C10.0998 6.02922 9.84188 6 9.57752 6C9.5597 6 9.54189 6 9.52407 6.00071H9.52692H9.52265C7.03081 6.01781 5.01496 8.03509 5 10.5262V10.5276C5.01069 19.6207 12.3786 26.9893 21.4709 27H21.4724C23.9663 26.9836 25.9836 24.9663 26 22.4745V22.4731C26 22.4588 26 22.4417 26 22.4246C26 22.1709 25.9743 21.9237 25.9245 21.685L25.9287 21.7085H25.928ZM21.4716 25.9312C12.9686 25.9212 6.07882 19.0307 6.06885 10.5283C6.08239 8.62366 7.62366 7.08239 9.52764 7.06956H9.52906C9.54046 7.06956 9.55471 7.06956 9.56825 7.06956C9.76207 7.06956 9.9509 7.09094 10.1333 7.13084L10.1162 7.12728C10.377 7.17003 10.6114 7.242 10.8309 7.34105L10.8131 7.33392L11.7409 13.1784C11.2934 13.5546 10.7404 13.8204 10.1326 13.9266L10.1119 13.9294C9.85898 13.975 9.67015 14.1931 9.67015 14.456C9.67015 14.5187 9.68084 14.5786 9.70079 14.6341L9.69937 14.6306C10.962 18.2447 13.7574 21.0394 17.2853 22.2757L17.3716 22.3021C17.4236 22.3206 17.4834 22.3313 17.5461 22.3313C17.8084 22.3313 18.0264 22.1424 18.0713 21.893L18.072 21.8895C18.181 21.261 18.4468 20.7081 18.828 20.2541L18.8238 20.2591L24.6675 21.1876C24.7623 21.3971 24.8364 21.6408 24.8784 21.8959L24.8806 21.913C24.9133 22.0691 24.9326 22.2486 24.9326 22.4325C24.9326 22.4453 24.9326 22.4574 24.9326 22.4702V22.4681C24.9212 24.3742 23.3799 25.9169 21.4752 25.9304H21.4738L21.4716 25.9312Z"/></symbol><symbol viewBox="0 0 80 80" id="phone_2" xmlns="http://www.w3.org/2000/svg"><path fill-rule="evenodd" clip-rule="evenodd" d="M67.648 34.2863C69.3003 33.0738 70.191 31.5094 70.221 29.9125C70.2716 27.2143 68.454 22.3167 56.836 17.0432C45.4376 11.8692 35.2903 11.7909 22.7551 16.8655C16.4383 19.4227 13.2506 21.916 11.6192 24.0403C10.0337 26.1049 9.80844 27.9609 9.77754 29.6054C9.74764 31.1969 10.5736 32.7559 12.1655 33.976C13.7595 35.1977 16.0533 36.0097 18.6744 36.0247C19.7871 36.031 20.4574 35.7063 20.9172 35.2737C21.4154 34.8043 21.8072 34.073 22.0842 33.0534C22.5656 31.2817 22.588 29.1437 22.6093 27.1205C22.6133 26.7412 22.6172 26.3659 22.6241 25.9978C22.6298 25.6929 22.7251 25.3965 22.8979 25.1453C24.5415 22.7571 27.4334 21.1387 30.6148 20.1175C33.8363 19.0834 37.5713 18.5909 41.1813 18.6116C44.785 18.6323 48.362 19.1651 51.2516 20.2561C54.0796 21.3237 56.5996 23.0679 57.44 25.7439C57.4903 25.904 57.5143 26.0712 57.511 26.239C57.504 26.6074 57.494 26.9828 57.4836 27.3622C57.429 29.3855 57.3713 31.5215 57.7853 33.2957C58.0236 34.3167 58.3853 35.0417 58.8546 35.5053C59.2843 35.93 59.9303 36.262 61.0433 36.2683C63.6643 36.2833 65.9966 35.498 67.648 34.2863ZM69.4883 36.7943C67.252 38.4353 64.2546 39.3977 61.0256 39.379C59.2136 39.3687 57.752 38.789 56.6683 37.718C55.6243 36.6867 55.0663 35.3327 54.756 34.0027C54.241 31.7959 54.317 29.1712 54.3753 27.172C54.3823 26.9242 54.3893 26.686 54.395 26.4594C53.9046 25.2341 52.5273 24.0628 50.153 23.1663C47.701 22.2406 44.5113 21.7415 41.1636 21.7223C37.8226 21.7031 34.422 22.1624 31.5655 23.0794C28.891 23.9378 26.8708 25.1388 25.7273 26.5521L25.7227 27.0485C25.7056 29.0482 25.6832 31.6714 25.0861 33.869C24.7263 35.1933 24.1207 36.53 23.0496 37.5383C21.9399 38.583 20.4689 39.1457 18.6565 39.1353C15.4278 39.1167 12.4588 38.12 10.2732 36.445C8.08548 34.7683 6.61488 32.3422 6.66738 29.547C6.70484 27.551 7.00488 24.9416 9.15211 22.1456C11.2535 19.4092 15.0061 16.6466 21.5878 13.9821C34.8493 8.6134 45.8866 8.6569 58.1216 14.2106C70.1376 19.6647 73.417 25.3881 73.331 29.9709C73.2786 32.7607 71.7233 35.1543 69.4883 36.7943ZM27.701 35.546C27.701 31.1411 31.2718 27.5703 35.6766 27.5703H44.6113C49.016 27.5703 52.587 31.1411 52.587 35.546C52.587 37.4487 53.8043 39.138 55.6093 39.7397L57.175 40.2613C60.8043 41.4713 63.2523 44.8677 63.2523 48.693V57.7887C63.2523 62.6973 59.273 66.6767 54.3643 66.6767H25.9234C21.0149 66.6767 17.0357 62.6973 17.0357 57.7887V48.693C17.0357 44.8677 19.4836 41.4713 23.1129 40.2613L24.6784 39.7397C26.4835 39.138 27.701 37.4487 27.701 35.546ZM35.6766 31.1255C33.2352 31.1255 31.2561 33.1046 31.2561 35.546C31.2561 38.979 29.0594 42.0267 25.8026 43.1123L24.2371 43.634C22.0595 44.36 20.5908 46.3977 20.5908 48.693V57.7887C20.5908 60.734 22.9783 63.1217 25.9234 63.1217H54.3643C57.3096 63.1217 59.697 60.734 59.697 57.7887V48.693C59.697 46.3977 58.2283 44.36 56.0506 43.634L54.4853 43.1123C51.2283 42.0267 49.0316 38.979 49.0316 35.546C49.0316 33.1046 47.0526 31.1255 44.6113 31.1255H35.6766ZM34.811 50.6783C34.811 47.7333 37.1986 45.3457 40.1436 45.3457C43.089 45.3457 45.4763 47.7333 45.4763 50.6783C45.4763 53.6237 43.089 56.011 40.1436 56.011C37.1986 56.011 34.811 53.6237 34.811 50.6783ZM40.1436 41.7907C35.235 41.7907 31.2559 45.7697 31.2559 50.6783C31.2559 55.587 35.235 59.5663 40.1436 59.5663C45.0523 59.5663 49.0313 55.587 49.0313 50.6783C49.0313 45.7697 45.0523 41.7907 40.1436 41.7907Z"/></symbol><symbol viewBox="0 0 32 32" id="search" xmlns="http://www.w3.org/2000/svg"><path d="M12.5027 4.72522C9.71955 4.72522 7.10666 6.21322 5.68399 8.60878C5.55866 8.81944 5.62799 9.09278 5.83911 9.21766C5.91022 9.26033 5.98844 9.28033 6.06577 9.28033C6.21777 9.28033 6.36533 9.203 6.44844 9.063C7.71199 6.93589 10.0315 5.61411 12.5027 5.61411C12.7484 5.61411 12.9471 5.41544 12.9471 5.16966C12.9471 4.92389 12.7484 4.72522 12.5027 4.72522Z"/><path d="M5.31844 10.5092C5.07977 10.4541 4.84066 10.6017 4.78466 10.8408C4.65177 11.4079 4.57666 11.7594 4.57666 12.3905C4.57666 12.6363 4.77577 12.835 5.0211 12.835C5.26688 12.835 5.46555 12.6363 5.46555 12.3905C5.46555 11.855 5.52555 11.5754 5.64999 11.043C5.70599 10.8039 5.55755 10.5652 5.31844 10.5092Z"/><path d="M29.6058 25.6857L22.4315 18.5119C22.2569 18.3373 22.0813 18.2133 21.9115 18.1222C22.8507 16.5133 23.3915 14.6444 23.3915 12.6506C23.3915 6.64616 18.5071 1.76172 12.5027 1.76172C6.49866 1.76172 1.61377 6.64616 1.61377 12.6506C1.61377 18.6551 6.49866 23.539 12.5027 23.539C14.6404 23.539 16.6342 22.9177 18.3178 21.8497C18.4089 22.0004 18.5231 22.1457 18.66 22.2826L25.8342 29.4573C26.3391 29.9608 27.0075 30.2377 27.7204 30.2377C28.4329 30.2377 29.1018 29.9608 29.6062 29.4573C30.1098 28.9537 30.3867 28.2835 30.3867 27.5719C30.3862 26.8595 30.1093 26.1902 29.6058 25.6857ZM3.39155 12.6511C3.39155 7.62705 7.47866 3.53994 12.5027 3.53994C17.5271 3.53994 21.6138 7.62705 21.6138 12.6511C21.6138 17.6755 17.5262 21.7617 12.5027 21.7617C7.47866 21.7617 3.39155 17.6755 3.39155 12.6511ZM28.3484 28.2004C28.012 28.5355 27.4267 28.5355 27.0907 28.2004L19.9169 21.0262C19.8547 20.9644 19.8315 20.923 19.8284 20.923C19.8298 20.9039 19.8542 20.7208 20.3622 20.2137C20.8689 19.7057 21.052 19.6826 21.0578 19.679C21.0693 19.6826 21.1107 19.7057 21.1747 19.7693L28.348 26.943C28.5164 27.1115 28.6084 27.3346 28.6084 27.5724C28.608 27.8088 28.516 28.0319 28.3484 28.2004Z"/></symbol><symbol viewBox="0 0 24 24" id="triangle" xmlns="http://www.w3.org/2000/svg"><path d="M21,21H3L12,3Z"/></symbol></svg>