<?xml version="1.0" encoding="utf-8"?><!DOCTYPE svg PUBLIC "-//W3C//DTD SVG 1.1//EN" "http://www.w3.org/Graphics/SVG/1.1/DTD/svg11.dtd"><svg xmlns="http://www.w3.org/2000/svg" xmlns:xlink="http://www.w3.org/1999/xlink"><symbol fill="none" viewBox="0 0 32 32" id="cart" xmlns="http://www.w3.org/2000/svg"><g clip-path="url(#aa)" stroke="#fff" stroke-width="2"><path d="M10.083 0h21.043c.578 0 .998.771.84 1.568l-2.433 13.236c-.105.548-.455.921-.84.921H9.856C8.84 15.725 8 16.895 8 18.363 8 19.806 8.823 21 9.856 21h19.747M8 12 6.503 1.037C6.417.421 6.132 0 5.818 0H1.483C.67 0 0 1.29 0 2.916c0 1.598.656 2.916 1.483 2.916h3.522" stroke-miterlimit="10" stroke-linecap="round" stroke-linejoin="round"/><path d="M29 28a3 3 0 1 1-6 0 3 3 0 0 1 6 0ZM16 28a3 3 0 1 1-6 0 3 3 0 0 1 6 0Z"/></g><defs><clipPath id="aa"><path fill="#fff" d="M0 0h32v32H0z"/></clipPath></defs></symbol><symbol viewBox="0 0 367.467 367.467" xml:space="preserve" id="copyright_0" xmlns="http://www.w3.org/2000/svg"><path d="M183.73.018C82.427.018 0 82.404 0 183.733c0 101.289 82.427 183.716 183.73 183.716 101.315 0 183.737-82.427 183.737-183.716C367.467 82.404 285.045.018 183.73.018zm0 326.5c-78.743 0-142.798-64.052-142.798-142.784 0-78.766 64.055-142.817 142.798-142.817 78.752 0 142.807 64.052 142.807 142.817-.001 78.732-64.056 142.784-142.807 142.784z"/><path d="M244.036 217.014c-11.737 20.141-33.562 32.635-56.956 32.635-36.329 0-65.921-29.585-65.921-65.915 0-36.36 29.592-65.955 65.921-65.955 23.395 0 45.219 12.54 56.956 32.641l1.517 2.627h44.28l-2.658-7.129c-7.705-20.413-21.225-37.769-39.122-50.157-17.942-12.42-39.017-19.009-60.973-19.009-58.981 0-106.946 48.006-106.946 106.982 0 58.98 47.965 106.941 106.946 106.941 21.956 0 43.03-6.567 60.973-19.006 17.897-12.391 31.417-29.741 39.122-50.154l2.658-7.133h-44.28l-1.517 2.632z"/></symbol><symbol viewBox="0 0 276.715 276.715" xml:space="preserve" id="copyright_1" xmlns="http://www.w3.org/2000/svg"><path d="M138.357 0C62.066 0 0 62.066 0 138.357s62.066 138.357 138.357 138.357 138.357-62.066 138.357-138.357S214.648 0 138.357 0zm0 258.715C71.992 258.715 18 204.723 18 138.357S71.992 18 138.357 18s120.357 53.992 120.357 120.357-53.991 120.358-120.357 120.358z"/><path d="M194.798 160.903a9.003 9.003 0 0 0-12.432 2.732c-8.694 13.593-23.503 21.708-39.614 21.708-25.908 0-46.985-21.078-46.985-46.986s21.077-46.986 46.985-46.986c15.633 0 30.2 7.747 38.968 20.723a9 9 0 0 0 14.914-10.078c-12.118-17.937-32.262-28.645-53.882-28.645-35.833 0-64.985 29.152-64.985 64.986s29.152 64.986 64.985 64.986c22.281 0 42.759-11.218 54.778-30.009a9 9 0 0 0-2.732-12.431z"/></symbol><symbol fill="none" viewBox="0 0 32 32" id="login" xmlns="http://www.w3.org/2000/svg"><path fill-rule="evenodd" clip-rule="evenodd" d="M25 25.5c0 2.485-2.198 4.5-4.909 4.5h-8.182C9.198 30 7 27.985 7 25.5v-3c0-2.126 1.613-3.896 3.775-4.367C12.25 19.304 14.05 20 16 20c1.95 0 3.75-.696 5.225-1.867C23.387 18.604 25 20.374 25 22.5v3ZM9 10c0-4.418 3.134-8 7-8s7 3.582 7 8-3.134 8-7 8-7-3.582-7-8Zm13.951 6.353C24.23 14.625 25 12.412 25 10c0-5.522-4.029-10-9-10S7 4.478 7 10c0 2.412.77 4.625 2.049 6.353C6.699 17.165 5 19.373 5 22v4a6 6 0 0 0 6 6h10a6 6 0 0 0 6-6v-4c0-2.627-1.699-4.835-4.049-5.647Z" fill="#fff"/></symbol><symbol fill="none" viewBox="0 0 32 32" id="search" xmlns="http://www.w3.org/2000/svg"><path d="M12.503 4.725A7.967 7.967 0 0 0 5.684 8.61a.444.444 0 1 0 .764.454 7.075 7.075 0 0 1 6.055-3.449.444.444 0 1 0 0-.889ZM5.318 10.51a.445.445 0 0 0-.533.33c-.133.568-.208.92-.208 1.55a.444.444 0 1 0 .889 0c0-.535.06-.815.184-1.347a.444.444 0 0 0-.332-.534Z" fill="#fff"/><path d="m29.606 25.686-7.175-7.174a2.205 2.205 0 0 0-.52-.39 10.82 10.82 0 0 0 1.48-5.471c0-6.005-4.884-10.89-10.888-10.89s-10.89 4.885-10.89 10.89c0 6.004 4.886 10.888 10.89 10.888a10.82 10.82 0 0 0 5.815-1.69c.09.151.205.297.342.434l7.174 7.174c.505.504 1.174.78 1.886.78a2.65 2.65 0 0 0 1.886-.78 2.65 2.65 0 0 0 .78-1.885c0-.712-.277-1.382-.78-1.886ZM3.392 12.65c0-5.024 4.087-9.111 9.11-9.111 5.025 0 9.112 4.087 9.112 9.111 0 5.024-4.088 9.11-9.111 9.11-5.024 0-9.111-4.085-9.111-9.11Zm24.956 15.55a.912.912 0 0 1-1.257 0l-7.174-7.175c-.062-.062-.086-.103-.089-.103.002-.02.026-.202.534-.71.507-.507.69-.53.696-.534a.402.402 0 0 1 .117.09l7.173 7.174a.887.887 0 0 1 0 1.257Z" fill="#fff"/></symbol></svg>