<svg width="80" height="80" viewBox="0 0 80 80" fill="none" xmlns="http://www.w3.org/2000/svg">
<path d="M39.9917 2.49023C24.8335 2.49023 12.4941 14.8296 12.4941 29.9878C12.4941 56.6596 38.4415 76.9366 38.4415 76.9366C38.8844 77.29 39.4343 77.4825 40.0009 77.4825C40.5676 77.4825 41.1174 77.29 41.5603 76.9366C41.5603 76.9366 67.5077 56.6596 67.5077 29.9878C67.5076 14.8296 55.1499 2.49023 39.9917 2.49023ZM39.9917 7.49146C52.4477 7.49146 62.5064 17.5318 62.5064 29.9878C62.5065 51.8076 42.7484 69.0467 40.0101 71.3817C37.285 69.0584 17.4954 51.8161 17.4954 29.9878C17.4954 17.5318 27.5357 7.49146 39.9917 7.49146Z" fill="#B9B9B9"/>
<path d="M39.9919 17.494C33.118 17.494 27.4981 23.1139 27.498 29.9878C27.498 36.8618 33.1179 42.5001 39.9919 42.5001C46.8659 42.5001 52.5042 36.8618 52.5042 29.9878C52.5042 23.1139 46.8658 17.494 39.9919 17.494ZM39.9919 22.4952C44.1636 22.4952 47.503 25.8161 47.503 29.9878C47.503 34.1596 44.1637 37.4989 39.9919 37.4989C35.8201 37.4989 32.4993 34.1596 32.4993 29.9878C32.4993 25.8161 35.8202 22.4952 39.9919 22.4952Z" fill="#B9B9B9"/>
</svg>
