<svg width="800" height="800" viewBox="0 0 800 800" fill="none" xmlns="http://www.w3.org/2000/svg">
<path d="M733.333 466.663C733.19 426.317 718.417 387.383 691.75 357.103C665.083 326.82 628.34 307.237 588.333 301.992C572.56 257.822 541.763 220.607 501.33 196.84C460.897 173.074 413.397 164.266 367.13 171.971C320.866 179.675 278.78 203.4 248.23 238.987C217.68 274.575 200.609 319.767 200 366.663C164.638 366.663 130.724 380.707 105.719 405.71C80.714 430.717 66.6666 464.637 66.6666 499.997C66.6666 535.36 80.714 569.273 105.719 594.277C130.724 619.283 164.638 633.33 200 633.33H366.667" stroke="#0A7F6E" stroke-width="50" stroke-linecap="round" stroke-linejoin="round"/>
<path d="M633.333 766.667V500" stroke="#F35200" stroke-width="50" stroke-linecap="round" stroke-linejoin="round"/>
<path d="M500 633.333H766.667" stroke="#F35200" stroke-width="50" stroke-linecap="round" stroke-linejoin="round"/>
</svg>
