<svg width="800" height="800" viewBox="0 0 800 800" fill="none" xmlns="http://www.w3.org/2000/svg">
<path d="M536.562 184.297C536.562 190.244 538.785 195.947 542.741 200.152C546.697 204.356 552.062 206.719 557.656 206.719C563.251 206.719 568.616 204.356 572.572 200.152C576.528 195.947 578.75 190.244 578.75 184.297C578.75 178.35 576.528 172.647 572.572 168.442C568.616 164.237 563.251 161.875 557.656 161.875C552.062 161.875 546.697 164.237 542.741 168.442C538.785 172.647 536.562 178.35 536.562 184.297Z" fill="#F35200"/>
<path d="M536.562 360.391C536.562 366.337 538.785 372.04 542.741 376.245C546.697 380.45 552.062 382.812 557.656 382.812C563.251 382.812 568.616 380.45 572.572 376.245C576.528 372.04 578.75 366.337 578.75 360.391C578.75 354.444 576.528 348.741 572.572 344.536C568.616 340.331 563.251 337.969 557.656 337.969C552.062 337.969 546.697 340.331 542.741 344.536C538.785 348.741 536.562 354.444 536.562 360.391Z" fill="#F35200"/>
<path d="M604.922 109.609H140.781C110.625 109.609 86.0938 134.141 86.0938 164.297V204.375C86.0938 234.531 110.625 259.063 140.781 259.063H604.922C635.078 259.063 659.609 234.531 659.609 204.375V164.297C659.609 134.141 635.078 109.609 604.922 109.609ZM628.359 204.375C628.359 217.266 617.812 227.813 604.922 227.813H140.781C127.891 227.813 117.344 217.266 117.344 204.375V164.297C117.344 151.406 127.891 140.859 140.781 140.859H604.922C617.812 140.859 628.359 151.406 628.359 164.297V204.375Z" fill="#0A7F6E"/>
<path d="M348.828 176.484H161.797C157.5 176.484 153.984 180 153.984 184.297C153.984 188.594 157.5 192.109 161.797 192.109H348.828C353.125 192.109 356.641 188.594 356.641 184.297C356.641 180 353.125 176.484 348.828 176.484Z" fill="#F35200"/>
<path d="M445.156 595.547C442.734 591.953 440.547 588.203 438.516 584.375L421.016 584.844H420.234C415.234 584.844 410.234 583.672 405.781 581.328C404.922 580.937 404.141 580.469 403.359 579.922H140.781C127.891 579.922 117.344 569.375 117.344 556.484V516.406C117.344 503.516 127.891 492.969 140.781 492.969H398.203C399.687 491.875 401.328 490.937 403.047 490.156C406.797 488.437 410.859 487.5 415.078 487.422L431.719 486.953C432.031 486.094 432.344 485.312 432.656 484.453C433.984 481.172 435.391 477.891 437.031 474.844C438.984 471.016 441.25 467.187 443.75 463.437L442.578 461.641H140.781C110.625 461.641 86.0938 486.172 86.0938 516.328V556.406C86.0938 586.562 110.625 611.094 140.781 611.094H453.047L454.609 608.047C451.172 604.141 448.047 599.922 445.156 595.547Z" fill="#0A7F6E"/>
<path d="M713.672 546.25L710.937 509.297C710.547 503.906 708.672 498.672 705.547 494.141C702.578 489.844 698.516 486.328 693.906 483.984C689.453 481.719 684.453 480.469 679.453 480.469H678.672L661.172 480.937C656.719 472.5 651.328 464.531 645.078 457.188L652.266 443.203C654.141 439.531 655.234 435.547 655.469 431.406C655.703 427.5 655.078 423.594 653.75 419.844C652.734 417.031 651.328 414.375 649.609 411.953C655.937 403.047 659.609 392.187 659.609 380.469V340.391C659.609 310.234 635.078 285.703 604.922 285.703H140.781C110.625 285.703 86.0938 310.234 86.0938 340.391V380.469C86.0938 410.625 110.625 435.156 140.781 435.156H429.141C429.219 436.25 429.375 437.266 429.609 438.359C430.391 442.422 432.031 446.25 434.375 449.687L442.578 461.719L443.75 463.516C441.25 467.266 438.984 471.016 437.031 474.922C435.469 477.969 433.984 481.25 432.656 484.531C432.344 485.391 432.031 486.172 431.719 487.031L415.078 487.5C410.859 487.578 406.797 488.516 403.047 490.234C401.328 491.016 399.687 491.953 398.203 493.047C396.484 494.297 394.844 495.703 393.438 497.344C388.047 503.359 385.391 511.094 386.016 519.141L388.75 556.094C389.141 561.484 391.016 566.719 394.141 571.25C396.562 574.766 399.766 577.734 403.359 580.078C404.141 580.547 404.922 581.016 405.781 581.484C410.234 583.75 415.234 585 420.234 585H421.016L438.516 584.531C440.547 588.359 442.734 592.109 445.156 595.703C448.047 600.078 451.172 604.219 454.609 608.281L453.047 611.328L447.422 622.266C445.547 625.937 444.453 629.922 444.219 634.062C443.984 637.969 444.609 641.875 445.937 645.625C448.594 653.203 454.062 659.375 461.328 663.125L495.703 680.781C500.234 683.047 505.234 684.297 510.156 684.297C513.125 684.297 516.016 683.906 518.828 683.047C522.656 681.953 526.172 680.078 529.219 677.656C532.422 675.078 535.078 671.875 536.953 668.203L544.141 654.219C547.734 654.531 551.328 654.687 554.922 654.687C560.937 654.687 566.875 654.297 572.812 653.438L582.656 667.891C585.625 672.266 589.688 675.859 594.453 678.281C598.906 680.547 603.984 681.797 608.984 681.797H609.531C615 681.719 620.313 680.156 624.922 677.344L656.563 657.969C663.516 653.75 668.203 647.031 669.922 639.141C670.781 635.234 670.781 631.172 670 627.187C669.219 623.125 667.578 619.297 665.234 615.859L655.859 602.109C658.359 598.359 660.625 594.609 662.578 590.703C664.531 586.875 666.328 582.812 667.891 578.594L684.531 578.125C688.75 578.047 692.812 577.109 696.562 575.391C700.234 573.672 703.516 571.328 706.172 568.359C711.641 562.109 714.297 554.375 713.672 546.25ZM117.344 380.469V340.391C117.344 327.5 127.891 316.953 140.781 316.953H604.922C617.812 316.953 628.359 327.5 628.359 340.391V380.469C628.359 385.859 626.562 390.781 623.516 394.766L603.984 384.766C599.453 382.5 594.453 381.25 589.531 381.25C586.562 381.25 583.672 381.641 580.859 382.5C577.031 383.594 573.516 385.469 570.469 387.891C567.266 390.469 564.609 393.672 562.734 397.344L559.375 403.906H521.25L517.031 397.734C514.062 393.359 510 389.766 505.234 387.344C500.703 385.078 495.703 383.828 490.703 383.828H490.156C484.688 383.906 479.375 385.469 474.766 388.281L449.219 403.906H140.781C127.891 403.906 117.344 393.359 117.344 380.469ZM686.797 550.547C686.094 551.328 685.156 551.719 683.906 551.719L659.609 552.344L648.359 552.656L645.703 561.953C645.156 563.828 644.609 565.703 643.984 567.5C642.656 571.328 641.094 575.078 639.297 578.516C636.719 583.594 633.438 588.594 629.609 593.437L629.219 593.906L623.594 600.938L627.266 606.406L643.594 630.391C644.062 631.094 644.531 632.187 644.297 633.437C644.141 634.219 643.594 634.922 642.891 635.391L611.25 654.687C610.625 655.078 609.844 655.312 608.984 655.312C608.125 655.312 607.266 655.078 606.406 654.687C605.547 654.297 604.844 653.672 604.375 652.891L584.766 624.141L576.094 626.016C569.141 627.5 562.031 628.281 554.922 628.281C549.531 628.281 544.062 627.812 538.672 627.031L529.297 625.547L513.594 656.172C513.047 657.266 511.719 657.969 510.156 657.969C509.297 657.969 508.437 657.734 507.656 657.344L473.281 639.687C472.031 639.062 471.172 638.047 470.703 636.953C470.469 636.406 470.234 635.234 470.781 634.141L482.5 611.25L486.484 603.516L479.766 596.797C479.375 596.406 478.984 596.016 478.672 595.625C473.984 590.781 469.844 585.547 466.328 580C463.438 575.469 460.859 570.781 458.75 565.859L455.234 557.734L420.312 558.672C419.453 558.672 418.594 558.437 417.812 558.047C416.172 557.187 415.078 555.703 415 554.141L412.266 517.187C412.187 516.328 412.422 515.547 413.047 514.922C413.75 514.141 414.688 513.75 415.938 513.75L451.484 512.813L454.062 503.516C455.078 499.922 456.25 496.406 457.656 493.125C458.516 491.016 459.453 488.984 460.469 486.953C460.859 486.172 461.328 485.391 461.719 484.609C464.062 480.312 466.953 476.094 470.156 472.031L476.172 464.453L474.375 461.797L456.25 435.234L456.094 435.078C455.391 434.063 455.156 433.047 455.391 432.031C455.547 431.25 456.094 430.547 456.797 430.078L488.438 410.703C489.063 410.312 489.844 410.078 490.703 410.078C491.562 410.078 492.422 410.312 493.281 410.703C494.141 411.094 494.844 411.719 495.312 412.5L510.781 435.156L514.922 441.25L523.594 439.375C530.547 437.891 537.656 437.109 544.766 437.109C550.156 437.109 555.625 437.578 561.016 438.359L570.391 439.844L572.812 435.078L586.094 409.219C586.641 408.125 587.969 407.422 589.531 407.422C590.391 407.422 591.25 407.656 592.031 408.047L626.406 425.703C627.969 426.484 629.063 427.969 629.219 429.453C629.297 430.078 629.219 430.703 628.906 431.25L613.203 461.875L613.828 462.5L619.922 468.672C626.641 475.469 632.266 482.891 636.719 491.016C638.281 493.828 639.688 496.641 640.938 499.609L643.906 506.406L644.453 507.734L658.828 507.344L679.453 506.797C680.313 506.797 681.172 507.031 681.953 507.422C683.594 508.281 684.687 509.766 684.766 511.328L687.5 548.281C687.578 549.141 687.344 549.922 686.797 550.547Z" fill="#0A7F6E"/>
<path d="M540.781 461.719H551.172C547.656 461.484 544.219 461.484 540.781 461.719Z" fill="#F35200"/>
<path d="M616.953 511.484C614.688 504.922 611.406 498.75 607.422 493.125C605.859 490.937 604.219 488.906 602.422 486.875C601.719 486.094 600.938 485.234 600.156 484.453C594.453 478.594 587.813 473.672 580.391 469.844C572.031 465.547 563.047 462.891 553.75 461.875L551.172 461.641H540.781C535.547 462.031 530.391 462.891 525.313 464.453C516.016 467.187 507.656 471.641 500.391 477.656C497.891 479.766 495.547 482.031 493.359 484.375C490.938 487.031 488.828 489.844 486.875 492.891C485.703 494.766 484.531 496.719 483.516 498.672C479.375 506.797 476.953 515.547 476.25 524.687C475.547 534.141 476.875 543.516 480.078 552.656C483.281 561.719 488.125 570 494.609 577.266C495.391 578.203 496.25 579.062 497.109 579.922C502.813 585.703 509.375 590.547 516.641 594.297C517.5 594.766 518.359 595.156 519.297 595.547C526.953 599.062 535 601.328 543.281 602.266C552.891 603.281 562.5 602.422 571.719 599.687C575.469 598.594 578.984 597.187 582.422 595.547C587.5 593.125 592.266 590.078 596.641 586.406C599.063 584.375 601.328 582.187 603.438 579.922C607.422 575.547 610.781 570.703 613.516 565.391C617.656 557.266 620.078 548.516 620.781 539.375C621.484 530 620.156 520.625 616.953 511.484ZM604.453 538.281C603.984 545.156 602.109 551.797 598.984 557.969C595.859 564.141 591.563 569.453 586.25 573.906C583.438 576.25 580.391 578.281 577.109 580C573.984 581.641 570.703 582.969 567.188 583.984C560 586.094 552.578 586.797 545.078 585.937C537.969 585.156 531.172 583.125 524.688 579.922C524.531 579.844 524.375 579.766 524.141 579.687C517.578 576.328 511.719 571.797 506.875 566.406C501.875 560.781 498.047 554.375 495.625 547.344C493.203 540.312 492.188 533.125 492.734 525.937C493.203 519.062 495.078 512.422 498.203 506.25C500.781 501.25 504.063 496.797 508.047 492.969C508.984 492.031 509.922 491.172 510.938 490.312C513.594 488.047 516.563 486.094 519.609 484.453C522.891 482.734 526.328 481.25 530 480.156C537.188 478.047 544.609 477.344 552.109 478.203C559.375 478.984 566.406 481.094 572.969 484.453C577.5 486.797 581.641 489.609 585.391 492.969C587.109 494.453 588.75 496.094 590.234 497.812C595.234 503.437 599.063 509.844 601.484 516.875C603.984 523.906 604.922 531.094 604.453 538.281Z" fill="#F35200"/>
</svg>
