<svg width="800" height="800" viewBox="0 0 800 800" fill="none" xmlns="http://www.w3.org/2000/svg">
<path d="M629.687 361.016C629.687 299.766 605.859 242.188 562.5 198.906C519.141 155.625 461.641 131.719 400.391 131.719C339.141 131.719 281.562 155.547 238.281 198.906C195 242.266 171.094 299.766 171.094 361.016C171.094 422.266 194.922 479.844 238.281 523.125C258.516 543.359 281.875 559.375 307.266 570.625L255.625 685.703C253.125 691.25 253.594 697.656 256.953 702.734C260.234 707.812 265.859 710.859 271.953 710.859H272.031L521.25 710.234C524.141 710.234 526.875 709.375 529.219 708.047C536.875 704.453 540.312 695.312 536.797 687.5L485.781 573.906C514.219 562.5 540.312 545.391 562.656 523.047C605.859 479.844 629.687 422.266 629.687 361.016ZM498.594 679.141L292.5 679.609L336.562 581.406C357.031 587.266 378.437 590.391 400.312 590.391C419.219 590.391 437.812 588.125 455.703 583.672L498.594 679.141ZM400.391 559.141C291.172 559.141 202.344 470.234 202.344 361.016C202.344 251.797 291.172 162.969 400.391 162.969C509.609 162.969 598.437 251.797 598.437 361.016C598.437 470.234 509.609 559.141 400.391 559.141ZM221.719 164.063C223.516 164.063 225.391 163.438 226.875 162.109C230.703 158.828 234.609 155.547 238.594 152.422C242.031 149.766 242.578 144.844 240 141.484C237.344 138.047 232.422 137.5 229.062 140.078C224.844 143.359 220.703 146.797 216.641 150.312C213.359 153.125 213.047 158.125 215.859 161.328C217.344 163.203 219.531 164.063 221.719 164.063ZM184.297 196.016C185.781 197.187 187.5 197.734 189.219 197.734C191.484 197.734 193.75 196.719 195.312 194.844C198.516 190.937 201.797 187.031 205.234 183.359C208.125 180.156 207.891 175.234 204.687 172.344C201.484 169.453 196.562 169.688 193.672 172.891C190.078 176.875 186.562 180.937 183.203 185.078C180.469 188.437 180.937 193.359 184.297 196.016ZM301.406 115.703C302.344 115.703 303.281 115.547 304.219 115.156C308.906 113.359 313.672 111.641 318.516 110.078C322.656 108.75 324.844 104.297 323.516 100.234C322.187 96.1719 317.734 93.9063 313.672 95.2344C308.594 96.875 303.516 98.6719 298.594 100.625C294.609 102.188 292.578 106.719 294.141 110.781C295.312 113.828 298.281 115.703 301.406 115.703ZM393.047 97.1875C395.469 97.1094 397.969 97.1094 400.391 97.1094C402.969 97.1094 405.625 97.1094 408.203 97.1875H408.437C412.656 97.1875 416.094 93.8281 416.25 89.6094C416.406 85.3125 412.969 81.7188 408.672 81.5625C405.937 81.4844 403.125 81.4062 400.391 81.4062C397.812 81.4062 395.156 81.4063 392.578 81.4844C388.281 81.6406 384.844 85.2344 385 89.5313C385.078 93.9063 388.672 97.3438 393.047 97.1875ZM438.437 99.8438C443.437 100.547 448.437 101.406 453.359 102.422C453.906 102.5 454.375 102.578 454.922 102.578C458.594 102.578 461.797 100 462.578 96.3281C463.437 92.1094 460.703 87.9688 456.484 87.1094C451.25 86.0156 445.937 85.1563 440.625 84.375C436.328 83.75 432.422 86.7188 431.797 91.0156C431.172 95.3125 434.141 99.2188 438.437 99.8438ZM346.25 102.5C346.797 102.5 347.266 102.422 347.812 102.344C352.734 101.328 357.812 100.469 362.734 99.7656C367.031 99.1406 370 95.2344 369.375 90.9375C368.75 86.6406 364.844 83.6719 360.547 84.2969C355.234 85.0781 349.922 85.9375 344.687 87.0313C340.469 87.8906 337.734 92.0312 338.594 96.25C339.375 99.9219 342.656 102.5 346.25 102.5ZM259.453 136.484C260.859 136.484 262.266 136.094 263.516 135.312C267.812 132.734 272.266 130.156 276.719 127.813C280.547 125.781 281.953 121.094 279.922 117.266C277.891 113.438 273.203 112.031 269.375 114.063C264.687 116.563 260 119.219 255.391 122.031C251.719 124.297 250.547 129.062 252.734 132.734C254.297 135.078 256.875 136.484 259.453 136.484ZM562.656 152.813C566.641 155.938 570.547 159.141 574.375 162.5C575.859 163.828 577.656 164.453 579.531 164.453C581.719 164.453 583.828 163.516 585.391 161.797C588.203 158.516 587.891 153.594 584.688 150.781C580.703 147.266 576.484 143.828 572.344 140.547C568.906 137.891 564.062 138.516 561.406 141.875C558.594 145.313 559.219 150.156 562.656 152.813ZM524.531 128.047C528.984 130.391 533.437 132.969 537.734 135.547C538.984 136.328 540.391 136.719 541.797 136.719C544.453 136.719 547.031 135.391 548.437 132.969C550.703 129.297 549.531 124.453 545.859 122.266C541.328 119.453 536.641 116.797 531.875 114.297C528.047 112.266 523.359 113.672 521.328 117.5C519.297 121.25 520.703 126.016 524.531 128.047ZM175.156 208.75C171.484 206.406 166.719 207.5 164.375 211.172C161.484 215.703 158.75 220.313 156.172 225C154.062 228.75 155.391 233.516 159.219 235.625C160.391 236.328 161.719 236.641 163.047 236.641C165.781 236.641 168.437 235.234 169.844 232.656C172.266 228.281 174.922 223.906 177.656 219.609C179.844 215.859 178.828 211.016 175.156 208.75ZM482.656 110.156C487.422 111.719 492.266 113.438 496.953 115.313C497.891 115.703 498.828 115.859 499.844 115.859C502.969 115.859 505.937 113.984 507.109 110.938C508.672 106.953 506.719 102.422 502.734 100.781C497.734 98.8281 492.656 97.0313 487.578 95.3125C483.516 93.9844 479.062 96.1719 477.734 100.312C476.328 104.453 478.594 108.828 482.656 110.156ZM605.859 195.313C607.422 197.188 609.687 198.203 611.953 198.203C613.672 198.203 615.391 197.656 616.875 196.484C620.234 193.75 620.781 188.828 618.047 185.469C614.687 181.328 611.172 177.188 607.578 173.281C604.687 170.078 599.766 169.844 596.562 172.734C593.359 175.625 593.125 180.547 596.016 183.75C599.375 187.5 602.656 191.406 605.859 195.313ZM644.922 225.391C642.344 220.703 639.609 216.094 636.719 211.562C634.375 207.891 629.609 206.797 625.937 209.141C622.266 211.484 621.172 216.25 623.516 219.922C626.25 224.219 628.828 228.594 631.25 232.969C632.656 235.547 635.312 236.953 638.047 236.953C639.297 236.953 640.625 236.641 641.797 235.938C645.625 233.906 647.031 229.141 644.922 225.391ZM155.859 261.562C156.094 261.016 156.328 260.391 156.562 259.844C158.203 255.859 156.328 251.25 152.344 249.609C148.359 247.969 143.75 249.844 142.109 253.828C141.797 254.531 141.484 255.313 141.25 256.016C135.781 256.953 130.937 260.703 128.984 266.25C118.359 296.641 112.969 328.516 112.969 361.016C112.969 388.906 116.953 416.562 124.844 443.047C126.875 449.844 133.047 454.219 139.844 454.219C141.328 454.219 142.812 453.984 144.297 453.594C152.578 451.172 157.266 442.422 154.844 434.141C147.812 410.547 144.219 385.938 144.219 361.016C144.219 332.031 148.984 303.672 158.437 276.563C160.391 271.25 159.141 265.625 155.859 261.562ZM671.797 266.328C669.844 260.703 665 256.953 659.531 256.094C659.297 255.547 659.062 254.922 658.828 254.375C657.187 250.391 652.578 248.516 648.594 250.156C644.609 251.797 642.734 256.406 644.375 260.391C644.531 260.859 644.687 261.25 644.922 261.719C641.641 265.781 640.391 271.406 642.266 276.719C651.719 303.75 656.484 332.187 656.484 361.172C656.484 386.094 652.891 410.703 645.859 434.297C643.437 442.578 648.125 451.25 656.406 453.75C657.891 454.219 659.375 454.375 660.859 454.375C667.578 454.375 673.828 450 675.859 443.203C683.75 416.641 687.734 389.062 687.734 361.172C687.812 328.594 682.422 296.719 671.797 266.328Z" fill="#0A7F6E" fill-opacity="0.7"/>
<path d="M400.391 198.906C310.938 198.906 238.203 271.641 238.203 361.094C238.203 450.547 310.938 523.281 400.391 523.281C489.844 523.281 562.578 450.547 562.578 361.094C562.578 271.641 489.844 198.906 400.391 198.906ZM400.391 507.578C319.609 507.578 253.828 441.875 253.828 361.016C253.828 280.234 319.531 214.453 400.391 214.453C481.172 214.453 546.953 280.156 546.953 361.016C546.953 441.875 481.172 507.578 400.391 507.578Z" fill="#F35200" fill-opacity="0.7"/>
<path d="M465.547 373.047L460.625 383.204L441.953 328.672C441.172 326.25 438.828 324.688 436.328 324.688H436.25C433.672 324.766 431.484 326.407 430.703 328.907L398.984 432.5L384.766 249.844C384.531 246.875 382.187 244.532 379.219 244.375C376.484 243.907 373.594 246.25 373.047 249.141L346.484 384.375L334.531 362.657C333.75 361.25 332.344 360.157 330.781 359.766C329.219 359.375 327.5 359.688 326.094 360.547L297.578 379.454L292.5 378.125C289.297 377.188 286.094 379.141 285.234 382.344C284.375 385.469 286.25 388.75 289.453 389.61L297.031 391.641C298.75 392.11 300.39 391.797 301.797 390.86L327.266 373.985L343.984 404.297C345.156 406.485 347.578 407.657 350.078 407.266C352.5 406.875 354.453 405 355 402.579L376.406 293.75L389.687 464.454C389.922 467.266 392.109 469.532 394.922 469.922C395.156 470 395.391 470 395.547 470C398.125 470 400.469 468.282 401.172 465.782L436.641 349.844L454.219 400.782C455 403.047 457.031 404.61 459.453 404.766C461.797 404.844 464.062 403.516 465.078 401.407L474.453 381.719L514.844 383.75C518.281 384.219 520.859 381.407 521.016 378.125C521.172 374.844 518.672 372.11 515.391 371.954L471.094 369.688C468.828 369.61 466.562 370.938 465.547 373.047Z" fill="#0A7F6E" fill-opacity="0.7"/>
</svg>
