<svg width="800" height="800" viewBox="0 0 800 800" fill="none" xmlns="http://www.w3.org/2000/svg">
<path d="M590.476 633.333C669.374 633.333 733.333 570.127 733.333 492.157C733.333 414.187 669.374 350.98 590.476 350.98C581.006 350.98 571.75 351.89 562.795 353.63M562.795 353.63C570.431 333.26 574.603 311.229 574.603 288.235C574.603 184.276 489.324 100 384.127 100C286.137 100 205.43 173.124 194.83 267.166M562.795 353.63C543.98 357.28 526.491 364.58 511.111 374.753M320.633 267.574C300.777 260.637 279.407 256.863 257.143 256.863C235.32 256.863 214.357 260.489 194.83 267.166M194.83 267.166C120.233 292.675 66.6667 362.703 66.6667 445.097C66.6667 535.33 130.913 610.737 216.667 629.073" stroke="#0A7F6E" stroke-opacity="0.6" stroke-width="50" stroke-linecap="round"/>
<path d="M333.333 633.333H400H466.667" stroke="#F35200" stroke-opacity="0.6" stroke-width="50" stroke-linecap="round"/>
</svg>
