<svg width="800" height="800" viewBox="0 0 800 800" fill="none" xmlns="http://www.w3.org/2000/svg">
<path d="M506.563 529.297H275.469C268.984 529.297 263.672 523.984 263.672 517.5V287.031C263.672 282.734 260.156 279.219 255.859 279.219C251.563 279.219 248.047 282.734 248.047 287.031V517.5C248.047 532.656 260.313 544.922 275.469 544.922H506.563C510.859 544.922 514.375 541.406 514.375 537.109C514.375 532.813 510.938 529.297 506.563 529.297Z" fill="#F35200" fill-opacity="0.6"/>
<path d="M675.781 301.953C684.375 301.953 691.406 294.922 691.406 286.328C691.406 277.734 684.375 270.703 675.781 270.703H621.328V226.328C621.328 196.172 596.797 171.641 566.641 171.641H544.922V119.062C544.922 110.469 537.891 103.438 529.297 103.438C520.703 103.438 513.672 110.469 513.672 119.062V171.641H477.344V119.062C477.344 110.469 470.312 103.438 461.719 103.438C453.125 103.438 446.094 110.469 446.094 119.062V171.641H409.766V119.062C409.766 110.469 402.734 103.438 394.141 103.438C385.547 103.438 378.516 110.469 378.516 119.062V171.641H342.188V119.062C342.188 110.469 335.156 103.438 326.562 103.438C317.969 103.438 310.938 110.469 310.938 119.062V171.641H243.906C213.75 171.641 189.219 196.172 189.219 226.328V270.703H134.766C126.172 270.703 119.141 277.734 119.141 286.328C119.141 294.922 126.172 301.953 134.766 301.953H189.219V338.281H134.766C126.172 338.281 119.141 345.313 119.141 353.906C119.141 362.5 126.172 369.531 134.766 369.531H189.219V405.859H134.766C126.172 405.859 119.141 412.891 119.141 421.484C119.141 430.078 126.172 437.109 134.766 437.109H189.219V473.438H134.766C126.172 473.438 119.141 480.469 119.141 489.063C119.141 497.656 126.172 504.687 134.766 504.687H189.219V549.063C189.219 579.219 213.75 603.75 243.906 603.75H267.969V660.391C267.969 668.984 275 676.016 283.594 676.016C292.188 676.016 299.219 668.984 299.219 660.391V603.75H335.547V660.391C335.547 668.984 342.578 676.016 351.172 676.016C359.766 676.016 366.797 668.984 366.797 660.391V603.75H403.125V660.391C403.125 668.984 410.156 676.016 418.75 676.016C427.344 676.016 434.375 668.984 434.375 660.391V603.75H470.703V660.391C470.703 668.984 477.734 676.016 486.328 676.016C494.922 676.016 501.953 668.984 501.953 660.391V603.75H566.641C596.797 603.75 621.328 579.219 621.328 549.063V504.687H675.781C684.375 504.687 691.406 497.656 691.406 489.063C691.406 480.469 684.375 473.438 675.781 473.438H621.328V437.109H675.781C684.375 437.109 691.406 430.078 691.406 421.484C691.406 412.891 684.375 405.859 675.781 405.859H621.328V369.531H675.781C684.375 369.531 691.406 362.5 691.406 353.906C691.406 345.313 684.375 338.281 675.781 338.281H621.328V301.953H675.781ZM590.078 548.984C590.078 561.875 579.531 572.422 566.641 572.422H243.906C231.016 572.422 220.469 561.875 220.469 548.984V226.328C220.469 213.438 231.016 202.891 243.906 202.891H566.641C579.531 202.891 590.078 213.438 590.078 226.328V548.984Z" fill="#0A7F6E" fill-opacity="0.6"/>
<path d="M318.437 407.344H357.734L366.328 429.687H387.891L348.516 331.406H327.5L289.219 429.687H310.312L318.437 407.344ZM337.812 354.297L351.328 390.781H324.531L337.812 354.297ZM418.281 392.656H431.25C440.234 392.656 447.109 392.187 451.875 391.25C455.391 390.469 458.828 388.906 462.187 386.562C465.547 384.219 468.359 381.016 470.547 376.875C472.734 372.734 473.828 367.656 473.828 361.641C473.828 353.828 471.953 347.422 468.125 342.5C464.297 337.578 459.609 334.375 453.984 332.891C450.312 331.875 442.422 331.406 430.391 331.406H398.437V429.687H418.281V392.656ZM418.281 348.047H427.891C435.078 348.047 439.766 348.281 442.187 348.75C445.391 349.297 448.047 350.781 450.156 353.125C452.266 355.469 453.281 358.437 453.281 361.953C453.281 364.844 452.5 367.422 451.016 369.609C449.531 371.797 447.422 373.437 444.844 374.453C442.188 375.469 436.953 376.016 429.141 376.016H418.281V348.047ZM489.453 331.406H509.297V429.687H489.453V331.406Z" fill="#0A7F6E" fill-opacity="0.6"/>
</svg>
