<svg width="32" height="32" viewBox="0 0 32 32" fill="none" xmlns="http://www.w3.org/2000/svg">
<path d="M12.614 24.6764C11.6075 24.6764 10.7886 25.4953 10.7886 26.5018C10.7886 27.5083 11.6075 28.3273 12.614 28.3273C13.6205 28.3273 14.4394 27.5083 14.4394 26.5018C14.4394 25.4953 13.6206 24.6764 12.614 24.6764ZM12.614 27.2934C12.1774 27.2934 11.8224 26.9383 11.8224 26.5018C11.8224 26.0653 12.1774 25.7101 12.614 25.7101C13.0506 25.7101 13.4056 26.0653 13.4056 26.5018C13.4056 26.9383 13.0506 27.2934 12.614 27.2934Z" fill="white"/>
<path d="M24.5705 24.6764C23.564 24.6764 22.7451 25.4953 22.7451 26.5018C22.7451 27.5083 23.5639 28.3273 24.5705 28.3273C25.5771 28.3273 26.3959 27.5083 26.3959 26.5018C26.3959 25.4953 25.577 24.6764 24.5705 24.6764ZM24.5705 27.2934C24.134 27.2934 23.7789 26.9383 23.7789 26.5018C23.7789 26.0653 24.134 25.7101 24.5705 25.7101C25.0071 25.7101 25.3621 26.0653 25.3621 26.5018C25.3621 26.9383 25.0071 27.2934 24.5705 27.2934Z" fill="white"/>
<path d="M31.001 5.61256C30.5705 5.00506 29.8967 4.65649 29.152 4.65649H15.3592C15.0737 4.65649 14.8423 4.88793 14.8423 5.17337C14.8423 5.45881 15.0737 5.69024 15.3592 5.69024H29.152C29.5568 5.69024 29.9233 5.87968 30.1573 6.21012C30.3913 6.54043 30.4486 6.94899 30.3143 7.33099L28.574 12.2811C28.4793 12.5504 28.6208 12.8455 28.8902 12.9402C28.9468 12.9601 29.0047 12.9696 29.0615 12.9696C29.2748 12.9696 29.4744 12.8366 29.5492 12.6239L31.2895 7.67387C31.5365 6.97149 31.4314 6.22012 31.001 5.61256Z" fill="white"/>
<path d="M30.1047 20.3184C31.1498 20.3184 32 19.4683 32 18.4231C32 17.378 31.1498 16.5278 30.1047 16.5278H28.177L28.8226 14.6916C28.9173 14.4223 28.7757 14.1272 28.5064 14.0325C28.2372 13.9379 27.9419 14.0794 27.8473 14.3487L27.0812 16.5278H12.5033L9.24619 5.69032H13.2917C13.5773 5.69032 13.8086 5.45888 13.8086 5.17344C13.8086 4.88801 13.5772 4.65657 13.2917 4.65657H8.93544L8.49725 3.19857C8.25456 2.39125 7.52519 1.84875 6.68213 1.84875H1.89531C0.85025 1.84863 0 2.69894 0 3.74394C0 4.789 0.85025 5.63925 1.89531 5.63925H5.27269L6.413 9.43338C6.49513 9.70682 6.78338 9.86188 7.05688 9.77963C7.33025 9.6975 7.48525 9.40919 7.40306 9.13582L6.15206 4.97363C6.08637 4.75507 5.88519 4.60551 5.657 4.60551H1.89531C1.42025 4.60551 1.03381 4.21907 1.03381 3.744C1.03381 3.26894 1.42025 2.8825 1.89531 2.8825H6.68206C7.06531 2.8825 7.39681 3.12913 7.50719 3.496L11.6239 17.1935C11.6896 17.412 11.8908 17.5616 12.119 17.5616H30.1047C30.5798 17.5616 30.9662 17.9481 30.9662 18.4231C30.9662 18.8982 30.5798 19.2846 30.1047 19.2846H11.9187H11.0939C10.7156 19.2846 10.3776 19.0331 10.2688 18.6711L10.2096 18.4739L8.0245 11.2034C7.94244 10.93 7.65425 10.7751 7.38069 10.8572C7.10719 10.9393 6.95219 11.2276 7.03444 11.501L9.02181 18.1137L7.55037 22.7064C7.36644 23.2808 7.46875 23.9146 7.82425 24.4018C8.15225 24.8513 8.66481 25.1331 9.21575 25.1741C9.05425 25.5859 8.96463 26.0335 8.96463 26.5019C8.96463 28.5142 10.6017 30.1513 12.6141 30.1513C14.6264 30.1513 16.2635 28.5142 16.2635 26.5019C16.2635 26.0357 16.1747 25.5901 16.0146 25.1799H21.1701C21.0101 25.5901 20.9212 26.0358 20.9212 26.5019C20.9212 28.5142 22.5584 30.1513 24.5706 30.1513C26.5829 30.1513 28.2201 28.5142 28.2201 26.5019C28.2201 26.0357 28.1313 25.5901 27.9712 25.1799H29.0643C30.1094 25.1799 30.9596 24.3298 30.9596 23.2846C30.9596 22.2395 30.1094 21.3893 29.0643 21.3893H11.9528L12.2959 20.3185H30.1047V20.3184ZM12.614 29.1175C11.1717 29.1175 9.99837 27.9441 9.99837 26.5019C9.99837 25.9197 10.1898 25.3814 10.5127 24.9464C11.0009 24.2887 11.7941 23.8863 12.6141 23.8863C13.4305 23.8863 14.2296 24.2911 14.7157 24.9469C15.0385 25.3819 15.2297 25.9199 15.2297 26.5019C15.2297 27.9441 14.0563 29.1175 12.614 29.1175ZM24.5707 29.1175C23.1284 29.1175 21.9551 27.9441 21.9551 26.5019C21.9551 25.4685 22.6092 24.4996 23.5566 24.0941C23.8757 23.9574 24.2236 23.8862 24.5708 23.8862C25.7096 23.8862 26.7515 24.6639 27.0774 25.7541C27.1499 25.9964 27.1864 26.249 27.1864 26.5018C27.1864 27.9441 26.013 29.1175 24.5707 29.1175ZM29.0644 22.423V22.4231C29.5395 22.4231 29.9259 22.8095 29.9259 23.2846C29.9259 23.7596 29.5395 24.1461 29.0644 24.1461H27.357C27.3091 24.1461 27.1277 23.8991 27.089 23.8622C26.4161 23.2216 25.5002 22.8524 24.5707 22.8524C23.7789 22.8524 22.9974 23.1162 22.3672 23.5953C22.1536 23.7569 21.9578 23.9416 21.7846 24.1461H15.4003C14.7561 23.3857 13.8018 22.9121 12.8066 22.8577C12.7424 22.8542 12.6782 22.8524 12.6141 22.8524C11.6714 22.8524 10.7505 23.2288 10.0742 23.8846C10.0112 23.9457 9.95031 24.0091 9.89188 24.0744C9.8705 24.0983 9.8485 24.1215 9.82775 24.146H9.35525C9.08106 24.146 8.82094 24.0138 8.65931 23.7924C8.49775 23.5709 8.45119 23.2828 8.53481 23.0216L9.62375 19.6228C9.60169 19.6928 9.75863 19.7913 9.80175 19.8239C9.9965 19.9714 10.2044 20.1052 10.4323 20.1954C10.6834 20.2948 10.9421 20.3184 11.2101 20.3184L10.752 21.7484C10.7017 21.9056 10.7294 22.0774 10.8267 22.2108C10.924 22.3441 11.0791 22.4229 11.2443 22.4229H29.0644V22.423Z" fill="white"/>
</svg>
