<svg width="32" height="32" viewBox="0 0 32 32" fill="none" xmlns="http://www.w3.org/2000/svg">
<g clip-path="url(#clip0_50_92)">
<path d="M6.22933 6.93329L5.78507 4.26663H4.1904C3.95253 3.34929 3.1248 2.66663 2.13333 2.66663C0.9568 2.66663 0 3.62343 0 4.79996C0 5.97649 0.9568 6.93329 2.13333 6.93329C3.1248 6.93329 3.95253 6.25063 4.19093 5.33329H4.88107L5.14773 6.93329H5.12747L7.88533 20.8085C6.57067 20.9088 5.47573 21.921 5.34667 23.1946C5.27093 23.944 5.51733 24.6944 6.02293 25.2522C6.52907 25.8117 7.25013 26.1333 8 26.1333H9.06667C9.06667 27.8981 10.5019 29.3333 12.2667 29.3333C14.0315 29.3333 15.4667 27.8981 15.4667 26.1333H21.3333C21.3333 27.8981 22.7685 29.3333 24.5333 29.3333C26.2981 29.3333 27.7333 27.8981 27.7333 26.1333H29.8667C30.1616 26.1333 30.4 25.8949 30.4 25.6C30.4 25.305 30.1616 25.0666 29.8667 25.0666H27.5467C27.1061 23.8256 25.9237 22.9333 24.5333 22.9333C23.1429 22.9333 21.9605 23.8256 21.52 25.0666H15.28C14.8395 23.8256 13.6571 22.9333 12.2667 22.9333C10.8763 22.9333 9.69387 23.8256 9.25333 25.0666H8C7.55093 25.0666 7.11893 24.8736 6.81387 24.537C6.50613 24.1962 6.3616 23.7578 6.408 23.3018C6.48907 22.497 7.23253 21.8672 8.10027 21.8672H8.52213C8.5296 21.8672 8.53547 21.8672 8.54293 21.8672H29.3397C30.8069 21.8666 32 20.6736 32 19.2069V6.93329H6.22933ZM2.13333 5.86663C1.54507 5.86663 1.06667 5.38823 1.06667 4.79996C1.06667 4.21169 1.54507 3.73329 2.13333 3.73329C2.7216 3.73329 3.2 4.21169 3.2 4.79996C3.2 5.38823 2.7216 5.86663 2.13333 5.86663ZM24.5333 24C25.7099 24 26.6667 24.9568 26.6667 26.1333C26.6667 27.3098 25.7099 28.2666 24.5333 28.2666C23.3568 28.2666 22.4 27.3098 22.4 26.1333C22.4 24.9568 23.3568 24 24.5333 24ZM12.2667 24C13.4432 24 14.4 24.9568 14.4 26.1333C14.4 27.3098 13.4432 28.2666 12.2667 28.2666C11.0901 28.2666 10.1333 27.3098 10.1333 26.1333C10.1333 24.9568 11.0901 24 12.2667 24ZM30.9333 19.2069C30.9333 20.0853 30.2187 20.8 29.3403 20.8H8.9712L6.4272 7.99996H30.9333V19.2069Z" fill="white"/>
</g>
<defs>
<clipPath id="clip0_50_92">
<rect width="32" height="32" fill="white"/>
</clipPath>
</defs>
</svg>
