<svg width="80" height="80" viewBox="0 0 80 80" fill="none" xmlns="http://www.w3.org/2000/svg">
<path d="M38.3691 3.10045L3.53027 32.9784C2.88328 33.4486 2.50032 34.2 2.5 34.9999V74.9999C2.50014 76.3805 3.61935 77.4997 5 77.4999H75C76.3807 77.4997 77.4999 76.3805 77.5 74.9999V34.9999C77.4999 34.2343 77.149 33.511 76.5479 33.037L41.6357 3.10045C40.7119 2.3083 39.3185 2.28627 38.3691 3.10045ZM39.9902 8.286L70.8252 34.7069L40 54.5262L9.1748 34.7069L39.9902 8.286ZM7.5 39.5799L30.0146 54.0526L7.5 70.1366V39.5799ZM72.5 39.5799V70.1366L49.9854 54.0526L72.5 39.5799ZM34.5459 56.9676L38.6475 59.6044C39.4713 60.1343 40.5287 60.1343 41.3525 59.6044L45.459 56.9676L67.1973 72.4999H12.8027L34.5459 56.9676Z" fill="#B9B9B9"/>
</svg>
