<svg width="132" height="132" viewBox="0 0 132 132" fill="none" xmlns="http://www.w3.org/2000/svg">
<path d="M66 4C31.7547 4 4 31.7547 4 66C4 100.245 31.7547 128 66 128C100.245 128 128 100.245 128 66C128 31.7547 100.245 4 66 4ZM104.702 104.677C99.6641 109.715 93.8273 113.662 87.3125 116.399C80.5797 119.257 73.4109 120.686 66 120.686C58.6133 120.686 51.4445 119.233 44.6875 116.399C38.1727 113.638 32.3117 109.691 27.2984 104.677C22.2609 99.6398 18.3133 93.8031 15.5766 87.2883C12.7188 80.5555 11.2656 73.3867 11.2656 66C11.2656 58.6133 12.7187 51.4445 15.5523 44.6875C18.3133 38.1727 22.2609 32.3117 27.2742 27.2984C32.3359 22.2609 38.1727 18.3133 44.6875 15.5523C51.4445 12.7187 58.6133 11.2656 66 11.2656C73.3867 11.2656 80.5555 12.7187 87.3125 15.5523C93.8273 18.3133 99.6883 22.2609 104.702 27.2742C109.739 32.3117 113.687 38.1484 116.423 44.6633C119.281 51.3961 120.71 58.5648 120.71 65.9758C120.71 73.3625 119.257 80.5312 116.423 87.2883C113.663 93.8031 109.715 99.6641 104.702 104.677Z" fill="#0A7F6E"/>
<path d="M86.2637 33H45.7871C38.7488 33 33.0254 38.7234 33.0254 45.7617V59.2453V86.2641C33.0254 93.3023 38.7488 99.0258 45.7871 99.0258H86.2637C93.302 99.0258 99.0254 93.3023 99.0254 86.2641V59.2195V45.7359C98.9996 38.7234 93.2762 33 86.2637 33ZM89.9246 40.6055H91.3941V42.0492V51.7945L80.2309 51.8203L80.2051 40.6313L89.9246 40.6055ZM56.5895 59.2195C58.7035 56.3063 62.1324 54.3727 65.9996 54.3727C69.8668 54.3727 73.2957 56.2805 75.4098 59.2195C76.802 61.1273 77.6012 63.4734 77.6012 66C77.6012 72.3937 72.3934 77.6273 65.9738 77.6273C59.5543 77.6273 54.398 72.3937 54.398 66C54.398 63.4734 55.223 61.1273 56.5895 59.2195ZM92.5801 86.2383C92.5801 89.7188 89.7441 92.5547 86.2637 92.5547H45.7871C42.3066 92.5547 39.4707 89.7188 39.4707 86.2383V59.2195H49.3191C48.4684 61.3078 47.9785 63.6023 47.9785 66C47.9785 75.9516 56.0738 84.0469 66.0254 84.0469C75.977 84.0469 84.0723 75.9516 84.0723 66C84.0723 63.6023 83.5824 61.3078 82.7316 59.2195H92.5801V86.2383Z" fill="#0A7F6E"/>
</svg>
