<svg width="132" height="132" viewBox="0 0 132 132" fill="none" xmlns="http://www.w3.org/2000/svg">
<g clip-path="url(#clip0_94_10)">
<circle cx="66" cy="66" r="66" fill="white"/>
<path d="M66 4C31.7547 4 4 31.7547 4 66C4 100.245 31.7547 128 66 128C100.245 128 128 100.245 128 66C128 31.7547 100.245 4 66 4ZM104.702 104.677C99.6641 109.715 93.8273 113.662 87.3125 116.399C80.5797 119.257 73.4109 120.686 66 120.686C58.6133 120.686 51.4445 119.233 44.6875 116.399C38.1727 113.638 32.3117 109.691 27.2984 104.677C22.2609 99.6398 18.3133 93.8031 15.5766 87.2883C12.7188 80.5555 11.2656 73.3867 11.2656 66C11.2656 58.6133 12.7187 51.4445 15.5523 44.6875C18.3133 38.1727 22.2609 32.3117 27.2742 27.2984C32.3359 22.2609 38.1727 18.3133 44.6875 15.5523C51.4445 12.7187 58.6133 11.2656 66 11.2656C73.3867 11.2656 80.5555 12.7187 87.3125 15.5523C93.8273 18.3133 99.6883 22.2609 104.702 27.2742C109.739 32.3117 113.687 38.1484 116.423 44.6633C119.281 51.3961 120.71 58.5648 120.71 65.9758C120.71 73.3625 119.257 80.5312 116.423 87.2883C113.663 93.8031 109.715 99.6641 104.702 104.677Z" fill="#0A7F6E"/>
<path d="M47.5406 52.4391H34.6758V93.6117H47.5406V52.4391Z" fill="#0A7F6E"/>
<path d="M40.8379 33C36.0941 33 32.9746 36.068 32.9746 40.1414C32.9746 44.1375 35.991 47.2828 40.6574 47.2828H40.7605C45.6074 47.2828 48.6238 44.1117 48.598 40.1414C48.4949 36.068 45.5816 33 40.8379 33Z" fill="#0A7F6E"/>
<path d="M82.6803 52.0523C75.3068 52.0523 70.692 56.0742 69.8412 58.9102V52.4391H55.3779C55.5584 55.868 55.3779 93.6117 55.3779 93.6117H69.8412V71.3625C69.8412 70.0992 69.7896 68.8617 70.1506 67.9852C71.1303 65.5102 73.2701 62.932 77.1115 62.932C82.1389 62.932 84.4076 66.7477 84.4076 72.3164V93.6117H98.9998V70.718C98.9998 57.982 91.8326 52.0523 82.6803 52.0523Z" fill="#0A7F6E"/>
</g>
<defs>
<clipPath id="clip0_94_10">
<rect width="132" height="132" fill="white"/>
</clipPath>
</defs>
</svg>
