<svg width="32" height="32" viewBox="0 0 32 32" fill="none" xmlns="http://www.w3.org/2000/svg">
<path fill-rule="evenodd" clip-rule="evenodd" d="M25 25.5C25 27.985 22.802 30 20.091 30H11.909C9.198 30 7 27.985 7 25.5V22.5C7 20.374 8.61299 18.604 10.775 18.133C12.25 19.304 14.05 20 16 20C17.95 20 19.75 19.304 21.225 18.133C23.387 18.604 25 20.374 25 22.5V25.5ZM9 10C9 5.582 12.134 2 16 2C19.866 2 23 5.582 23 10C23 14.418 19.866 18 16 18C12.134 18 9 14.418 9 10ZM22.951 16.353C24.23 14.625 25 12.412 25 10C25 4.478 20.971 0 16 0C11.029 0 7 4.478 7 10C7 12.412 7.77001 14.625 9.04901 16.353C6.69901 17.165 5 19.373 5 22V26C5 29.313 7.687 32 11 32H21C24.313 32 27 29.313 27 26V22C27 19.373 25.301 17.165 22.951 16.353Z" fill="white"/>
</svg>
