<svg width="32" height="32" viewBox="0 0 32 32" fill="none" xmlns="http://www.w3.org/2000/svg">
<circle cx="16" cy="16" r="15" fill="#0A7F6E"/>
<path d="M16.9497 9.94048C16.9419 9.93977 16.9333 9.93977 16.9248 9.93977C16.6298 9.93977 16.3904 10.1792 16.3904 10.4742C16.3904 10.7585 16.6127 10.9915 16.8934 11.0079H16.8948C19.4123 11.1725 21.3918 13.2546 21.3918 15.7985C21.3918 15.931 21.3861 16.0621 21.3762 16.1918L21.3776 16.1747C21.3776 16.4697 21.617 16.7091 21.912 16.7091C22.207 16.7091 22.4464 16.4697 22.4464 16.1747C22.4529 16.0728 22.4564 15.9538 22.4564 15.8334C22.4564 12.7124 20.0358 10.1564 16.9697 9.9412L16.9511 9.94048H16.9497ZM16.897 7.17146C17.2169 7.18713 24.7338 7.6617 24.7338 16.1747C24.7338 16.4697 24.9732 16.7091 25.2682 16.7091C25.5632 16.7091 25.8026 16.4697 25.8026 16.1747C25.8133 16.0051 25.8197 15.8077 25.8197 15.6082C25.8197 10.5782 21.9213 6.45818 16.9804 6.10617L16.9497 6.10475C16.9433 6.10475 16.9362 6.10403 16.929 6.10403C16.6419 6.10403 16.4075 6.32778 16.3896 6.60996V6.61138C16.3889 6.61922 16.3889 6.62848 16.3889 6.63775C16.3889 6.92348 16.6134 7.15721 16.8956 7.17146H16.897ZM25.928 21.7085C25.8504 21.2275 25.69 20.7957 25.462 20.4095L25.4713 20.4266C25.39 20.2941 25.2568 20.2007 25.1 20.1751L25.0972 20.1743L18.7062 19.1596C18.6812 19.1554 18.652 19.1532 18.6228 19.1532C18.4753 19.1532 18.3414 19.2124 18.2444 19.3086C17.7627 19.7931 17.3936 20.3888 17.1784 21.0551L17.1699 21.0864C14.3082 19.9178 12.0815 17.6911 10.9407 14.9049L10.9136 14.8301C11.6105 14.6064 12.2062 14.2365 12.69 13.7548C12.7869 13.6579 12.8468 13.524 12.8468 13.3765C12.8468 13.3473 12.8446 13.3188 12.8396 13.291L12.8404 13.2938L11.8249 6.90282C11.7993 6.74321 11.7059 6.60924 11.5755 6.52944L11.5734 6.52801C11.2136 6.31353 10.7939 6.15605 10.3449 6.08194L10.3243 6.07909C10.0998 6.02922 9.84188 6 9.57752 6C9.5597 6 9.54189 6 9.52407 6.00071H9.52692H9.52265C7.03081 6.01781 5.01496 8.03509 5 10.5262V10.5276C5.01069 19.6207 12.3786 26.9893 21.4709 27H21.4724C23.9663 26.9836 25.9836 24.9663 26 22.4745V22.4731C26 22.4588 26 22.4417 26 22.4246C26 22.1709 25.9743 21.9237 25.9245 21.685L25.9287 21.7085H25.928ZM21.4716 25.9312C12.9686 25.9212 6.07882 19.0307 6.06885 10.5283C6.08239 8.62366 7.62366 7.08239 9.52764 7.06956H9.52906C9.54046 7.06956 9.55471 7.06956 9.56825 7.06956C9.76207 7.06956 9.9509 7.09094 10.1333 7.13084L10.1162 7.12728C10.377 7.17003 10.6114 7.242 10.8309 7.34105L10.8131 7.33392L11.7409 13.1784C11.2934 13.5546 10.7404 13.8204 10.1326 13.9266L10.1119 13.9294C9.85898 13.975 9.67015 14.1931 9.67015 14.456C9.67015 14.5187 9.68084 14.5786 9.70079 14.6341L9.69937 14.6306C10.962 18.2447 13.7574 21.0394 17.2853 22.2757L17.3716 22.3021C17.4236 22.3206 17.4834 22.3313 17.5461 22.3313C17.8084 22.3313 18.0264 22.1424 18.0713 21.893L18.072 21.8895C18.181 21.261 18.4468 20.7081 18.828 20.2541L18.8238 20.2591L24.6675 21.1876C24.7623 21.3971 24.8364 21.6408 24.8784 21.8959L24.8806 21.913C24.9133 22.0691 24.9326 22.2486 24.9326 22.4325C24.9326 22.4453 24.9326 22.4574 24.9326 22.4702V22.4681C24.9212 24.3742 23.3799 25.9169 21.4752 25.9304H21.4738L21.4716 25.9312Z" fill="white"/>
</svg>
