<svg width="80" height="80" viewBox="0 0 80 80" fill="none" xmlns="http://www.w3.org/2000/svg">
<path fill-rule="evenodd" clip-rule="evenodd" d="M67.648 34.2863C69.3003 33.0738 70.191 31.5094 70.221 29.9125C70.2716 27.2143 68.454 22.3167 56.836 17.0432C45.4376 11.8692 35.2903 11.7909 22.7551 16.8655C16.4383 19.4227 13.2506 21.916 11.6192 24.0403C10.0337 26.1049 9.80844 27.9609 9.77754 29.6054C9.74764 31.1969 10.5736 32.7559 12.1655 33.976C13.7595 35.1977 16.0533 36.0097 18.6744 36.0247C19.7871 36.031 20.4574 35.7063 20.9172 35.2737C21.4154 34.8043 21.8072 34.073 22.0842 33.0534C22.5656 31.2817 22.588 29.1437 22.6093 27.1205C22.6133 26.7412 22.6172 26.3659 22.6241 25.9978C22.6298 25.6929 22.7251 25.3965 22.8979 25.1453C24.5415 22.7571 27.4334 21.1387 30.6148 20.1175C33.8363 19.0834 37.5713 18.5909 41.1813 18.6116C44.785 18.6323 48.362 19.1651 51.2516 20.2561C54.0796 21.3237 56.5996 23.0679 57.44 25.7439C57.4903 25.904 57.5143 26.0712 57.511 26.239C57.504 26.6074 57.494 26.9828 57.4836 27.3622C57.429 29.3855 57.3713 31.5215 57.7853 33.2957C58.0236 34.3167 58.3853 35.0417 58.8546 35.5053C59.2843 35.93 59.9303 36.262 61.0433 36.2683C63.6643 36.2833 65.9966 35.498 67.648 34.2863ZM69.4883 36.7943C67.252 38.4353 64.2546 39.3977 61.0256 39.379C59.2136 39.3687 57.752 38.789 56.6683 37.718C55.6243 36.6867 55.0663 35.3327 54.756 34.0027C54.241 31.7959 54.317 29.1712 54.3753 27.172C54.3823 26.9242 54.3893 26.686 54.395 26.4594C53.9046 25.2341 52.5273 24.0628 50.153 23.1663C47.701 22.2406 44.5113 21.7415 41.1636 21.7223C37.8226 21.7031 34.422 22.1624 31.5655 23.0794C28.891 23.9378 26.8708 25.1388 25.7273 26.5521L25.7227 27.0485C25.7056 29.0482 25.6832 31.6714 25.0861 33.869C24.7263 35.1933 24.1207 36.53 23.0496 37.5383C21.9399 38.583 20.4689 39.1457 18.6565 39.1353C15.4278 39.1167 12.4588 38.12 10.2732 36.445C8.08548 34.7683 6.61488 32.3422 6.66738 29.547C6.70484 27.551 7.00488 24.9416 9.15211 22.1456C11.2535 19.4092 15.0061 16.6466 21.5878 13.9821C34.8493 8.6134 45.8866 8.6569 58.1216 14.2106C70.1376 19.6647 73.417 25.3881 73.331 29.9709C73.2786 32.7607 71.7233 35.1543 69.4883 36.7943ZM27.701 35.546C27.701 31.1411 31.2718 27.5703 35.6766 27.5703H44.6113C49.016 27.5703 52.587 31.1411 52.587 35.546C52.587 37.4487 53.8043 39.138 55.6093 39.7397L57.175 40.2613C60.8043 41.4713 63.2523 44.8677 63.2523 48.693V57.7887C63.2523 62.6973 59.273 66.6767 54.3643 66.6767H25.9234C21.0149 66.6767 17.0357 62.6973 17.0357 57.7887V48.693C17.0357 44.8677 19.4836 41.4713 23.1129 40.2613L24.6784 39.7397C26.4835 39.138 27.701 37.4487 27.701 35.546ZM35.6766 31.1255C33.2352 31.1255 31.2561 33.1046 31.2561 35.546C31.2561 38.979 29.0594 42.0267 25.8026 43.1123L24.2371 43.634C22.0595 44.36 20.5908 46.3977 20.5908 48.693V57.7887C20.5908 60.734 22.9783 63.1217 25.9234 63.1217H54.3643C57.3096 63.1217 59.697 60.734 59.697 57.7887V48.693C59.697 46.3977 58.2283 44.36 56.0506 43.634L54.4853 43.1123C51.2283 42.0267 49.0316 38.979 49.0316 35.546C49.0316 33.1046 47.0526 31.1255 44.6113 31.1255H35.6766ZM34.811 50.6783C34.811 47.7333 37.1986 45.3457 40.1436 45.3457C43.089 45.3457 45.4763 47.7333 45.4763 50.6783C45.4763 53.6237 43.089 56.011 40.1436 56.011C37.1986 56.011 34.811 53.6237 34.811 50.6783ZM40.1436 41.7907C35.235 41.7907 31.2559 45.7697 31.2559 50.6783C31.2559 55.587 35.235 59.5663 40.1436 59.5663C45.0523 59.5663 49.0313 55.587 49.0313 50.6783C49.0313 45.7697 45.0523 41.7907 40.1436 41.7907Z" fill="#B9B9B9"/>
</svg>
