<svg width="132" height="132" viewBox="0 0 132 132" fill="none" xmlns="http://www.w3.org/2000/svg">
<g clip-path="url(#clip0_94_16)">
<circle cx="66" cy="66" r="66" fill="white"/>
<path d="M66 4C31.7547 4 4 31.7547 4 66C4 100.245 31.7547 128 66 128C100.245 128 128 100.245 128 66C128 31.7547 100.245 4 66 4ZM104.702 104.677C99.6641 109.715 93.8273 113.662 87.3125 116.399C80.5797 119.257 73.4109 120.686 66 120.686C58.6133 120.686 51.4445 119.233 44.6875 116.399C38.1727 113.638 32.3117 109.691 27.2984 104.677C22.2609 99.6398 18.3133 93.8031 15.5766 87.2883C12.7188 80.5555 11.2656 73.3867 11.2656 66C11.2656 58.6133 12.7187 51.4445 15.5523 44.6875C18.3133 38.1727 22.2609 32.3117 27.2742 27.2984C32.3359 22.2609 38.1727 18.3133 44.6875 15.5523C51.4445 12.7187 58.6133 11.2656 66 11.2656C73.3867 11.2656 80.5555 12.7187 87.3125 15.5523C93.8273 18.3133 99.6883 22.2609 104.702 27.2742C109.739 32.3117 113.687 38.1484 116.423 44.6633C119.281 51.3961 120.71 58.5648 120.71 65.9758C120.71 73.3625 119.257 80.5312 116.423 87.2883C113.663 93.8031 109.715 99.6641 104.702 104.677Z" fill="#0A7F6E"/>
<path d="M66 32.8195C47.7727 32.8195 33 47.5922 33 65.8195C33 79.3289 41.1211 90.9305 52.7484 96.0352C52.6453 93.7406 52.7227 90.9563 53.3156 88.4555C53.9602 85.7742 57.5695 70.4859 57.5695 70.4859C57.5695 70.4859 56.5125 68.3719 56.5125 65.2781C56.5125 60.3797 59.3484 56.7445 62.8805 56.7445C65.8711 56.7445 67.3406 58.9875 67.3406 61.6945C67.3406 64.7109 65.407 69.2227 64.4273 73.3992C63.6023 76.9055 66.1805 79.7414 69.6352 79.7414C75.9 79.7414 80.1023 71.7234 80.1023 62.2102C80.1023 54.9914 75.2297 49.5773 66.3609 49.5773C56.3578 49.5773 50.1188 57.0281 50.1188 65.3813C50.1188 68.2688 50.9695 70.2797 52.2844 71.8523C52.9031 72.5742 52.9805 72.8578 52.7484 73.6828C52.5937 74.2758 52.2328 75.7453 52.0781 76.3383C51.8461 77.1633 51.1758 77.4727 50.4281 77.1633C45.8133 75.2812 43.6734 70.2281 43.6734 64.5562C43.6734 55.1719 51.5883 43.9312 67.2633 43.9312C79.8703 43.9312 88.1461 53.0578 88.1461 62.8289C88.1461 75.7711 80.9531 85.4391 70.3313 85.4391C66.7734 85.4391 63.4219 83.5055 62.2617 81.3398C62.2617 81.3398 60.3539 88.9453 59.9414 90.4148C59.2453 92.9672 57.8789 95.4937 56.6156 97.4789C59.5805 98.3555 62.7258 98.8453 65.9742 98.8453C84.2016 98.8453 98.9742 84.0727 98.9742 65.8453C99 47.5922 84.2273 32.8195 66 32.8195Z" fill="#0A7F6E"/>
</g>
<defs>
<clipPath id="clip0_94_16">
<rect width="132" height="132" fill="white"/>
</clipPath>
</defs>
</svg>
