<svg width="32" height="32" viewBox="0 0 32 32" fill="none" xmlns="http://www.w3.org/2000/svg">
<path d="M12.5027 4.72522C9.71955 4.72522 7.10666 6.21322 5.68399 8.60878C5.55866 8.81944 5.62799 9.09278 5.83911 9.21766C5.91022 9.26033 5.98844 9.28033 6.06577 9.28033C6.21777 9.28033 6.36533 9.203 6.44844 9.063C7.71199 6.93589 10.0315 5.61411 12.5027 5.61411C12.7484 5.61411 12.9471 5.41544 12.9471 5.16966C12.9471 4.92389 12.7484 4.72522 12.5027 4.72522Z" fill="white"/>
<path d="M5.31844 10.5092C5.07977 10.4541 4.84066 10.6017 4.78466 10.8408C4.65177 11.4079 4.57666 11.7594 4.57666 12.3905C4.57666 12.6363 4.77577 12.835 5.0211 12.835C5.26688 12.835 5.46555 12.6363 5.46555 12.3905C5.46555 11.855 5.52555 11.5754 5.64999 11.043C5.70599 10.8039 5.55755 10.5652 5.31844 10.5092Z" fill="white"/>
<path d="M29.6058 25.6857L22.4315 18.5119C22.2569 18.3373 22.0813 18.2133 21.9115 18.1222C22.8507 16.5133 23.3915 14.6444 23.3915 12.6506C23.3915 6.64616 18.5071 1.76172 12.5027 1.76172C6.49866 1.76172 1.61377 6.64616 1.61377 12.6506C1.61377 18.6551 6.49866 23.539 12.5027 23.539C14.6404 23.539 16.6342 22.9177 18.3178 21.8497C18.4089 22.0004 18.5231 22.1457 18.66 22.2826L25.8342 29.4573C26.3391 29.9608 27.0075 30.2377 27.7204 30.2377C28.4329 30.2377 29.1018 29.9608 29.6062 29.4573C30.1098 28.9537 30.3867 28.2835 30.3867 27.5719C30.3862 26.8595 30.1093 26.1902 29.6058 25.6857ZM3.39155 12.6511C3.39155 7.62705 7.47866 3.53994 12.5027 3.53994C17.5271 3.53994 21.6138 7.62705 21.6138 12.6511C21.6138 17.6755 17.5262 21.7617 12.5027 21.7617C7.47866 21.7617 3.39155 17.6755 3.39155 12.6511ZM28.3484 28.2004C28.012 28.5355 27.4267 28.5355 27.0907 28.2004L19.9169 21.0262C19.8547 20.9644 19.8315 20.923 19.8284 20.923C19.8298 20.9039 19.8542 20.7208 20.3622 20.2137C20.8689 19.7057 21.052 19.6826 21.0578 19.679C21.0693 19.6826 21.1107 19.7057 21.1747 19.7693L28.348 26.943C28.5164 27.1115 28.6084 27.3346 28.6084 27.5724C28.608 27.8088 28.516 28.0319 28.3484 28.2004Z" fill="white"/>
</svg>
